<svg width="146" height="48" viewBox="0 0 146 48" fill="none" xmlns="http://www.w3.org/2000/svg">
<path d="M61.1027 1.22649H64.4111V0.442556H57.0103V1.22649H60.3054V9.74349H61.1027V1.22649ZM67.3609 3.09997C66.9947 3.09536 66.6342 3.19065 66.3182 3.3756C66.0021 3.56055 65.7424 3.82816 65.5671 4.14964L65.4475 3.09997H64.8275V9.74349H65.5848V5.96997C65.5848 4.64126 66.1827 3.83075 67.352 3.83075H68.1758V3.09997H67.3609ZM74.217 3.09997V6.74061C74.217 8.13575 73.4995 9.14557 72.1575 9.14557C71.0547 9.14557 70.2574 8.44136 70.2574 6.93992V3.09997H69.4868V7.08608C69.4868 8.78682 70.4612 9.87636 72.0379 9.87636C72.4851 9.90305 72.9303 9.7992 73.3196 9.57746C73.7088 9.35572 74.0252 9.02564 74.2303 8.62738L74.3498 9.74349H74.9699V3.09997H74.217ZM76.6086 7.84344C76.6485 9.07913 77.6185 9.87636 79.3591 9.87636C80.8605 9.87636 82.0032 9.14557 82.0032 7.8833C82.0032 6.83363 81.4053 6.30214 80.2227 6.12941L78.8143 5.91682C77.9108 5.79724 77.5254 5.46506 77.5254 4.82728C77.5254 4.05663 78.243 3.61816 79.2661 3.61816C80.3157 3.61816 81.0731 4.09649 81.0997 5.00001H81.8703C81.8437 3.67131 80.7542 2.96709 79.2528 2.96709C77.8311 2.96709 76.7814 3.69788 76.7814 4.82728C76.7814 5.87696 77.4192 6.42173 78.6681 6.60774L80.0898 6.82034C80.8871 6.92663 81.2325 7.2721 81.2325 7.94974C81.2325 8.76025 80.4885 9.22529 79.3325 9.22529C78.1765 9.22529 77.4457 8.72039 77.4059 7.84344H76.6086ZM85.4844 9.74349H86.3215V9.03484H85.5907C85.475 9.0491 85.3576 9.03633 85.2477 8.99754C85.1378 8.95876 85.0383 8.89501 84.9572 8.81132C84.8761 8.72762 84.8155 8.62626 84.7802 8.51519C84.7448 8.40412 84.7357 8.28637 84.7536 8.17119V3.79089H86.3348V3.09997H84.7536V1.39922H83.9962V2.54191C83.9962 2.92723 83.8501 3.09997 83.4249 3.09997H82.734V3.79089H83.9962V8.21991C83.9719 8.42278 83.9933 8.62853 84.0589 8.82203C84.1245 9.01553 84.2327 9.19186 84.3755 9.33803C84.5183 9.4842 84.692 9.5965 84.8839 9.66667C85.0758 9.73684 85.281 9.76309 85.4844 9.74349ZM93.8685 6.22242C93.8999 5.79593 93.8409 5.36762 93.6952 4.96556C93.5495 4.56349 93.3205 4.19676 93.0232 3.88939C92.7258 3.58202 92.3669 3.34097 91.9699 3.18202C91.5729 3.02308 91.1468 2.94984 90.7195 2.96709C90.2745 2.95549 89.8322 3.03839 89.4216 3.21034C89.0111 3.38228 88.6417 3.63936 88.3378 3.96459C88.0339 4.28982 87.8024 4.67581 87.6587 5.09707C87.515 5.51834 87.4623 5.96529 87.504 6.40844C87.4628 6.8537 87.5168 7.30262 87.6624 7.72541C87.808 8.1482 88.0419 8.53518 88.3485 8.86066C88.6551 9.18613 89.0275 9.44265 89.4409 9.61319C89.8542 9.78372 90.2991 9.86438 90.7461 9.84978C91.419 9.88152 92.0832 9.68671 92.6324 9.2965C93.1815 8.90629 93.584 8.34321 93.7755 7.69728H92.9916C92.8219 8.15034 92.5134 8.5382 92.1101 8.80546C91.7068 9.07272 91.2294 9.20571 90.7461 9.18543C90.4135 9.19839 90.082 9.14087 89.7733 9.01664C89.4645 8.89242 89.1856 8.70429 88.9547 8.46463C88.7238 8.22496 88.5462 7.93917 88.4336 7.62601C88.321 7.31286 88.2759 6.97943 88.3012 6.64761H93.8685V6.22242ZM90.7195 3.61816C91.0337 3.60651 91.347 3.66026 91.6393 3.77601C91.9317 3.89177 92.1969 4.067 92.418 4.2906C92.6391 4.51421 92.8113 4.7813 92.9238 5.07496C93.0362 5.36863 93.0865 5.68245 93.0713 5.99654H88.3145C88.3104 5.68081 88.37 5.36748 88.4897 5.0753C88.6094 4.78312 88.7869 4.51809 89.0114 4.29606C89.2359 4.07403 89.5029 3.89956 89.7964 3.78308C90.0898 3.6666 90.4038 3.61051 90.7195 3.61816ZM100.977 0.0439453V4.28251C100.7 3.86297 100.32 3.52164 99.8735 3.29129C99.4268 3.06093 98.9283 2.9493 98.426 2.96709C97.9814 2.96909 97.5421 3.06325 97.1358 3.24363C96.7294 3.42401 96.3649 3.68669 96.0653 4.01508C95.7656 4.34347 95.5373 4.73043 95.3947 5.15152C95.2522 5.57262 95.1985 6.0187 95.2371 6.46159C95.1993 6.90041 95.2541 7.34227 95.3979 7.75856C95.5418 8.17486 95.7714 8.55631 96.072 8.87821C96.3727 9.20012 96.7375 9.4553 97.143 9.62725C97.5485 9.79919 97.9856 9.88406 98.426 9.87636C98.9303 9.88875 99.4295 9.77195 99.876 9.53707C100.323 9.30218 100.702 8.95701 100.977 8.53437L101.11 9.74349H101.748V0.0439453H100.977ZM98.4924 9.212C97.0574 9.212 96.0343 8.20219 96.0343 6.46602C96.0343 4.75199 97.0308 3.66245 98.4924 3.64916C99.861 3.63588 100.951 4.7387 100.951 6.46602C100.988 6.81148 100.952 7.16092 100.846 7.49167C100.739 7.82243 100.564 8.12713 100.333 8.38602C100.101 8.64491 99.8172 8.85222 99.5002 8.99451C99.1832 9.13681 98.8399 9.2109 98.4924 9.212ZM106.172 6.43501C106.14 6.88507 106.203 7.33691 106.357 7.7611C106.51 8.18529 106.752 8.57231 107.065 8.89697C107.379 9.22163 107.757 9.47663 108.175 9.64538C108.594 9.81412 109.043 9.89282 109.494 9.87636C109.945 9.89282 110.394 9.81412 110.813 9.64538C111.231 9.47663 111.61 9.22163 111.923 8.89697C112.236 8.57231 112.478 8.18529 112.632 7.7611C112.785 7.33691 112.848 6.88507 112.816 6.43501C112.851 5.98311 112.79 5.52889 112.638 5.10206C112.485 4.67523 112.244 4.28541 111.931 3.95808C111.617 3.63075 111.238 3.37328 110.818 3.20252C110.398 3.03175 109.947 2.95153 109.494 2.96709C109.041 2.95153 108.59 3.03175 108.17 3.20252C107.75 3.37328 107.371 3.63075 107.058 3.95808C106.744 4.28541 106.503 4.67523 106.351 5.10206C106.198 5.52889 106.137 5.98311 106.172 6.43501ZM106.97 6.42173C106.929 6.068 106.965 5.70971 107.073 5.37074C107.182 5.03177 107.362 4.71989 107.601 4.45588C107.84 4.19186 108.132 3.98178 108.459 3.83963C108.785 3.69747 109.138 3.6265 109.494 3.63145C109.85 3.6265 110.203 3.69747 110.529 3.83963C110.856 3.98178 111.148 4.19186 111.387 4.45588C111.626 4.71989 111.806 5.03177 111.915 5.37074C112.024 5.70971 112.059 6.068 112.019 6.42173C112.058 6.77456 112.021 7.13168 111.912 7.46936C111.802 7.80703 111.622 8.11752 111.383 8.3802C111.145 8.64288 110.853 8.85172 110.527 8.99284C110.201 9.13397 109.849 9.20415 109.494 9.19872C109.139 9.20415 108.787 9.13397 108.461 8.99284C108.136 8.85172 107.844 8.64288 107.605 8.3802C107.366 8.11752 107.186 7.80703 107.076 7.46936C106.967 7.13168 106.93 6.77456 106.97 6.42173ZM117.586 2.96709C117.129 2.9333 116.672 3.03342 116.271 3.25524C115.869 3.47705 115.542 3.81094 115.327 4.21608L115.208 3.09997H114.583V9.74349H115.34V6.10284C115.34 4.7077 116.071 3.69788 117.466 3.69788C118.618 3.69788 119.433 4.40652 119.433 5.90353V9.74349H120.203V5.75737C120.244 5.39583 120.206 5.02975 120.091 4.68446C119.976 4.33918 119.788 4.02292 119.539 3.75757C119.29 3.49222 118.987 3.28411 118.649 3.14762C118.312 3.01114 117.949 2.94954 117.586 2.96709Z" fill="white"/>
<path d="M117.768 17.0792C116.32 17.1486 114.872 16.9272 113.51 16.428C112.148 15.9289 110.9 15.1621 109.84 14.1729C108.779 15.1622 107.531 15.929 106.169 16.4282C104.808 16.9273 103.36 17.1487 101.911 17.0792C101.911 22.2859 100.796 29.7462 109.84 32.7747C118.884 29.7453 117.768 22.2859 117.768 17.0792Z" fill="#3672FF"/>
<path d="M106.296 23.7373L109.026 26.5719L114.269 21.1428L113.516 20.373L109.026 25.0235L107.039 22.9622L106.296 23.7373Z" fill="white"/>
<path d="M67.0554 18.6373V22.2248H66.035L65.5248 19.8332H63.1012V28.8099L64.7913 29.1926V30.1173H59.3383V29.1926L61.032 28.8099V19.8332H58.5889L58.0947 22.2248H57.0742V18.6373H67.0554ZM69.4631 26.0356C69.4433 26.6517 69.5519 27.2653 69.7819 27.8373C69.919 28.1856 70.162 28.482 70.4768 28.6845C70.7916 28.8871 71.1621 28.9855 71.5358 28.9658C72.0205 28.9644 72.4991 28.8583 72.939 28.6549C73.4075 28.4383 73.8135 28.1064 74.1188 27.6902L74.9798 28.3599C74.5817 28.9152 74.068 29.3776 73.474 29.7152C72.7596 30.1076 71.9527 30.3004 71.1381 30.2732C70.4364 30.2936 69.7414 30.1315 69.1211 29.8029C68.5609 29.487 68.1125 29.0051 67.8376 28.4237C67.6714 28.077 67.5522 27.7097 67.4833 27.3315C67.4058 26.8974 67.3684 26.457 67.3717 26.0161C67.2924 24.7801 67.654 23.556 68.3921 22.5614C68.754 22.1497 69.2054 21.8262 69.7116 21.6159C70.2178 21.4055 70.7655 21.3138 71.3126 21.3479C71.8452 21.3416 72.3746 21.4316 72.8752 21.6136C73.3205 21.7749 73.7257 22.0305 74.063 22.363C74.3967 22.7025 74.6524 23.1106 74.8124 23.5589C74.9957 24.0729 75.0857 24.6156 75.0782 25.1613C75.0782 25.2794 75.0755 25.3936 75.0702 25.5041C75.0649 25.6145 75.0516 25.7917 75.0303 26.0356H69.4631ZM71.2807 22.4481C70.1859 22.4481 69.5853 23.3043 69.479 25.0169H72.9903V24.6023C73.0281 24.036 72.8719 23.4736 72.5474 23.0079C72.3957 22.821 72.2017 22.6728 71.9815 22.5754C71.7613 22.4781 71.5211 22.4345 71.2807 22.4481ZM80.4169 21.3479C80.8747 21.3443 81.3307 21.404 81.7722 21.525C82.1575 21.6282 82.5218 21.7982 82.8484 22.0273C83.1407 22.234 83.3829 22.5037 83.5571 22.8166C83.7283 23.1292 83.8161 23.4806 83.8122 23.837C83.8261 24.0355 83.7994 24.2348 83.7336 24.4226C83.6678 24.6104 83.5643 24.7828 83.4295 24.9292C83.306 25.0518 83.159 25.1481 82.9974 25.2125C82.8357 25.2769 82.6627 25.308 82.4888 25.3039C82.3078 25.3104 82.1277 25.2749 81.9626 25.2002C81.8301 25.1357 81.7132 25.0432 81.6198 24.9292C81.5303 24.8192 81.4651 24.6915 81.4285 24.5545C81.3917 24.4194 81.3729 24.28 81.3727 24.1399C81.3662 23.8962 81.4359 23.6566 81.572 23.4543C81.7191 23.2529 81.9297 23.1069 82.1699 23.0398C81.9924 22.8281 81.761 22.6684 81.5002 22.5774C81.1795 22.4557 80.8387 22.3956 80.4957 22.4002C80.1863 22.3947 79.8792 22.455 79.5949 22.5774C79.3262 22.7012 79.0972 22.8972 78.9332 23.1434C78.7298 23.4591 78.5891 23.811 78.5186 24.1798C78.4142 24.702 78.3661 25.2338 78.3751 25.7663C78.3645 26.2207 78.4019 26.675 78.4867 27.1216C78.5502 27.4204 78.6521 27.7098 78.7897 27.9826C78.9448 28.2743 79.1693 28.5235 79.4434 28.708C79.7498 28.8954 80.1049 28.9879 80.4638 28.9738C80.692 28.972 80.9192 28.9452 81.1415 28.894C81.3824 28.8403 81.6174 28.7629 81.843 28.6629C82.0758 28.5593 82.2953 28.4282 82.4968 28.2722C82.7075 28.1091 82.8929 27.9157 83.0469 27.6982L83.9079 28.3679C83.4721 29.0027 82.8754 29.5102 82.1788 29.8383C81.519 30.1319 80.8042 30.2814 80.0821 30.2768C79.3845 30.3001 78.6927 30.1436 78.0731 29.8224C77.5262 29.5149 77.0824 29.0526 76.7975 28.4937C76.6058 28.1233 76.4637 27.7292 76.375 27.3217C76.2708 26.8524 76.22 26.3728 76.2235 25.8921C76.2149 25.256 76.3119 24.6229 76.5105 24.0186C76.685 23.4899 76.9642 23.0018 77.3316 22.5836C77.6937 22.1808 78.1439 21.867 78.6471 21.6668C79.2106 21.4463 79.8118 21.338 80.4169 21.3479ZM91.3867 25.8442C91.3867 25.5041 91.3814 25.2088 91.3707 24.9584C91.3601 24.708 91.3453 24.4904 91.3265 24.3056C91.3152 24.1466 91.2885 23.9891 91.2467 23.8352C91.2143 23.7211 91.1744 23.6092 91.1271 23.5004C90.9979 23.2468 90.7964 23.0373 90.548 22.8982C90.2997 22.7591 90.0157 22.6968 89.732 22.7191C89.4308 22.72 89.1347 22.7968 88.871 22.9423C88.5971 23.0887 88.3704 23.3099 88.2173 23.5801C88.1178 23.7663 88.0428 23.9646 87.9941 24.1701C87.9244 24.4678 87.8922 24.7731 87.8984 25.0789V28.9215L88.9667 29.2244V30.1173H84.6422V29.2244L85.8699 28.9215V18.8765L84.6422 18.5736V17.6807H87.8949V23.0061C88.1514 22.516 88.527 22.0981 88.987 21.7908C89.4287 21.4978 89.9479 21.3436 90.4779 21.3479C90.8699 21.338 91.2607 21.3946 91.6338 21.5153C91.9456 21.6252 92.227 21.8073 92.455 22.0468C92.809 22.432 93.0587 22.9012 93.1804 23.41C93.3523 24.1385 93.43 24.886 93.4116 25.6343V28.9215L94.6394 29.2244V30.1173H90.3184V29.2244L91.3867 28.9215V25.8442ZM66.6409 39.1118C66.6432 39.7071 66.4277 40.2827 66.035 40.7301C65.8425 40.949 65.6131 41.1325 65.3574 41.2723C65.0927 41.4171 64.8035 41.5118 64.5043 41.5513V41.6151C65.2541 41.7528 65.9408 42.125 66.4655 42.678C66.946 43.2114 67.2029 43.9092 67.183 44.6268C67.1885 45.2132 67.0252 45.7888 66.7126 46.285C66.4265 46.7589 66.0156 47.145 65.5248 47.4011C65.3684 47.4785 65.2057 47.5425 65.0385 47.5925C64.8371 47.6514 64.632 47.6967 64.4246 47.728C64.1604 47.7683 63.8943 47.7949 63.6274 47.8077C63.3298 47.8248 62.9843 47.8334 62.591 47.8334H57.3453V46.9086L58.6846 46.5738V37.613L57.3453 37.2782V36.3534H63.1809C64.1132 36.2928 65.0345 36.5828 65.7639 37.1666C66.0373 37.4175 66.257 37.7212 66.4097 38.0595C66.5616 38.3895 66.6405 38.7485 66.6409 39.1118ZM60.7574 42.43V46.6376H62.0329C62.4278 46.6444 62.8225 46.6177 63.2128 46.5578C63.4755 46.5168 63.7291 46.4305 63.9622 46.3027C64.2615 46.1418 64.5059 45.895 64.6638 45.5941C64.8501 45.2483 64.9435 44.8601 64.9348 44.4674C64.9453 44.1414 64.8741 43.818 64.7276 43.5266C64.597 43.2807 64.418 43.0638 64.2014 42.8888C63.9822 42.7268 63.7328 42.6102 63.4679 42.546C63.0908 42.4573 62.7038 42.4171 62.3164 42.4265L60.7574 42.43ZM60.7574 41.2661H62.2721C62.5696 41.2915 62.869 41.255 63.1517 41.159C63.4343 41.063 63.694 40.9094 63.9144 40.708C64.0844 40.5448 64.2247 40.3533 64.3289 40.142C64.4447 39.895 64.5047 39.6255 64.5047 39.3527C64.5047 39.0799 64.4447 38.8105 64.3289 38.5635C64.2247 38.3521 64.0844 38.1606 63.9144 37.9974C63.4715 37.6368 62.9045 37.465 62.3359 37.5191H60.7574V41.2661ZM70.5012 43.7534C70.4815 44.3696 70.5901 44.9831 70.8201 45.5551C70.9565 45.9041 71.1994 46.2013 71.5142 46.4044C71.829 46.6076 72.1998 46.7066 72.574 46.6872C73.0586 46.6857 73.5372 46.5797 73.9771 46.3763C74.4457 46.1597 74.8516 45.8278 75.157 45.4116L76.018 46.0813C75.6199 46.6366 75.1061 47.0989 74.5121 47.4366C73.7978 47.829 72.9909 48.0218 72.1763 47.9946C71.4746 48.015 70.7796 47.8529 70.1593 47.5243C69.5991 47.2084 69.1506 46.7265 68.8758 46.1451C68.7095 45.7984 68.5904 45.4311 68.5215 45.0529C68.444 44.6187 68.4066 44.1784 68.4098 43.7374C68.3305 42.5014 68.6921 41.2774 69.4303 40.2828C69.7915 39.8703 70.2423 39.546 70.7482 39.3347C71.2541 39.1234 71.8017 39.0308 72.349 39.0639C72.8816 39.0577 73.411 39.1477 73.9116 39.3297C74.3601 39.4882 74.7671 39.7457 75.1025 40.0831C75.4379 40.4204 75.693 40.829 75.8488 41.2785C76.0321 41.7925 76.1221 42.3352 76.1146 42.8809C76.1146 42.999 76.1119 43.1132 76.1066 43.2237C76.1013 43.3341 76.088 43.5113 76.0667 43.7552L70.5012 43.7534ZM72.3189 40.1659C71.224 40.1659 70.6235 41.0222 70.5172 42.7347H74.0249V42.3202C74.0628 41.7538 73.9065 41.1914 73.582 40.7257C73.4307 40.5387 73.2371 40.3903 73.0172 40.2927C72.7973 40.1951 72.5574 40.151 72.3171 40.1641L72.3189 40.1659ZM83.7192 43.5621C83.7192 43.2219 83.7139 42.9266 83.7032 42.6763C83.6926 42.4259 83.6793 42.208 83.6634 42.0225C83.6521 41.8635 83.6254 41.706 83.5836 41.5522C83.5513 41.438 83.5113 41.3262 83.4641 41.2173C83.3343 40.9624 83.1315 40.752 82.8816 40.6128C82.6317 40.4737 82.346 40.4121 82.061 40.4361C81.7598 40.437 81.4636 40.5137 81.2 40.6593C80.926 40.8057 80.6993 41.0268 80.5462 41.2971C80.4468 41.4833 80.3717 41.6816 80.323 41.887C80.2533 42.1848 80.2212 42.4901 80.2273 42.7958V46.6376L81.2956 46.9405V47.8334H76.9764V46.9405L78.2042 46.6376V36.5926L76.9764 36.2896V35.3967H80.2291V40.7222C80.4844 40.2325 80.8584 39.8147 81.3169 39.5069C81.7585 39.2139 82.2777 39.0596 82.8077 39.0639C83.1997 39.0541 83.5905 39.1107 83.9637 39.2314C84.2755 39.3412 84.5569 39.5234 84.7848 39.7628C85.1388 40.1481 85.3885 40.6173 85.5103 41.1261C85.6822 41.8546 85.7599 42.6021 85.7415 43.3504V46.6376L86.9692 46.9405V47.8334H82.6456V46.9405L83.7139 46.6376L83.7192 43.5621ZM89.8578 43.7534C89.838 44.3696 89.9466 44.9831 90.1767 45.5551C90.3139 45.9028 90.5568 46.1986 90.8712 46.4008C91.1856 46.6029 91.5555 46.7013 91.9288 46.6819C92.4134 46.6804 92.892 46.5744 93.3319 46.3709C93.8013 46.1559 94.2085 45.8252 94.5153 45.4098L95.3763 46.0795C94.9782 46.6348 94.4645 47.0972 93.8705 47.4348C93.1561 47.8272 92.3492 48.02 91.5346 47.9928C90.8329 48.0132 90.1379 47.8511 89.5176 47.5225C88.9545 47.2079 88.5031 46.7259 88.2261 46.1433C88.0599 45.7966 87.9407 45.4293 87.8718 45.0511C87.7943 44.617 87.757 44.1766 87.7602 43.7357C87.6809 42.4997 88.0425 41.2756 88.7807 40.281C89.1427 39.868 89.5946 39.5435 90.1016 39.3325C90.6087 39.1215 91.1574 39.0296 91.7056 39.0639C92.2382 39.0577 92.7675 39.1477 93.2681 39.3297C93.7166 39.4882 94.1237 39.7457 94.4591 40.0831C94.7944 40.4204 95.0495 40.829 95.2054 41.2785C95.3886 41.7925 95.4786 42.3352 95.4711 42.8809C95.4711 42.999 95.4685 43.1132 95.4632 43.2237C95.4578 43.3341 95.4445 43.5113 95.4233 43.7552L89.8578 43.7534ZM91.6755 40.1659C90.5806 40.1659 89.98 41.0222 89.8737 42.7347H93.3815V42.3202C93.4193 41.7538 93.2631 41.1914 92.9386 40.7257C92.7872 40.5387 92.5936 40.3903 92.3737 40.2927C92.1538 40.1951 91.9139 40.151 91.6737 40.1641L91.6755 40.1659ZM97.7503 40.421L96.5226 40.1181V39.2234H99.2987L99.653 40.8178H99.7168C100.012 40.2899 100.439 39.8476 100.957 39.5343C101.452 39.2265 102.024 39.0635 102.607 39.0639C103.012 39.0549 103.413 39.1395 103.779 39.3111C104.077 39.445 104.333 39.6571 104.52 39.9249C104.715 40.2509 104.855 40.6063 104.935 40.9773C105.247 40.4009 105.703 39.9148 106.258 39.5662C106.779 39.2377 107.381 39.0636 107.996 39.0639C108.394 39.0572 108.788 39.1417 109.148 39.3111C109.468 39.458 109.739 39.6931 109.929 39.9887C110.034 40.1574 110.114 40.3399 110.168 40.5308C110.242 40.7895 110.295 41.0533 110.328 41.3201C110.37 41.6337 110.4 42.003 110.416 42.4282C110.433 42.8534 110.441 43.353 110.44 43.927V46.6376L111.668 46.9405V47.8334H107.331V46.9405L108.399 46.6376V43.5603C108.399 43.2201 108.394 42.9249 108.383 42.6745C108.373 42.4241 108.357 42.2062 108.336 42.0208C108.319 41.8624 108.293 41.7053 108.256 41.5504C108.228 41.4358 108.191 41.3238 108.144 41.2156C108.066 40.9966 107.917 40.8097 107.722 40.6841C107.555 40.5855 107.365 40.5332 107.172 40.5326C106.923 40.5283 106.675 40.566 106.438 40.6442C106.208 40.7297 105.998 40.8597 105.818 41.0269C105.59 41.2307 105.413 41.4844 105.3 41.7683C105.175 42.1192 105.108 42.4881 105.101 42.8605V46.6376L106.169 46.9405V47.8334H102.006V46.9405L103.074 46.6376V43.5603C103.074 43.2201 103.069 42.9249 103.058 42.6745C103.047 42.4241 103.031 42.2062 103.01 42.0208C102.994 41.8624 102.967 41.7053 102.93 41.5504C102.903 41.4358 102.866 41.3238 102.819 41.2156C102.741 40.9966 102.592 40.8097 102.396 40.6841C102.23 40.5855 102.04 40.5332 101.846 40.5326C101.597 40.5283 101.349 40.566 101.113 40.6442C100.883 40.7297 100.672 40.8597 100.493 41.0269C100.265 41.2307 100.088 41.4844 99.9745 41.7683C99.8497 42.1192 99.7824 42.4881 99.7752 42.8605V46.6376L100.844 46.9405V47.8334H96.5208V46.9405L97.7485 46.6376L97.7503 40.421ZM120.774 43.5302C120.778 44.1822 120.679 44.8308 120.479 45.4515C120.307 46.0091 120.016 46.5228 119.626 46.9573C119.281 47.3259 118.847 47.6003 118.366 47.7546C117.23 48.0734 116.027 48.0734 114.891 47.7546C114.41 47.6003 113.976 47.3259 113.631 46.9573C113.241 46.5228 112.95 46.0091 112.778 45.4515C112.385 44.2008 112.385 42.8595 112.778 41.6089C112.95 41.0513 113.241 40.5376 113.631 40.103C113.976 39.7345 114.41 39.4601 114.891 39.3058C116.027 38.9869 117.23 38.9869 118.366 39.3058C118.847 39.4601 119.281 39.7345 119.626 40.103C120.016 40.5376 120.307 41.0513 120.479 41.6089C120.678 42.2291 120.777 42.877 120.772 43.5284L120.774 43.5302ZM115.178 46.2886C115.362 46.4896 115.586 46.6501 115.836 46.7599C116.086 46.8697 116.356 46.9264 116.629 46.9264C116.901 46.9264 117.171 46.8697 117.421 46.7599C117.671 46.6501 117.895 46.4896 118.079 46.2886C118.491 45.4306 118.667 44.4786 118.59 43.5302C118.667 42.5817 118.491 41.6297 118.079 40.7718C117.895 40.5707 117.671 40.4102 117.421 40.3004C117.171 40.1906 116.901 40.1339 116.629 40.1339C116.356 40.1339 116.086 40.1906 115.836 40.3004C115.586 40.4102 115.362 40.5707 115.178 40.7718C114.766 41.6297 114.59 42.5817 114.667 43.5302C114.589 44.4779 114.765 45.4292 115.176 46.2868L115.178 46.2886ZM121.444 39.4466L123.006 39.2234L123.198 37.2463L125.014 36.9912V39.2234H127.051V40.2598H125.014V45.4736C125.014 45.835 125.019 46.0822 125.029 46.215C125.036 46.3264 125.057 46.4364 125.093 46.5419C125.131 46.611 125.195 46.6625 125.27 46.6854C125.405 46.7238 125.545 46.7399 125.685 46.7332H126.801V47.4348C126.265 47.6056 125.719 47.7467 125.167 47.8573C124.797 47.9359 124.421 47.9812 124.043 47.9928C123.844 48.0148 123.645 47.9683 123.476 47.8609C123.308 47.7536 123.182 47.592 123.118 47.4029C123.059 47.2471 123.024 47.0831 123.014 46.9166C122.998 46.7199 122.99 46.4197 122.99 46.0157V40.258H121.444V39.4466ZM134.231 43.5603C134.231 43.2201 134.226 42.9249 134.215 42.6745C134.205 42.4241 134.191 42.2062 134.175 42.0208C134.164 41.8618 134.137 41.7042 134.096 41.5504C134.063 41.4363 134.023 41.3244 133.976 41.2156C133.846 40.9607 133.644 40.7502 133.394 40.6111C133.144 40.4719 132.858 40.4104 132.573 40.4343C132.272 40.4352 131.976 40.512 131.712 40.6575C131.438 40.8039 131.211 41.0251 131.058 41.2953C130.959 41.4815 130.884 41.6798 130.835 41.8852C130.765 42.183 130.733 42.4883 130.739 42.7941V46.6376L131.808 46.9405V47.8334H127.485V46.9405L128.713 46.6376V36.5926L127.485 36.2896V35.3967H130.738V40.7222C130.994 40.232 131.37 39.8141 131.83 39.5069C132.271 39.2139 132.791 39.0596 133.321 39.0639C133.713 39.0541 134.103 39.1107 134.477 39.2314C134.788 39.3412 135.07 39.5234 135.298 39.7628C135.652 40.1481 135.901 40.6173 136.023 41.1261C136.195 41.8546 136.273 42.6021 136.254 43.3504V46.6376L137.482 46.9405V47.8334H133.161V46.9405L134.229 46.6376L134.231 43.5603ZM141.551 47.0202C141.803 47.0217 142.055 46.995 142.301 46.9405C142.515 46.8947 142.721 46.8196 142.915 46.7173C143.079 46.6314 143.221 46.5086 143.329 46.3585C143.43 46.2165 143.483 46.0463 143.481 45.8722C143.484 45.6683 143.413 45.47 143.281 45.3142C143.134 45.1434 142.956 45.0027 142.755 44.8996C142.52 44.7753 142.275 44.6713 142.022 44.5887C141.751 44.4984 141.482 44.4098 141.217 44.323C140.887 44.2272 140.564 44.1073 140.252 43.9642C139.946 43.8253 139.661 43.6427 139.407 43.4221C139.159 43.2062 138.956 42.9434 138.809 42.6488C138.653 42.3203 138.577 41.9599 138.586 41.5965C138.573 41.2464 138.642 40.8983 138.785 40.5789C138.929 40.2595 139.145 39.9776 139.415 39.7549C140.1 39.2508 140.942 39.0051 141.791 39.0613C142.237 39.056 142.682 39.1096 143.114 39.2207C143.473 39.3114 143.813 39.4653 144.119 39.6752C144.383 39.8586 144.603 40.0982 144.764 40.3767C144.918 40.6464 144.998 40.952 144.995 41.2625C145.007 41.416 144.986 41.5702 144.936 41.7156C144.885 41.8609 144.805 41.9943 144.701 42.1076C144.592 42.2065 144.465 42.2828 144.327 42.332C144.189 42.3813 144.042 42.4026 143.895 42.3946C143.608 42.4118 143.325 42.324 143.098 42.1474C143.01 42.0783 142.938 41.99 142.888 41.8892C142.838 41.7885 142.812 41.6778 142.811 41.5655C142.812 41.3808 142.868 41.2006 142.971 41.0473C143.072 40.8869 143.215 40.7573 143.385 40.6726C143.231 40.466 143.024 40.3038 142.787 40.2022C142.491 40.0819 142.174 40.0249 141.854 40.0348C141.457 40.0041 141.062 40.1142 140.738 40.3457C140.615 40.4532 140.518 40.5874 140.455 40.7379C140.391 40.8885 140.363 41.0515 140.372 41.2147C140.358 41.3946 140.389 41.5751 140.461 41.7404C140.534 41.9057 140.645 42.0509 140.786 42.1634C141.125 42.4002 141.503 42.5756 141.902 42.6816C142.327 42.8091 142.747 42.942 143.162 43.0802C143.55 43.2061 143.922 43.3774 144.27 43.5904C144.58 43.7791 144.847 44.0319 145.051 44.3318C145.255 44.648 145.358 45.0187 145.346 45.3948C145.353 45.7844 145.251 46.1682 145.051 46.5029C144.848 46.8339 144.569 47.1125 144.238 47.3161C143.861 47.5473 143.449 47.7168 143.018 47.8183C142.523 47.9392 142.014 47.9987 141.504 47.9955C140.672 48.0425 139.844 47.8488 139.12 47.4374C138.856 47.283 138.639 47.0614 138.489 46.7953C138.339 46.5292 138.262 46.2281 138.267 45.9227C138.256 45.7367 138.283 45.5503 138.346 45.3749C138.409 45.1996 138.507 45.0388 138.634 44.9023C138.747 44.7845 138.883 44.6912 139.034 44.6281C139.185 44.565 139.347 44.5335 139.511 44.5356C139.763 44.535 140.01 44.61 140.219 44.7508C140.323 44.8152 140.408 44.9059 140.465 45.0137C140.523 45.1215 140.551 45.2426 140.546 45.3647C140.543 45.564 140.482 45.7581 140.369 45.9227C140.27 46.0857 140.133 46.2224 139.97 46.3213C140.106 46.5192 140.287 46.6829 140.496 46.7997C140.822 46.9666 141.186 47.0428 141.551 47.0202Z" fill="white"/>
<path fill-rule="evenodd" clip-rule="evenodd" d="M34.006 21.0104H27.9418V13.4297H43.1032C43.1032 14.9275 39.249 21.0104 34.006 21.0104ZM0 2.59895V0L8.83588 0.0177161V0.00885803L32.5692 0C39.1994 0 43.1032 5.26167 43.1032 7.5807H6.28123C6.28123 5.13766 4.56011 2.59895 0 2.59895ZM6.28123 13.4297H21.2265V21.0104H6.28123V13.4297ZM21.2265 34.4391H6.28123V26.8584H21.2265V34.4391ZM27.9409 26.8584H34.6553C41.4609 26.8584 44.8358 32.3079 44.8358 34.4391H27.9418L27.9409 26.8584ZM6.28123 40.2881H21.2265V43.5372H27.9409V40.2881L44.8358 40.2934C44.8358 42.9676 39.9736 47.8697 34.8723 47.8697H0V45.2698C4.5238 45.2698 6.28123 42.8782 6.28123 40.2881Z" fill="#3672FF"/>
</svg>
