<?xml version="1.0" encoding="UTF-8"?>
<svg id="Layer_1" data-name="Layer 1" xmlns="http://www.w3.org/2000/svg" viewBox="0 0 523.26 674.08">
  <defs>
    <style>
      .cls-1, .cls-2 {
        fill: #fff;
      }

      .cls-2 {
        stroke: #fff;
        stroke-miterlimit: 10;
        stroke-width: 3.07px;
      }
    </style>
  </defs>
  <g>
    <path class="cls-1" d="m191.41,639.61c-16.94,8.73-31.05,7.2-40.19-4.35-9.7-12.25-9.4-33.03.64-44.85,9.61-11.32,23.73-12.28,40.67-2.51.42-1.79.81-3.46,1.26-5.36h9.97c.2,1.97.52,3.73.53,5.5.03,18.36.12,36.73-.02,55.09-.11,15.07-7.41,24.96-21.27,29.35-13.9,4.41-30.14-.49-38.67-12.17,2.26-2,4.63-4.09,7.47-6.61,9.48,8.75,20.19,13.45,32.58,5.75,6.3-3.91,8.48-11.1,7.03-19.85Zm.76-26.51c0-14.46-5.39-21.28-16.84-21.33-11.13-.05-19.15,9.05-19.03,21.61.11,12.31,7.88,21.25,18.62,21.4,11.61.17,17.26-6.93,17.26-21.68Z"/>
    <path class="cls-1" d="m3.02,550.71h11.02v34.58c8.47-1.38,16.54-3.87,24.55-3.69,8.69.2,15.24,5.88,19.5,13.57,7.77,14.04,5.19,33.41-5.66,43.32-10.31,9.42-24.34,9.4-38.18-.37-.17,8.28-5.82,6.13-11.23,5.89v-93.3Zm11.33,62.08c0,14.68,5.69,21.97,17.13,21.98,11.1,0,18.8-8.95,18.72-21.79-.07-12.52-7.6-21.14-18.53-21.22-11.52-.08-17.32,6.96-17.32,21.03Z"/>
    <path class="cls-1" d="m402.91,644.02h-11.77v-93.13h11.44v35.57c6.21-1.97,11.63-4.73,17.27-5.27,14.33-1.37,23.7,7.42,25.45,22.81.28,2.5.19,5.04.2,7.57.02,10.53,0,21.06,0,32.14h-12.22c0-5.87,0-11.96,0-18.06,0-6.2.24-12.41-.1-18.59-.5-9.11-6.8-15.12-14.97-14.63-6.66.4-16.38,6.41-15.54,15.88,1.02,11.58.24,23.32.24,35.72Z"/>
    <path class="cls-1" d="m504.97,588.1c1.14-8.49,6.71-5.58,11.74-5.43v61.11h-9.97c-.52-1.54-1.15-3.38-1.81-5.32-15.71,10.02-30.87,8.96-40.52-2.57-10.28-12.28-10.04-34.05.52-45.9,9.84-11.05,24.82-11.99,40.04-1.89Zm-.16,25.15c0-14.56-5.27-21.36-16.67-21.49-11.25-.13-19.01,8.63-19.01,21.44,0,12.77,7.85,21.69,18.97,21.56,11.29-.13,16.71-7.11,16.71-21.52Z"/>
    <path class="cls-1" d="m130.75,644.07h-10c-.49-1.84-.97-3.66-1.48-5.58-16.97,9.88-31.73,8.71-41.14-3.01-10.24-12.74-9.68-34.08,1.19-45.88,9.93-10.79,24.64-11.45,39.79-1.45.55-1.96,1.05-3.76,1.54-5.51h10.1v61.43Zm-11.82-31.03c0-14.44-5.42-21.25-16.95-21.28-11.11-.03-19.12,9.09-19.01,21.66.1,12.26,7.95,21.22,18.7,21.35,11.6.14,17.26-6.99,17.26-21.73Z"/>
    <path class="cls-1" d="m277.2,643.96h-10.1c-.4-1.79-.78-3.47-1.14-5.09-19.61,11.15-36.15,9.74-45.82-12.46-6.11-14.02-1.48-30.89,8.57-39.26,10-8.34,22.12-8.17,37.2.69.39-1.78.76-3.45,1.17-5.29h10.12v61.42Zm-11.41-30.54c0-14.85-5.51-21.76-17.26-21.66-11.02.1-18.25,8.5-18.3,21.29-.06,13.09,7.39,21.78,18.62,21.73,11.34-.05,16.94-7.11,16.94-21.36Z"/>
    <path class="cls-1" d="m378.08,631.85c-6.53,11.56-18.83,15.97-33.68,12.44-12.98-3.08-21.45-14.51-22.02-29.73-.57-15.36,7.38-28.02,20.07-31.92,14.56-4.48,27.59-.32,35.46,11.73-2.56,2.04-5.16,4.11-7.7,6.13-12.83-10.41-22.91-11.42-30.35-3.29-7.36,8.04-7.1,24.62.51,32.37,7.83,7.97,18.1,6.82,30.02-3.74,2.52,1.96,5.14,4.01,7.7,6Z"/>
    <path class="cls-1" d="m308.49,643.95h-11.17v-61.2h11.17v61.2Z"/>
    <path class="cls-1" d="m305.28,570.37c-7.02-.7-9.9-3.13-9.92-8.06-.02-4.94,2.69-7.7,7.62-7.67,4.86.02,8.34,2.87,7.54,7.58-.55,3.24-3.79,6.02-5.24,8.15Z"/>
  </g>
  <g>
    <path class="cls-1" d="m169.23,333.27c-10.96-13.22-17.98-27.61-19.91-44.02-.75-6.34-.56-13.11.81-19.32,2.35-10.63,10.11-15.52,20.78-13.44,7.53,1.47,12.77.21,16.6-7.06,2.8-5.32,9.09-7.28,15.47-4.44,6.26,2.78,12.39,6.57,17.48,11.12,10.26,9.18,16.06,21.14,18.45,35.58,1.23-1.43,2.06-2.28,2.75-3.23,6.97-9.67,15.45-17.67,26.29-22.78,11.96-5.64,20.9-3.11,28.09,7.99,3.22,4.97,7.25,8.51,12.61,11.04,11.27,5.33,14.07,11.55,11.32,23.7-2.35,10.38-7.09,19.53-14.17,27.48-1.06,1.19-2.1,2.4-3.2,3.66,4.48,1.67,8.88,2.84,12.83,4.87,10.56,5.44,16.55,16.49,12.95,26.16-2.67,7.18-4.84,13.47-3.37,21.58,1.22,6.71-5.07,11.25-10.99,14.12-9.12,4.42-18.79,5-28.62,2.93-10.87-2.29-19.98-7.65-27.22-16.13-.84-.99-1.71-1.96-2.58-2.92-.09-.1-.29-.09-.85-.23,2.38,4.29,5.26,8.11,6.72,12.42,2.11,6.22,4.16,12.74,4.48,19.21.4,8.26-6.39,13.83-14.58,14.71-5.4.58-10.68,2.33-16,3.62-2.82.69-5.61,1.52-8.15,2.22-3.39,12.34-6.8,24.78-10.22,37.21-.45-.12-.89-.24-1.34-.36,2.74-12.41,5.48-24.83,8.23-37.27-14.52-5.25-23.12-14.76-24.65-29.13-.68-6.38.55-13.32,2.45-19.54,2.29-7.5,8.83-8.17,13.6-1.83,6.11,8.11,9.29,17.54,10.54,27.52.8,6.42.9,12.92,1.38,20.28,2.41-.59,4.79-1.2,7.18-1.76,5.49-1.3,10.93-3.08,16.49-3.77,7.21-.89,12.43-4.67,12.28-11.89-.12-5.82-1.26-12.22-3.99-17.26-4.85-8.94-11.31-17.01-16.99-25.51-2.15-3.21-4.46-6.44-5.8-10.01-.59-1.57.51-4.9,1.89-5.74,1.33-.81,4.84-.16,5.89,1.1,2.53,3.06,4.6,6.67,6.13,10.36,6.55,15.8,17,27.28,34.07,31.57,9.93,2.49,19.75,2.09,29.04-2.6,8.08-4.07,9.94-9.19,7.97-17.96-.6-2.69-.13-6.31,1.28-8.64,6.46-10.63,4.23-21.97-6.36-28.74-2.44-1.56-5.18-2.75-7.93-3.69-5.26-1.79-9.85-1.87-14.88,2.2-9.29,7.53-19.9,12.96-32.07,14.55-.81.11-1.73.52-2.4.26-2.84-1.11-5.6-2.42-8.39-3.66,1.69-2.18,2.93-5.13,5.14-6.4,11.61-6.66,24.39-9.68,37.61-11.28,2.65-.32,5.67-1.58,7.58-3.39,9.27-8.78,15.04-19.6,16.82-32.29,1.22-8.69-.86-12.9-8.86-16.46-7.17-3.2-12.38-8.02-16.5-14.57-4.38-6.96-10.2-9.32-18.06-6.91-15.69,4.8-26.13,15.94-33.96,29.81-.7,1.25-.28,3.15-.32,4.75-.16,6.16-.16,12.34-.55,18.49-.09,1.34-1.55,2.6-2.38,3.89-1.09-1.22-2.69-2.26-3.19-3.69-2.13-6.1-1.73-12.32.93-18.1,1.84-3.99,1.71-7.72.9-11.82-3.04-15.42-10.92-27.75-23.43-37.09-2.82-2.11-6.11-3.79-9.43-4.99-6.71-2.41-10.83-1-14.44,5.19-3.46,5.94-8.28,7.63-14.79,6.76-15.05-2-21.98,3.59-22.24,18.96-.34,19.69,6.67,36.96,19.49,51.81,1.1,1.27,3.6,1.71,5.5,1.83,5.49.35,11.05-.06,16.47.68,2.03.28,5.22,2.89,5.23,4.45,0,1.9-2.41,4.54-4.44,5.59-5.16,2.67-10.78,1.37-14.63-2.18-6.52-6-12.82-4.39-19.68-1.59-10.5,4.28-20.34,9.59-28.1,18.07-4.95,5.41-4.76,7.38-1.18,13.71,1.35,2.38,2,5.54,1.87,8.28-.21,4.32,1.2,7.5,4.26,10.36,7.72,7.2,17.03,10.17,27.3,9.87,15.89-.46,29.89-5.8,41.28-17.28,4.36-4.39,8.86-8.63,13.41-12.82,2.52-2.32,5.32-3.67,8.84-1.71,2.97,1.66,4.99.2,5.12-2.79.18-4.17-.36-8.38-.59-12.57-.6.06-1.2.11-1.81.17.2,2.23.62,4.46.57,6.69-.12,5.23-3.56,7.09-7.83,4.14-6.03-4.16-8.94-10.23-9.47-17.39-.1-1.32,1.16-2.74,1.78-4.12,1.4.65,3.12.99,4.11,2.03,1.42,1.48,2.3,3.48,3.41,5.25.47-.15.94-.31,1.41-.46-.69-2.07-1.34-4.15-2.08-6.21-.86-2.39-2.09-4.71-2.53-7.17-.17-.96,1.15-2.7,2.21-3.18.7-.32,2.64.68,3.13,1.58,1.06,1.96,1.36,4.32,2.32,6.35.93,1.96,2.31,3.71,3.5,5.55.51-.26,1.02-.52,1.53-.78,0-2.98-.26-5.99.12-8.91.17-1.33,1.47-3.31,2.53-3.5,1.14-.2,3,1.04,3.83,2.18,3.43,4.71,2.88,10.74-1.39,15.85,1.06,1.38,2.17,2.84,4.11,5.38.35-3.12.12-5.13.87-6.68.82-1.69,2.53-2.95,3.86-4.39,1.2,1.22,2.41,2.44,4.36,4.42,2.61-7.17,5.32-14.59,7.77-21.31,1.15,7.44-3.91,22.7-9.99,28.55-3.44,3.3-6.91,1.08-10.24-.32-.95-.4-1.61-1.5-2.37-2.25,0,3.62.37,7.15-.08,10.58-.78,5.96-3.73,7.4-9.56,5.91-1.67-.43-4.23.19-5.54,1.31-4.58,3.9-8.82,8.19-13.13,12.4-14.15,13.84-31.12,19.71-50.73,17.78-7.63-.75-14.4-3.81-20.35-8.72-4.67-3.86-7.49-8.27-6.69-14.78.28-2.26-.94-5.14-2.37-7.07-3.11-4.17-3.11-8.19-.34-12.18,1.93-2.77,4.22-5.42,6.78-7.62,9.26-7.97,19.86-13.55,31.61-16.92,1.23-.35,2.45-.72,4.33-1.28Zm54.56,105.04c0-5.04.2-9.24-.04-13.41-.61-10.35-3.18-20.24-8.71-29.05-1.55-2.47-4.63-3.99-7-5.94-1.72,2.4-4.21,4.56-5.04,7.23-2.88,9.39-2.09,18.64,2.97,27.22,3.9,6.61,9.35,11.41,17.82,13.94Zm29.07-81.59c8.73,4.34,33.31-4.53,39.52-13.81-13.96,2.45-27.4,4.92-39.52,13.81Zm-56.23-20.96c-7.27-.47-13.34-.86-19.42-1.25,6.59,8,14.27,8.72,19.42,1.25Zm55.32,49.93c-4.11-6.78-4.07-16.04-12.28-20.38-.44,9.5,7.9,13.76,12.28,20.38Zm-24.82-39.33c-1.33,3.74-2.37,6.69-3.42,9.65-.49-.04-.99-.08-1.48-.11-1.75-3.43-3.49-6.86-5.72-11.24-.67,8.33,4,15.44,10.62,16.99v-15.28Zm8.41-.45c.75-.09,1.5-.19,2.25-.28-.43-3.21-.87-6.41-1.3-9.62-.68.09-1.36.17-2.05.26.36,3.22.73,6.43,1.09,9.65Zm1.6-40.41c-.3,0-.59.01-.89.02v11.21c.3,0,.59.01.89.02v-11.25Z"/>
    <path class="cls-1" d="m218.07,481.18l-4.23-1.13,8.26-37.41c-14.68-5.69-22.88-15.76-24.39-29.94-.62-5.88.22-12.66,2.51-20.15.1-.34.22-.67.34-1-12.81,9.48-27.72,13.44-44.45,11.8-7.68-.76-14.81-3.81-21.18-9.07-5.78-4.78-8.02-9.76-7.24-16.15.2-1.6-.66-4.06-2.08-5.96-3.46-4.65-3.59-9.35-.37-13.97,2.14-3.07,4.5-5.72,7.03-7.9,9.26-7.97,20.09-13.77,32.19-17.23.67-.19,1.34-.39,2.11-.62-10.84-13.61-16.99-27.7-18.8-43.03-.81-6.84-.51-13.7.84-19.83,2.52-11.42,10.96-16.86,22.57-14.61,7.7,1.5,11.75-.2,14.95-6.27,3.24-6.14,10.41-8.25,17.45-5.13,6.71,2.98,12.89,6.92,17.88,11.38,9.49,8.49,15.51,19.41,18.36,33.33.2-.25.39-.49.57-.73,7.79-10.8,16.58-18.41,26.88-23.27,12.63-5.96,22.45-3.17,30.03,8.54,3.07,4.74,6.88,8.08,11.98,10.49,11.79,5.58,15.09,12.47,12.15,25.42-2.39,10.55-7.28,20.03-14.52,28.16-.57.64-1.14,1.29-1.72,1.96.7.24,1.4.48,2.09.72,3.09,1.05,6.01,2.04,8.81,3.48,11.54,5.94,17.42,18,13.68,28.06-2.87,7.71-4.65,13.33-3.29,20.77,1.11,6.12-2.87,11.43-11.83,15.77-8.87,4.29-18.83,5.32-29.6,3.05-8.97-1.89-16.8-5.84-23.36-11.78.46.95.87,1.92,1.21,2.92,2.13,6.27,4.23,12.95,4.55,19.63.41,8.42-6.3,15.28-15.95,16.3-3.77.4-7.61,1.43-11.32,2.42-1.49.4-2.99.8-4.48,1.16-1.93.47-3.84,1.01-5.67,1.53l-1.6.45-10.39,37.85Zm4.6-41.61c.57.23,1.15.45,1.74.66l1.27.46-1.39,6.29,1.68-6.11-.17.04-.12-1.83c-.12-1.93-.22-3.8-.31-5.62,0,.07,0,.13,0,.19-.02,1.48-.04,3.02-.04,4.66v2.06l-1.97-.59c-.23-.07-.45-.13-.67-.21Zm-14.41-54.25c2.9,0,5.85,1.75,8.25,4.93,5.81,7.72,9.46,17.23,10.84,28.26.56,4.43.78,8.89,1.02,13.61.08,1.6.16,3.25.26,4.93l.34-.08c1.69-.42,3.38-.84,5.07-1.24,1.64-.39,3.27-.82,4.91-1.25,3.81-1.01,7.76-2.04,11.75-2.54,4.15-.51,11.1-2.54,10.93-10.34-.13-6.4-1.49-12.28-3.81-16.56-3.22-5.93-7.25-11.61-11.14-17.09-1.95-2.75-3.91-5.5-5.77-8.3l-.75-1.11c-1.89-2.8-3.84-5.69-5.09-8.88-.46.67-1,1.22-1.63,1.64-1.91,1.29-4.5,1.46-8.15.53-1.17-.3-3.23.19-4.17.99-3.81,3.24-7.46,6.84-11,10.31l-2.06,2.02c-.07.07-.13.13-.2.19.13,0,.26-.01.39-.01Zm.04,6.73c-.29.35-.59.7-.88,1.05-1.28,1.52-2.49,2.95-2.96,4.48-2.84,9.25-1.89,18,2.83,25.99,3.64,6.17,8.44,10.22,14.98,12.61,0-.88.02-1.74.03-2.58.04-3.01.08-5.86-.08-8.62-.65-11.01-3.42-20.27-8.48-28.32-.9-1.43-2.5-2.55-4.2-3.74-.41-.29-.82-.58-1.22-.87Zm31.71-30.91c2,0,4.29.76,5.33,2.02,2.49,3,4.69,6.72,6.36,10.75,6.97,16.81,17.77,26.84,33.03,30.67,10.22,2.56,19.63,1.72,27.97-2.48,7.17-3.62,9.05-7.87,7.16-16.25-.71-3.16-.11-7.18,1.46-9.77,6.08-10.02,3.78-20.48-5.87-26.65-2.11-1.35-4.59-2.5-7.6-3.53-4.66-1.58-8.72-1.87-13.42,1.94-10.35,8.38-21.39,13.38-32.83,14.87-.2.03-.41.08-.62.13-.72.17-1.63.39-2.53.04-2.13-.83-4.2-1.77-6.28-2.71l-3.97-1.77.42-.54c-2.18,1.9-4.37,2.07-6.43,1.61l-.04.33-.31-.41c-1.25-.32-2.45-.85-3.55-1.34-.4-.18-.8-.36-1.2-.53-.06-.02-.11-.05-.17-.07.05,1.54.09,3.11.03,4.68.16-.15.34-.28.51-.39.66-.4,1.56-.59,2.54-.59Zm4.38,18.18c1.56,2.3,3.18,4.57,4.79,6.84,3.69,5.2,7.5,10.57,10.69,16.23-.96-2.63-2.49-5.13-4.1-7.76-.8-1.3-1.6-2.61-2.36-3.97l-1.74-3.13,3.9,1c.22.04.52.11.82.29-2.11-2.93-4.01-6.17-5.73-9.74.75,2.07,1.53,4.03,2.61,5.81l-2.59,1.64c-1.29-1.95-2.94-3.69-4.69-5.52-.53-.56-1.06-1.12-1.59-1.69Zm79.14,13.35c-.27,3.1-1.38,5.66-3.41,7.85,2.68-2.45,3.82-5.07,3.41-7.85Zm-154.12-54.41c-2.81,0-5.85.93-9.46,2.4-12.53,5.11-21.03,10.56-27.55,17.68-4.45,4.86-4.25,6.14-.97,11.92,1.45,2.55,2.22,5.96,2.07,9.11-.18,3.78.95,6.53,3.78,9.16,7.05,6.58,15.84,9.78,26.21,9.46,16.09-.47,29.63-6.13,40.24-16.83,4.68-4.72,9.43-9.15,13.46-12.87.85-.79,2.84-2.63,5.6-2.99-.37-.2-.75-.43-1.13-.69-6.12-4.22-9.53-10.46-10.12-18.53-.1-1.39.63-2.62,1.27-3.7.23-.39.47-.78.65-1.17l.64-1.41,1.22.57.1-1.26.85,1.66c.16.06.32.12.48.18,1.12.42,2.39.89,3.32,1.86.07.08.15.16.22.24-.01-.03-.02-.05-.03-.08-.27-.75-.58-1.5-.89-2.24-.68-1.64-1.38-3.35-1.71-5.17-.33-1.84,1.61-4.17,3.08-4.84,1.68-.77,4.37.86,5.12,2.25.64,1.19,1.02,2.45,1.39,3.67.26.87.51,1.69.84,2.45l.59-1.66v2.82c.48.85,1.04,1.69,1.63,2.54v-.54c-.07-2.14-.12-4.36.16-6.56.22-1.72,1.81-4.45,3.78-4.81,1.99-.36,4.37,1.45,5.34,2.78,3.62,4.97,3.33,11.3-.69,16.76l.94,1.23c.09-1.2.25-2.22.72-3.2.69-1.43,1.81-2.51,2.9-3.55.41-.4.83-.8,1.21-1.21l1.04.4,3.84,2.25,8.98-24.63.91,5.89c.94,6.05-1.77,16.11-5.75,23.4.4-.37.84-.69,1.32-.97,10.33-5.93,22.47-9.58,38.19-11.47,2.48-.3,5.12-1.47,6.71-2.98,9.15-8.66,14.65-19.23,16.35-31.39,1.14-8.15-.72-11.62-7.96-14.85-7.24-3.22-12.7-8.04-17.18-15.16-4.05-6.44-9.23-8.43-16.32-6.27-13.54,4.14-24.36,13.66-33.07,29.1-.28.49-.22,1.54-.17,2.46.03.54.06,1.07.04,1.58-.05,1.79-.08,3.58-.11,5.37-.08,4.31-.16,8.78-.44,13.17-.09,1.4-1,2.53-1.8,3.53-.29.36-.58.72-.82,1.09l-1.09,1.7-1.35-1.51c-.31-.35-.68-.69-1.04-1.02-.93-.87-1.99-1.85-2.46-3.19-2.22-6.36-1.88-13.02.98-19.25,1.46-3.17,1.69-6.33.79-10.89-2.93-14.86-10.62-27.03-22.84-36.16-2.57-1.92-5.7-3.57-9.03-4.77-6.08-2.19-9.38-1-12.59,4.52-3.57,6.13-8.74,8.51-16.31,7.51-7.24-.97-12.34-.08-15.56,2.69-3.2,2.75-4.82,7.59-4.94,14.77-.33,18.62,6.11,35.71,19.12,50.78.45.52,1.85,1.14,4.44,1.31,2.15.14,4.32.16,6.49.18,3.31.03,6.74.06,10.09.52,1.49.2,3.56,1.38,4.98,2.86l1.34.09-.58.84c.5.72.81,1.46.81,2.18,0,2.75-3.05,5.81-5.27,6.95-5.44,2.81-11.71,1.88-16.38-2.41-2.84-2.62-5.58-3.69-8.61-3.69Zm37.7,50.29c-1.75.51-3.14,2.23-3.96,4.9-.01.05-.03.1-.05.16.6-.86,1.29-1.68,1.97-2.48.59-.7,1.18-1.4,1.7-2.12l.33-.46Zm1.5-.15l.39.32c.72.59,1.5,1.14,2.29,1.69,1.27.89,2.58,1.81,3.67,2.91-.29-.42-.59-.82-.89-1.23-1.69-2.25-3.63-3.55-5.45-3.69Zm116.16-12.18c-.26.48-.53.96-.83,1.45-1.16,1.9-1.63,5.13-1.09,7.51.06.25.11.5.16.74.12-3.47.82-6.65,1.76-9.69Zm-83.38-7.9c.67,3.6,2.87,6.36,5.39,9.08-1.27-3.47-2.65-6.71-5.39-9.08Zm-3.28-2.42c-.32.86-.5,1.84-.3,2.35.25.67.54,1.34.87,2-.37-1.33-.58-2.77-.57-4.35Zm-112.11-.75c.05,1.54.62,3.08,1.7,4.68-.92-1.79-1.5-3.28-1.7-4.68Zm97.74,3.16c-1.15,0-2.29.47-3.55,1.45,1.65-.9,3.87-1.31,5.58-.97-.7-.32-1.37-.48-2.04-.48Zm103.79-6.82c.31,1.78.37,3.62.18,5.49.26-1.81.19-3.66-.18-5.49Zm-100.1,4.69c.13.06.25.13.38.2.88.49,1.64.63,2.08.38.44-.25.73-.95.77-1.89.01-.34.02-.67.03-1.01-.52.82-1.21,1.46-2.04,1.89-.39.2-.79.34-1.22.43Zm13.63-1.86c1.26.74,2.32,1.58,3.24,2.51-.43-.6-.87-1.17-1.32-1.71-.29-.36-1.1-.64-1.92-.8Zm-8.02-13.62l.09,1.58c.07,1.24.16,2.49.26,3.74.2,2.58.4,5.23.36,7.88.25-2.13.18-4.33.1-6.65-.04-1.13-.07-2.27-.07-3.42v-3.66l2.61,2.57c.27.27.53.57.79.88.35.42.75.89,1.06,1.04l-3.26-4.27.78-.94c.61-.73,1.13-1.48,1.57-2.23l-3.15.4-.89-7.87c0,.8.02,1.6.04,2.43.02.88.04,1.76.04,2.63v.94l-3.6,1.84-.75-1.17c-.12-.19-.24-.37-.37-.56v5.23l4.38-.4Zm-11.97,9.54c.72.66,1.49,1.28,2.33,1.86,1.34.92,2.58,1.29,3.49,1.05l-.11-.02c-2.12-.49-4.05-1.5-5.71-2.89Zm7.59-4.1v4.58c.1-.46.16-.98.17-1.54.02-1-.06-2-.17-3.04Zm29.15,3.16c.58.25,1.16.49,1.75.71.05,0,.44-.1.7-.16.32-.08.63-.15.94-.19,4.66-.61,9.26-1.84,13.78-3.67-6,2.2-12.26,3.5-17.16,3.31Zm-35.29-1.85c.92.86,1.95,1.55,3.07,2.06v-4.23l-.83,2.35-2.24-.17Zm20.01-1.06c1.6.42,2.94.25,4.32-1.08,1.08-1.04,2.15-2.44,3.16-4.08l-4.23-4.29c-.07.07-.14.14-.21.21-.93.9-1.81,1.75-2.27,2.68-.36.74-.42,1.81-.5,3.27-.05.85-.1,1.81-.22,2.9l-.04.39Zm13.83-.23c8.34,1.21,24.32-4.36,31.88-10.96-10.85,1.97-21.85,4.46-31.88,10.96Zm-36.39-8.08l2.9,5.7,1.28-3.61-2.45.8-.64-1.02c-.34-.55-.67-1.12-.99-1.69-.03-.06-.07-.12-.1-.18Zm-5.01-3.28c-.22.42-.39.81-.37,1.07.15,2.06.51,3.98,1.07,5.76-.6-2.14-.86-4.45-.7-6.82Zm6.87-11.18c-.49.34-1.11,1.17-1.15,1.53.26,1.38.87,2.86,1.52,4.42.33.79.65,1.58.94,2.38.52,1.45,1,2.91,1.47,4.37l.43,1.32,1.66-4.68c-.46-.72-.89-1.47-1.27-2.25-.5-1.05-.82-2.13-1.14-3.18-.34-1.12-.65-2.18-1.15-3.09-.17-.26-.9-.7-1.32-.81Zm73.45,7.7l-1.63,2.44c-.49.74-1.09,1.47-1.77,2.19.21-.17.42-.34.63-.5,4.4-3.57,8.52-4.09,12.18-3.53-.87-.3-1.75-.61-2.63-.94l-2.08-.78,2.29-2.63c-.09.09-.18.17-.27.26-1.69,1.6-4.16,2.87-6.72,3.48Zm-125.92-6.13c3.52,0,7.11,1.17,10.74,4.51,3.7,3.4,8.64,4.15,12.89,1.95,1.14-.59,2.23-1.64,2.91-2.61-2.16,2.15-4.66,3.33-7.36,3.44-4.24.13-8.59-2.24-12.51-7l-1.53-1.86c-2.21-.36-3.79-1.08-4.72-2.16-.23-.27-.47-.54-.69-.81.44.55.88,1.1,1.34,1.64l1.49,1.79-3.82,1.13c-.05.02-.11.03-.16.05.48-.04.97-.07,1.45-.07Zm68.87,2.28l.71,5.29c.25-1.82.02-3.61-.71-5.29Zm-57.18-1.19c2.46,2.13,5.01,3.24,7.35,3.13,1.82-.08,3.54-.87,5.09-2.32l-12.44-.8Zm53.73-2.36s-.02,0-.02,0c-.15.07-.44.42-.71.84l2-.25c-.51-.36-1.02-.59-1.28-.59Zm.28-15.69c.1.33.21.66.32,1,.21.6.86,1.22,1.57,1.88.47-.59,1-1.27,1.02-1.67.02-.38.05-.76.07-1.14l-2.99-.06Zm-.35-11.5c-.8,3.38-.8,6.83,0,10.21v-10.21Zm3.15-11.97c0,2.35-.39,4.88-1.6,7.52-.26.57-.5,1.15-.71,1.72l2.92-.06c.02-.98.04-1.96.07-2.93.01-.43-.01-.88-.04-1.33-.07-1.34-.16-2.87.56-4.14,1.12-1.99,2.28-3.88,3.47-5.69-.38.49-.81.97-1.32,1.55l-3.26,3.79-.07-.43Zm-71.59-37.2c-4.05,0-7.42,1.27-9.97,3.7,3.14-2.5,7.43-3.66,13.09-3.47-1.08-.16-2.12-.23-3.12-.23Z"/>
  </g>
  <path class="cls-2" d="m258.38,197.41c-23.78-1.11-38.19,9.87-45.69,31.19-.56-.39.19,4.06.5-1.97.16-1.46,1.69-3.11,2.21-4.42,6.47-16.47,14.04-26.54,32.18-27.47,10.36-.53,17.99-4.14,23.7-12.4-17.27-13.43-42.39-17.55-65.03-11.35,1.87-1.48,4.22-2.2,6.22-2.4,8.81-.89,17.26-4.19,25.91-3.06,8.26,1.08,16.29,4.73,24.12,7.96,7.91,3.26,15.05,8.55,24.48,4.26,2.22-1.01,6.1.55,8.77,1.84,8.91,4.31,14.88,1.52,16.64-8.25,3.14-17.5,5.35-35.34,14.46-51.04,4.76-8.2,10.27-16.06,16.22-23.44,12.08-14.99,28.85-18.01,46.8-16.32,9.52.9,12.16,6.03,12,20.8,8.13-.83,16.2-2,24.32-2.42,17.2-.89,27.95,10.39,26.54,28.4-1.05,13.43-8.7,25.46-19.81,33.06-20.01,13.68-41.5,23.63-65.8,27.09-9.33,1.33-18.51,3.68-27.75,5.56l-.5,2.29c2.39.98,4.7,2.61,7.21,2.6,27.28-.19,45.29,29.56,36.18,55.28-7.22,20.36-19.79,34.24-39.84,40.06l-.18.05c-3.73,1.07-6.95-2.95-4.99-6.3,10.26-17.58-2.93-30.63-12.2-45.79-.46-.75-1.58-.37-1.52.51.97,13.6-7.22,29.33-15.92,38.13,4.51-10.52,17.26-27.84,11.7-38.65-1.76-3.43-7.98-4.57-12.59-6.98-.94,10.83-3.3,20.01-14.17,27.33,3.84-7.56,7.97-12.91,9.2-18.86,1.24-6.03-.39-12.66-.84-20.42l-38.12,20.4c-2.37,1.27-5.29-.06-5.9-2.67-3.19-13.68-6.55-27.86,1.47-42.59Zm168.66-95.12c-29.32.28-54.2,10.37-71.47,34.68-8.73,12.29-15.67,25.87-22.94,39.13-1.25,2.28-.96,6.29.17,8.8,2.15,4.77,6.97,5.17,12.46,3.37,8.64-2.83,17.58-4.76,26.62-5.74,23.56-2.54,42.83-14.08,61.59-26.78,10.1-6.84,14.82-16.88,15.96-28.71,1.44-14.98-7.71-25.01-22.39-24.76Zm-101.53,78.01c7.37-13.14,13.52-25.95,21.36-37.63,11.2-16.67,25.09-30.98,44.79-37.6,6.6-2.22,7.94-6.99,6.59-11.79-1.04-3.68-5.11-8.8-8.32-9.18-15.22-1.79-29.76.29-41.48,11.93-22.77,22.62-29.83,51.43-33.3,82.1l10.37,2.17Zm-61.26,12.01c5.16,2.43,8.13,3.83,11.11,5.23l-.2.51c-.77.4-1.26.66-2.03,1.07-10.89-2.52-12.27-2.37-14.99,7.3-2.49,8.86-1.68,17.42.52,25.61.94,3.51,4.74,5.4,8.07,3.95,4.59-2,9-3.91,13.23-6.17,6.75-3.62,13.61-7.32,19.6-12.02,7.3-5.73,8.07-17.62,2.8-26.88-4.86-8.55-12.37-12.26-20.5-8.9-5.75,2.38-10.87,6.29-17.6,10.31Zm39.51-6.4c7.13,14.65,7.04,20.11-.05,33.04-.65,1.19-1.17,3.04-.71,4.16,2.88,6.96,8.18,11.19,15.68,12.13,7.12.9,13.37-.6,16.98-7.72,5.41-10.68,4.87-21.46.07-32.04-5.85-12.91-18.66-16.75-31.97-9.56Zm52.07,18.63c1.53,19.78-.78,37.4-17.23,50.29l5.59,11.31c2.71-1.42,5.44-2.37,7.57-4.05,13.75-10.85,18.28-25.21,16.46-42.32-.8-7.55-4.2-12.24-12.39-15.23Zm16.3,15.38c.54,21.38-4.99,38.75-25.01,48.77-1.35.68-1.99,2.78-3.26,4.67,12.18,1.86,26.28-4.17,31.46-12.73,7.2-11.9,6.02-28.07-3.18-40.71Zm-44.49,19.25c2.86,4.44,5.39,8.36,8.85,13.73,4.08-4.79,7.7-8.04,10.1-12.03,5.58-9.31,6.83-19.7,6.27-30.41-.48-9.16-1.15-9.77-10.81-8.28,1.82,14.29,1.11,27.75-14.4,36.99Zm40.55,35.8c-.66-1.31-.42-.83-1.08-2.14-1.83.74-3.62,1.58-5.48,2.22-2.17.75-4.35,1.55-6.59,1.99-10.67,2.13-10.68,2.09-12.7,13.88,8.62-5.32,17.23-10.64,25.85-15.96Z"/>
</svg>