<svg width="3653" height="629" viewBox="0 0 3653 629" fill="none" xmlns="http://www.w3.org/2000/svg">
<path d="M0 24.4246C3.8047 12.2537 12.9358 9.59129 24.7303 9.59129C101.966 9.97164 179.583 4.64682 256.247 17.9588C312.176 27.6575 356.12 54.852 372.29 112.094C384.275 154.312 382.563 196.339 362.778 236.466C353.267 255.673 338.618 270.506 320.926 282.677C308.751 291.045 309.133 294.278 322.829 300.934C331.01 304.927 339.379 308.921 348.13 311.964C392.074 327.748 420.039 357.224 428.789 403.436C434.496 433.673 437.161 463.91 428.6 493.767C412.24 551.579 373.431 589.233 315.98 605.588C289.347 613.195 260.812 615.667 232.848 616.428C164.363 618.139 95.8783 617.188 27.2035 617.569C16.9308 617.569 7.41917 616.618 0 608.821V24.2345V24.4246ZM140.013 441.47C140.013 441.47 139.252 441.47 138.871 441.47C138.871 460.107 138.871 478.744 138.871 497.38C138.871 509.932 141.725 512.975 154.471 512.784C174.445 512.404 194.611 512.404 214.395 510.883C226.19 509.932 238.175 507.84 249.018 503.846C276.793 493.957 290.489 470.757 289.158 439.188C288.016 411.613 266.9 381.186 241.789 376.812C212.113 371.677 181.675 370.156 151.428 367.303C143.438 366.543 139.633 370.917 139.633 379.094C139.633 400.013 139.633 420.932 139.633 441.85L140.013 441.47ZM140.584 183.027C140.584 183.027 139.633 183.027 139.252 183.027C139.252 200.523 139.442 218.019 139.252 235.515C139.252 245.404 143.437 249.397 153.329 248.446C165.124 247.305 177.489 248.066 188.903 245.213C202.029 241.981 216.677 238.367 226.569 230.19C261.953 200.523 251.871 141.76 208.117 125.406C190.616 118.94 170.64 118.75 151.807 116.277C144.769 115.326 140.394 119.13 140.584 127.117C140.964 145.754 140.584 164.391 140.584 183.027Z" fill="white"/>
<path d="M1136.08 259.856C1134.18 277.732 1131.71 295.608 1130.19 313.675C1123.34 396.97 1116.49 480.455 1109.83 563.94C1108.88 576.871 1108.12 589.803 1107.36 602.735C1106.41 616.427 1104.7 618.139 1090.43 618.139C1068.93 618.139 1047.24 618.139 1025.75 618.139C979.901 618.139 934.055 618.139 888.208 618.139C869.945 618.139 867.473 616.237 861.385 599.312C850.352 569.455 838.938 539.598 828.094 509.551C824.099 498.141 816.109 495.098 804.885 495.288C736.781 495.478 668.677 495.668 600.382 495.478C589.919 495.478 582.881 499.091 579.266 509.361C568.803 538.267 557.77 566.983 547.497 596.079C541.6 613.004 536.463 617.758 518.581 617.948C481.295 618.329 443.819 618.329 406.533 618.519C394.738 618.519 393.406 616.427 397.781 605.778C462.652 447.365 527.713 289.142 592.393 130.73C604.758 100.493 616.553 69.8751 628.347 39.4477C637.098 16.8173 647.18 9.59082 671.72 9.59082C698.353 9.59082 724.796 10.922 751.429 10.7318C763.794 10.7318 770.263 16.2468 774.638 27.0866C798.227 86.42 821.816 145.944 845.976 205.087C886.116 303.405 926.636 401.343 966.966 499.472C968.487 503.465 971.15 506.888 973.242 510.692C974.574 510.692 976.097 510.502 977.428 510.312C978.95 498.711 981.042 487.111 981.994 475.32C989.793 391.645 997.403 307.969 1005.01 224.294C1010.72 160.967 1016.05 97.8302 1021.56 34.5032C1021.56 32.6015 1021.75 30.6998 1021.94 28.7981C1024.04 11.8729 1024.42 10.7318 1041.54 10.5417C1079.96 10.1613 1118.58 10.5417 1157.01 10.5417C1167.47 10.5417 1172.8 15.6763 1176.41 24.9947C1215.98 127.877 1255.74 230.76 1295.88 333.452C1298.54 340.489 1304.25 346.384 1308.63 352.85C1313 346.764 1318.9 341.059 1321.56 334.403C1353.71 252.249 1385.1 169.905 1416.87 87.561C1425.43 65.5012 1433.61 43.4413 1443.12 21.9519C1445.22 17.3878 1451.68 11.6827 1456.06 11.6827C1498.29 10.922 1540.71 11.1122 1583.14 11.3024C1591.32 11.3024 1593.98 17.1976 1594.55 24.4242C1596.83 51.6186 1598.93 79.0033 1601.4 106.198C1608.06 181.506 1614.72 257.004 1621.56 332.311C1627.08 392.596 1632.79 452.69 1638.49 512.784C1641.35 542.641 1644.2 572.498 1647.25 602.354C1648.58 614.906 1647.06 617.378 1634.12 617.568C1597.59 618.139 1560.88 618.329 1524.35 618.709C1512.56 618.709 1510.28 610.912 1509.71 602.164C1507.04 568.124 1505.14 533.893 1502.48 499.662C1496.77 425.685 1490.68 351.899 1484.59 277.922C1484.59 276.781 1484.6 275.45 1484.21 274.499C1482.31 271.076 1480.22 267.653 1478.32 264.23C1475.27 267.083 1470.52 269.174 1469.19 272.598C1463.67 287.051 1459.48 302.074 1454.16 316.907C1433.42 374.91 1412.5 432.912 1391.95 490.914C1378.63 528.188 1365.51 565.461 1352.76 602.925C1349.91 611.293 1345.34 613.955 1336.78 613.765C1318.71 613.384 1300.64 613.765 1282.56 614.145C1272.29 614.145 1266.21 609.771 1262.97 600.072C1236.15 522.863 1209.33 445.653 1182.31 368.634C1170.9 335.925 1159.1 303.405 1147.31 270.886C1145.79 266.892 1143.5 263.279 1141.41 259.476C1139.7 259.666 1137.99 259.856 1136.27 260.236L1136.08 259.856ZM703.68 376.241C721.372 376.241 739.064 376.621 756.756 376.241C772.165 376.241 774.257 373.388 769.121 359.506C755.614 323.944 741.918 288.572 728.221 253.2C722.704 238.937 717.567 224.674 711.48 210.792C710.148 207.559 705.582 205.657 702.348 202.995C700.065 205.848 696.832 208.32 695.69 211.553C676.286 260.617 657.072 309.871 638.048 359.126C632.912 372.628 635.576 375.861 650.605 376.051C668.296 376.241 685.988 376.051 703.68 376.051V376.241Z" fill="white"/>
<path d="M1973.88 295.228C1982.06 298.461 1987.58 301.314 1993.47 303.025C2057.58 322.233 2093.54 368.254 2097.53 434.244C2101.91 506.699 2069.57 566.983 2006.79 595.889C1979.21 608.631 1949.34 614.526 1919.47 615.287C1839 617.188 1758.53 617.188 1678.26 617.949C1670.84 617.949 1666.65 615.096 1665.7 607.68C1665.32 604.257 1664.75 600.834 1664.75 597.411C1664.75 409.141 1664.75 220.681 1664.75 32.4118C1664.75 13.7751 1667.79 9.59132 1686.44 9.78149C1756.82 10.5422 1827.4 10.7323 1897.6 13.7751C1933.74 15.2964 1967.41 28.0379 1996.14 51.2388C2029.24 77.8628 2040.08 113.995 2043.13 153.931C2046.93 206.989 2027.34 249.778 1985.86 283.058C1982.06 286.1 1979.21 289.904 1974.07 295.228H1973.88ZM1803.43 441.09C1803.43 441.09 1803.24 441.09 1803.05 441.09C1803.05 459.346 1803.05 477.603 1803.05 495.859C1803.05 509.742 1804.38 511.833 1819.03 511.453C1844.52 510.883 1869.82 510.122 1895.12 508.22C1909.77 507.079 1923.85 503.086 1934.69 492.056C1969.69 456.494 1953.72 388.983 1905.21 376.622C1877.62 369.585 1848.33 369.205 1819.6 366.923C1806.09 365.782 1803.81 368.825 1803.43 382.897C1803.05 402.295 1803.43 421.692 1803.43 441.09ZM1804.38 184.739C1804.38 184.739 1803.24 184.739 1802.67 184.739C1802.67 200.333 1802.67 215.927 1802.67 231.521C1802.67 247.305 1804.95 249.587 1820.55 248.827C1831.96 248.256 1843.57 247.305 1854.98 245.974C1884.66 242.171 1904.06 225.816 1908.06 198.812C1911.1 177.322 1913.39 155.643 1894.17 138.337C1870.96 117.418 1842.05 116.468 1813.32 116.087C1810.28 116.087 1804.76 122.933 1804.57 126.737C1803.62 146.134 1804.19 165.342 1804.19 184.739H1804.38Z" fill="white"/>
<path d="M2592.71 225.246C2592.71 288.002 2592.9 350.759 2592.71 413.515C2592.71 446.035 2588.34 478.174 2575.02 508.221C2548.39 569.266 2500.83 606.159 2435.39 619.471C2379.84 630.691 2323.72 631.452 2268.17 618.14C2183.52 597.982 2132.35 541.881 2122.07 456.304C2118.46 426.637 2116.94 396.4 2116.75 366.543C2115.8 253.581 2115.61 140.43 2115.22 27.4678C2115.22 12.8246 2116.18 10.5426 2131.2 10.3524C2167.73 9.7819 2204.25 10.3524 2240.97 10.1622C2252.95 10.1622 2252.95 18.3396 2252.95 26.7072C2252.95 87.5619 2252.95 148.417 2252.95 209.272C2252.95 258.716 2252 308.161 2253.15 357.605C2253.72 382.517 2256.57 407.62 2260.75 432.342C2266.84 467.904 2286.25 485.78 2323.34 490.345C2343.13 492.817 2363.29 493.387 2383.08 491.866C2416.37 489.204 2441.48 465.622 2446.8 431.011C2451.56 399.633 2455.55 367.684 2455.94 335.926C2457.08 233.994 2456.32 131.872 2456.32 29.9401C2456.32 10.9229 2456.32 10.1623 2475.15 9.9721C2509.77 9.59176 2544.39 10.3524 2579.02 9.9721C2589.29 9.9721 2593.09 13.5853 2592.9 24.0448C2592.52 90.985 2592.71 157.925 2592.71 225.056C2592.71 225.056 2592.33 225.056 2592.14 225.056L2592.71 225.246Z" fill="white"/>
<path d="M3652.51 616.047C3644.71 616.617 3638.63 617.378 3632.54 617.568C3594.87 617.949 3557.02 617.949 3519.35 618.709C3510.41 618.709 3506.98 614.335 3504.51 607.489C3494.24 580.105 3484.15 552.53 3473.88 525.145C3471.79 519.44 3469.32 513.925 3467.22 508.22C3463.61 498.521 3456.57 495.288 3446.49 495.478C3377.24 495.859 3307.81 496.239 3238.56 496.049C3227.34 496.049 3222.2 500.423 3218.59 510.312C3208.31 539.408 3197.47 568.124 3186.82 597.03C3179.78 615.857 3176.93 617.949 3156.57 617.949C3120.05 617.949 3083.33 617.949 3046.8 617.949C3043.57 617.949 3040.15 617.378 3035.01 616.808C3037.29 609.581 3038.81 603.496 3041.1 597.6C3077.81 507.459 3114.72 417.318 3151.24 327.177C3186.06 241.6 3220.68 155.833 3255.3 70.2555C3261.01 56.1829 3266.72 42.1102 3272.61 28.0376C3277.37 16.8175 3285.36 10.1615 3298.3 10.3516C3331.4 10.732 3364.5 10.9222 3397.6 11.1123C3405.78 11.1123 3408.44 16.6273 3411.1 22.9029C3440.21 94.027 3469.7 164.961 3498.61 236.085C3549.22 359.696 3599.63 483.117 3650.04 606.728C3650.99 609.201 3651.37 611.673 3652.7 616.237L3652.51 616.047ZM3344.14 197.48C3339.77 204.707 3336.72 208.51 3335.01 212.884C3327.02 232.662 3319.41 252.44 3311.61 272.217C3300.58 300.553 3289.54 328.888 3279.08 357.414C3273.18 373.579 3275.47 376.241 3292.21 376.241C3309.52 376.241 3326.83 376.241 3344.14 376.241C3363.36 376.241 3382.57 376.241 3401.78 376.241C3410.15 376.241 3413.01 372.628 3410.53 364.831C3409.01 360.076 3407.68 355.322 3405.78 350.758C3388.85 307.209 3372.11 263.66 3354.99 220.11C3352.32 213.454 3348.71 207.369 3343.95 197.29L3344.14 197.48Z" fill="white"/>
<path d="M2677.75 437.477C2688.4 444.513 2697.53 450.789 2706.66 456.874C2736.91 476.842 2768.87 493.957 2805.02 500.233C2830.7 504.607 2857.14 505.177 2882.25 494.718C2925.81 476.652 2933.23 429.299 2895.19 401.344C2872.74 384.989 2846.68 373.769 2822.33 359.887C2790.37 341.82 2757.08 325.466 2727.02 304.547C2684.6 274.88 2662.72 231.521 2663.48 180.175C2664.24 125.786 2686.69 80.1448 2731.2 46.2943C2784.28 6.16822 2843.63 -7.33397 2909.45 3.69596C2955.11 11.3028 2998.29 24.6148 3038.05 48.3862C3051.56 56.3734 3051.56 56.7537 3044.33 70.4461C3028.16 101.064 3011.8 131.491 2996.01 161.348C2977.37 152.98 2959.3 143.662 2940.27 136.816C2908.88 125.406 2876.16 119.51 2842.87 127.307C2818.9 132.822 2802.92 147.275 2798.36 172.568C2795.12 189.683 2800.26 203.566 2814.91 211.933C2842.87 227.908 2871.03 243.502 2900.13 257.194C2941.22 276.592 2981.93 295.989 3016.18 326.417C3061.07 366.353 3076.1 415.036 3066.02 473.609C3052.13 555.002 3000.77 599.502 2923.34 617.569C2814.72 642.861 2714.27 622.703 2622.77 559.566C2613.83 553.291 2611.17 547.205 2617.63 536.746C2637.8 504.417 2657.2 471.707 2677.94 437.477H2677.75Z" fill="white"/>
<path d="M2367.28 262.709C2364.43 319 2361.77 375.481 2358.91 431.771C2360.06 432.152 2361.2 432.722 2362.34 433.102C2376.42 399.062 2386.31 362.549 2415.79 337.256C2398.1 385.369 2381.55 434.053 2350.54 475.891C2349.21 475.891 2347.88 475.891 2346.55 475.891C2344.84 467.333 2341.6 458.775 2341.6 450.218C2341.6 415.987 2343.31 381.756 2343.12 347.715C2343.12 317.288 2349.78 289.143 2367.28 262.899V262.709Z" fill="white"/>
<path d="M2327.53 447.746C2321.06 426.447 2314.97 404.958 2308.12 383.849C2297.47 350.949 2284.91 318.62 2276.16 285.34C2269.13 258.526 2267.22 230.571 2274.26 202.996C2275.21 199.383 2277.3 195.959 2281.3 192.727C2282.25 204.517 2281.3 216.878 2284.53 228.098C2293.86 261.378 2304.51 294.088 2315.16 326.987C2325.43 358.556 2334.18 390.314 2333.8 423.785C2333.8 431.962 2331.71 439.949 2330.57 448.127C2329.62 448.127 2328.67 447.746 2327.53 447.556V447.746Z" fill="white"/>
</svg>
