<svg width="3232" height="1440" viewBox="0 0 3232 1440" fill="none" xmlns="http://www.w3.org/2000/svg">
<path d="M372.29 479.041L0 264.908L4.75588 692.603L372.29 479.041Z" fill="white"/>
<path d="M816.3 770.764L454.473 979.001L816.3 1196.56V770.764Z" fill="white"/>
<path d="M775.018 1233.07L432.023 1026.73V1439.22L775.018 1233.07Z" fill="white"/>
<path d="M14.6484 1222.23L377.427 1434.65V1009.81L14.6484 1222.23Z" fill="white"/>
<path d="M0 228.205L372.29 14.2627V442.338L0 228.205Z" fill="white"/>
<path d="M416.996 0L794.231 235.432L416.996 442.909V0Z" fill="white"/>
<path d="M767.219 740.146L426.318 540.656L432.025 932.979L767.219 740.146Z" fill="white"/>
<path d="M12.5566 728.546L372.291 926.894L366.393 522.971L12.5566 728.546Z" fill="white"/>
<path d="M1058.85 166.971H1488.97C1594.36 166.971 1668.74 193.405 1717.82 242.469C1751.3 275.939 1771.66 320.249 1771.66 377.871V380.343C1771.66 477.33 1716.49 534.762 1642.3 567.281C1744.08 600.751 1808.76 658.373 1808.76 772.095V774.568C1808.76 918.337 1691.38 1005.82 1491.25 1005.82H1058.66V166.971H1058.85ZM1431.52 501.102C1502.29 501.102 1541.67 477.14 1541.67 428.076V425.604C1541.67 380.153 1505.71 353.719 1436.27 353.719H1285.23V501.102H1431.33H1431.52ZM1465 818.497C1535.77 818.497 1576.48 790.922 1576.48 741.858V739.386C1576.48 693.935 1540.52 663.888 1462.72 663.888H1285.42V818.307H1465.19L1465 818.497Z" fill="white"/>
<path d="M1851.94 880.873L1981.3 726.454C2064.05 792.254 2156.32 827.055 2253.34 827.055C2315.54 827.055 2349.21 805.565 2349.21 769.623V767.151C2349.21 732.35 2321.63 713.333 2207.87 686.899C2029.43 646.202 1891.51 595.807 1891.51 423.321V420.849C1891.51 265.099 2014.97 152.518 2216.24 152.518C2358.72 152.518 2470.2 190.932 2561.32 263.958L2445.09 428.076C2368.43 374.257 2284.53 345.351 2210.34 345.351C2154.03 345.351 2126.45 369.313 2126.45 399.17V401.642C2126.45 440.056 2155.17 456.792 2271.41 483.035C2464.31 524.873 2584.15 587.249 2584.15 744.14V746.612C2584.15 917.957 2448.71 1019.7 2245.15 1019.7C2096.58 1019.7 1955.24 972.916 1852.13 880.683L1851.94 880.873Z" fill="white"/>
<path d="M1230.06 1103.18H1159.29V1296.97H1129.81V1103.18H1058.85V1078.27H1230.25V1103.18H1230.06Z" fill="white"/>
<path d="M1217.32 1164.23C1225.88 1156.05 1235.01 1149.78 1244.9 1145.78C1254.79 1141.79 1265.64 1139.7 1277.81 1139.7C1286.37 1139.7 1294.17 1141.22 1300.83 1143.88C1307.49 1146.73 1313.19 1150.73 1317.76 1155.86C1322.33 1161 1325.75 1167.08 1328.22 1174.31C1330.5 1181.53 1331.65 1189.52 1331.65 1198.08V1296.97H1319.66C1317 1296.97 1314.91 1296.59 1313.57 1295.64C1312.24 1294.69 1311.1 1292.98 1310.15 1290.5L1307.11 1275.86C1303.11 1279.66 1299.12 1282.9 1295.12 1285.94C1291.13 1288.98 1287.13 1291.26 1282.95 1293.36C1278.76 1295.45 1274.2 1296.78 1269.25 1297.92C1264.49 1299.06 1258.98 1299.44 1253.08 1299.44C1247.18 1299.44 1241.48 1298.68 1236.15 1296.97C1230.82 1295.26 1226.26 1292.79 1222.26 1289.36C1218.27 1285.94 1215.22 1281.76 1212.94 1276.62C1210.66 1271.49 1209.52 1265.4 1209.52 1258.36C1209.52 1252.28 1211.23 1246.38 1214.46 1240.68C1217.89 1234.97 1223.21 1230.03 1230.82 1225.65C1238.43 1221.28 1248.13 1217.67 1260.31 1214.81C1272.48 1211.96 1287.32 1210.44 1304.82 1210.06V1198.08C1304.82 1186.1 1302.16 1176.97 1297.02 1170.89C1291.89 1164.8 1284.28 1161.57 1274.2 1161.57C1267.54 1161.57 1261.83 1162.33 1257.26 1164.04C1252.7 1165.75 1248.89 1167.65 1245.47 1169.74C1242.24 1171.84 1239.38 1173.74 1236.91 1175.45C1234.44 1177.16 1232.15 1177.92 1229.87 1177.92C1227.97 1177.92 1226.45 1177.35 1225.12 1176.4C1223.78 1175.45 1222.64 1174.31 1221.69 1172.79L1216.74 1164.04L1217.32 1164.23ZM1305.2 1227.37C1292.65 1227.75 1282 1228.7 1273.25 1230.41C1264.49 1231.93 1257.27 1234.02 1251.75 1236.49C1246.23 1238.97 1242.24 1242.01 1239.76 1245.43C1237.29 1248.86 1235.96 1252.85 1235.96 1257.03C1235.96 1261.22 1236.72 1264.64 1237.86 1267.49C1239.19 1270.54 1240.9 1272.82 1243.38 1274.72C1245.66 1276.62 1248.32 1277.95 1251.37 1278.9C1254.41 1279.85 1257.83 1280.23 1261.45 1280.23C1266.21 1280.23 1270.58 1279.66 1274.58 1278.71C1278.57 1277.76 1282.38 1276.43 1285.8 1274.53C1289.22 1272.63 1292.65 1270.54 1295.88 1267.87C1299.12 1265.4 1302.16 1262.36 1305.2 1259.12V1226.99V1227.37Z" fill="white"/>
<path d="M1500.19 1296.97H1474.13C1471.85 1296.97 1470.14 1296.4 1468.81 1295.26C1467.48 1294.12 1466.52 1292.78 1465.76 1291.45L1426.76 1230.79C1426.38 1232.31 1426 1233.64 1425.43 1234.97C1424.86 1236.3 1424.29 1237.64 1423.53 1238.78L1387.58 1291.45C1386.62 1292.97 1385.48 1294.12 1384.34 1295.26C1383.2 1296.4 1381.49 1296.97 1379.59 1296.97H1355.24L1409.45 1217.67L1357.33 1142.36H1383.39C1385.67 1142.36 1387.2 1142.74 1388.34 1143.5C1389.29 1144.26 1390.24 1145.21 1391 1146.54L1429.05 1204.55C1429.81 1201.69 1431.14 1198.65 1432.85 1195.99L1466.14 1147.11C1467.09 1145.59 1468.04 1144.45 1469.19 1143.69C1470.33 1142.74 1471.47 1142.36 1472.99 1142.36H1498.1L1445.98 1216.34L1500.19 1297.16V1296.97Z" fill="white"/>
<path d="M1777.37 1296.97H1754.54C1751.87 1296.97 1749.78 1296.4 1748.07 1295.07C1746.36 1293.74 1745.22 1292.02 1744.46 1290.12L1723.91 1237.25H1625.75L1605.2 1290.12C1604.63 1292.02 1603.49 1293.55 1601.59 1295.07C1599.88 1296.59 1597.78 1297.16 1595.12 1297.16H1572.29L1659.8 1078.46H1689.67L1777.18 1297.16L1777.37 1296.97ZM1715.73 1215.77L1681.3 1126.77C1680.35 1124.1 1679.21 1121.06 1678.06 1117.45C1676.92 1113.83 1675.78 1110.22 1674.83 1106.23C1672.74 1114.4 1670.46 1121.25 1668.17 1126.77L1633.74 1215.58H1715.35L1715.73 1215.77Z" fill="white"/>
<path d="M1903.49 1169.93C1902.73 1171.08 1901.78 1171.84 1901.02 1172.6C1900.26 1173.17 1899.12 1173.55 1897.59 1173.55C1896.07 1173.55 1894.36 1172.98 1892.65 1171.65C1890.75 1170.31 1888.46 1168.98 1885.8 1167.46C1883.14 1165.94 1879.71 1164.61 1875.91 1163.28C1871.91 1161.95 1867.16 1161.38 1861.45 1161.38C1853.84 1161.38 1847.18 1162.71 1841.29 1165.37C1835.39 1168.03 1830.63 1172.03 1826.64 1176.97C1822.64 1181.91 1819.79 1188.19 1817.7 1195.42C1815.6 1202.64 1814.65 1210.82 1814.65 1219.76C1814.65 1228.7 1815.79 1237.44 1817.89 1244.67C1819.98 1251.9 1823.02 1257.98 1827.02 1262.93C1831.01 1267.87 1835.58 1271.68 1841.29 1274.15C1846.8 1276.81 1853.08 1277.95 1859.93 1277.95C1866.78 1277.95 1871.91 1277.19 1876.29 1275.67C1880.47 1274.15 1884.09 1272.25 1886.94 1270.34C1889.8 1268.44 1892.08 1266.73 1893.98 1265.02C1895.88 1263.31 1897.78 1262.74 1899.5 1262.74C1901.78 1262.74 1903.49 1263.69 1904.63 1265.4L1912.24 1275.29C1908.82 1279.47 1905.01 1283.09 1900.83 1285.94C1896.64 1288.98 1891.89 1291.45 1886.94 1293.36C1882 1295.26 1876.86 1296.78 1871.53 1297.73C1866.21 1298.68 1860.69 1299.06 1854.98 1299.06C1845.28 1299.06 1836.34 1297.35 1827.97 1293.74C1819.6 1290.12 1812.56 1284.99 1806.28 1278.33C1800.2 1271.49 1795.44 1263.31 1792.02 1253.42C1788.59 1243.53 1786.88 1232.31 1786.88 1219.76C1786.88 1208.35 1788.4 1197.7 1791.63 1187.81C1794.87 1177.92 1799.43 1169.55 1805.71 1162.52C1811.8 1155.48 1819.41 1149.97 1828.54 1145.97C1837.67 1141.98 1847.94 1140.08 1859.55 1140.08C1870.39 1140.08 1880.09 1141.79 1888.27 1145.4C1896.64 1148.83 1903.87 1153.96 1910.34 1160.24L1903.11 1169.93H1903.49Z" fill="white"/>
<path d="M2046.55 1169.93C2045.79 1171.08 2044.84 1171.84 2044.08 1172.6C2043.32 1173.17 2042.18 1173.55 2040.65 1173.55C2039.13 1173.55 2037.42 1172.98 2035.71 1171.65C2033.8 1170.31 2031.52 1168.98 2028.86 1167.46C2026.2 1165.94 2022.77 1164.61 2018.97 1163.28C2014.97 1161.95 2010.22 1161.38 2004.51 1161.38C1996.9 1161.38 1990.24 1162.71 1984.34 1165.37C1978.45 1168.03 1973.69 1172.03 1969.7 1176.97C1965.7 1181.91 1962.85 1188.19 1960.76 1195.42C1958.66 1202.64 1957.71 1210.82 1957.71 1219.76C1957.71 1228.7 1958.85 1237.44 1960.95 1244.67C1963.04 1251.9 1966.08 1257.98 1970.08 1262.93C1974.07 1267.87 1978.64 1271.68 1984.34 1274.15C1989.86 1276.81 1996.14 1277.95 2002.99 1277.95C2009.84 1277.95 2014.97 1277.19 2019.35 1275.67C2023.53 1274.15 2027.15 1272.25 2030 1270.34C2032.85 1268.44 2035.14 1266.73 2037.04 1265.02C2038.94 1263.31 2040.84 1262.74 2042.56 1262.74C2044.84 1262.74 2046.55 1263.69 2047.69 1265.4L2055.3 1275.29C2051.88 1279.47 2048.07 1283.09 2043.89 1285.94C2039.7 1288.98 2034.95 1291.45 2030 1293.36C2025.06 1295.26 2019.92 1296.78 2014.59 1297.73C2009.26 1298.68 2003.75 1299.06 1998.04 1299.06C1988.34 1299.06 1979.4 1297.35 1971.03 1293.74C1962.66 1290.12 1955.62 1284.99 1949.34 1278.33C1943.25 1271.49 1938.5 1263.31 1935.07 1253.42C1931.65 1243.53 1929.94 1232.31 1929.94 1219.76C1929.94 1208.35 1931.46 1197.7 1934.69 1187.81C1937.93 1177.92 1942.49 1169.55 1948.77 1162.52C1954.86 1155.48 1962.47 1149.97 1971.6 1145.97C1980.73 1141.98 1991 1140.08 2002.61 1140.08C2013.45 1140.08 2023.15 1141.79 2031.33 1145.4C2039.7 1148.83 2046.93 1153.96 2053.4 1160.24L2046.17 1169.93H2046.55Z" fill="white"/>
<path d="M2147.18 1139.89C2158.41 1139.89 2168.68 1141.79 2177.81 1145.59C2186.94 1149.4 2194.55 1154.72 2201.02 1161.57C2207.49 1168.41 2212.43 1176.78 2215.67 1186.67C2219.09 1196.56 2220.81 1207.4 2220.81 1219.57C2220.81 1231.74 2219.09 1242.77 2215.67 1252.47C2212.24 1262.17 2207.3 1270.53 2201.02 1277.57C2194.55 1284.42 2186.94 1289.74 2177.81 1293.55C2168.68 1297.35 2158.6 1299.06 2147.18 1299.06C2135.77 1299.06 2125.5 1297.16 2116.37 1293.55C2107.24 1289.74 2099.44 1284.42 2093.16 1277.57C2086.88 1270.72 2081.74 1262.36 2078.51 1252.47C2075.09 1242.77 2073.37 1231.74 2073.37 1219.57C2073.37 1207.4 2075.09 1196.56 2078.51 1186.67C2081.93 1176.78 2086.88 1168.41 2093.16 1161.57C2099.44 1154.72 2107.43 1149.21 2116.37 1145.59C2125.31 1141.98 2135.77 1139.89 2147.18 1139.89ZM2147.18 1277.95C2162.4 1277.95 2173.82 1272.82 2181.43 1262.55C2189.04 1252.28 2192.65 1238.02 2192.65 1219.76C2192.65 1201.5 2188.85 1187.05 2181.43 1176.78C2173.82 1166.51 2162.4 1161.38 2147.18 1161.38C2139.38 1161.38 2132.73 1162.71 2127.02 1165.37C2121.31 1168.03 2116.56 1171.84 2112.75 1176.78C2108.95 1181.72 2106.09 1187.81 2104.19 1195.23C2102.29 1202.45 2101.34 1210.63 2101.34 1219.95C2101.34 1238.21 2105.14 1252.47 2112.75 1262.74C2120.36 1273.01 2131.78 1278.14 2147.37 1278.14L2147.18 1277.95Z" fill="white"/>
<path d="M2382.31 1142.36V1296.97H2366.14C2362.34 1296.97 2359.87 1295.07 2358.72 1291.26L2356.63 1274.53C2349.97 1281.94 2342.37 1288.03 2334 1292.4C2325.63 1296.97 2316.11 1299.25 2305.27 1299.25C2296.9 1299.25 2289.29 1297.92 2282.82 1295.07C2276.35 1292.21 2271.03 1288.41 2266.46 1283.28C2261.9 1278.14 2258.85 1272.06 2256.57 1264.83C2254.29 1257.6 2253.34 1249.62 2253.34 1240.87V1142.17H2280.54V1240.87C2280.54 1252.66 2283.2 1261.6 2288.53 1268.06C2293.86 1274.53 2302.03 1277.76 2313.07 1277.76C2321.06 1277.76 2328.67 1275.86 2335.52 1272.06C2342.56 1268.25 2349.02 1262.93 2354.92 1256.27V1142.36H2382.12H2382.31Z" fill="white"/>
<path d="M2450.99 1164.8C2454.41 1161 2457.84 1157.57 2461.64 1154.53C2465.45 1151.49 2469.44 1148.83 2473.63 1146.73C2477.81 1144.64 2482.38 1142.93 2487.13 1141.79C2491.89 1140.65 2497.03 1140.08 2502.54 1140.08C2510.91 1140.08 2518.52 1141.41 2524.99 1144.26C2531.46 1147.11 2536.79 1151.11 2541.16 1156.24C2545.54 1161.38 2548.77 1167.65 2551.05 1174.88C2553.34 1182.11 2554.48 1190.09 2554.48 1198.84V1297.35H2527.08V1198.84C2527.08 1187.05 2524.42 1178.11 2519.09 1171.65C2513.77 1165.18 2505.59 1161.95 2494.74 1161.95C2486.75 1161.95 2479.15 1163.85 2472.3 1167.84C2465.26 1171.65 2458.79 1176.97 2452.89 1183.63V1297.54H2425.5V1142.93H2441.86C2445.66 1142.93 2448.14 1144.83 2449.09 1148.63L2451.18 1165.37L2450.99 1164.8Z" fill="white"/>
<path d="M2641.22 1299.44C2629.05 1299.44 2619.54 1296.02 2613.07 1289.17C2606.6 1282.33 2603.18 1272.44 2603.18 1259.69V1164.99H2584.53C2582.82 1164.99 2581.49 1164.42 2580.35 1163.47C2579.21 1162.52 2578.64 1161 2578.64 1158.9V1148.06L2603.94 1144.83L2610.22 1097.1C2610.6 1095.58 2611.17 1094.25 2612.31 1093.29C2613.45 1092.34 2614.78 1091.77 2616.5 1091.77H2630.19V1145.02H2674.9V1164.8H2630.19V1257.6C2630.19 1264.07 2631.71 1269.01 2634.95 1272.06C2638.18 1275.29 2642.18 1276.81 2647.12 1276.81C2649.98 1276.81 2652.45 1276.43 2654.54 1275.67C2656.63 1274.91 2658.35 1274.15 2660.06 1273.2C2661.58 1272.25 2662.91 1271.49 2663.86 1270.72C2665.01 1269.96 2665.96 1269.58 2666.72 1269.58C2668.05 1269.58 2669.38 1270.53 2670.52 1272.25L2678.51 1285.18C2673.76 1289.55 2668.24 1292.97 2661.58 1295.45C2654.92 1297.92 2648.08 1299.25 2641.04 1299.25L2641.22 1299.44Z" fill="white"/>
<path d="M2699.25 1164.23C2707.81 1156.05 2716.94 1149.78 2726.83 1145.78C2736.72 1141.79 2747.57 1139.7 2759.74 1139.7C2768.3 1139.7 2776.1 1141.22 2782.76 1143.88C2789.42 1146.73 2795.12 1150.73 2799.69 1155.86C2804.26 1161 2807.68 1167.08 2810.15 1174.31C2812.43 1181.53 2813.58 1189.52 2813.58 1198.08V1296.97H2801.59C2798.93 1296.97 2796.84 1296.59 2795.51 1295.64C2794.17 1294.69 2793.03 1292.98 2792.08 1290.5L2789.04 1275.86C2785.04 1279.66 2781.05 1282.9 2777.05 1285.94C2773.06 1288.98 2769.06 1291.26 2764.88 1293.36C2760.69 1295.45 2756.13 1296.78 2751.18 1297.92C2746.42 1299.06 2740.91 1299.44 2735.01 1299.44C2729.11 1299.44 2723.41 1298.68 2718.08 1296.97C2712.75 1295.26 2708.19 1292.79 2704.19 1289.36C2700.2 1285.94 2697.15 1281.76 2694.87 1276.62C2692.59 1271.49 2691.45 1265.4 2691.45 1258.36C2691.45 1252.28 2693.16 1246.38 2696.39 1240.68C2699.82 1234.97 2705.14 1230.03 2712.75 1225.65C2720.36 1221.28 2730.06 1217.67 2742.24 1214.81C2754.41 1211.96 2769.25 1210.44 2786.75 1210.06V1198.08C2786.75 1186.1 2784.09 1176.97 2778.96 1170.89C2773.82 1164.8 2766.21 1161.57 2756.13 1161.57C2749.47 1161.57 2743.76 1162.33 2739.19 1164.04C2734.63 1165.75 2730.82 1167.65 2727.4 1169.74C2724.17 1171.84 2721.31 1173.74 2718.84 1175.45C2716.37 1177.16 2714.08 1177.92 2711.8 1177.92C2709.9 1177.92 2708.38 1177.35 2707.05 1176.4C2705.71 1175.45 2704.57 1174.31 2703.62 1172.79L2698.67 1164.04L2699.25 1164.23ZM2787.13 1227.37C2774.58 1227.75 2763.93 1228.7 2755.18 1230.41C2746.43 1231.93 2739.2 1234.02 2733.68 1236.49C2728.16 1238.97 2724.17 1242.01 2721.69 1245.43C2719.22 1248.86 2717.89 1252.85 2717.89 1257.03C2717.89 1261.22 2718.65 1264.64 2719.79 1267.49C2721.12 1270.54 2722.83 1272.82 2725.31 1274.72C2727.59 1276.62 2730.25 1277.95 2733.3 1278.9C2736.34 1279.85 2739.77 1280.23 2743.38 1280.23C2748.14 1280.23 2752.51 1279.66 2756.51 1278.71C2760.5 1277.76 2764.31 1276.43 2767.73 1274.53C2771.15 1272.63 2774.58 1270.54 2777.81 1267.87C2781.05 1265.4 2784.09 1262.36 2787.13 1259.12V1226.99V1227.37Z" fill="white"/>
<path d="M2880.54 1164.8C2883.97 1161 2887.39 1157.57 2891.19 1154.53C2895 1151.49 2898.99 1148.83 2903.18 1146.73C2907.36 1144.64 2911.93 1142.93 2916.69 1141.79C2921.44 1140.65 2926.58 1140.08 2932.09 1140.08C2940.46 1140.08 2948.08 1141.41 2954.54 1144.26C2961.01 1147.11 2966.34 1151.11 2970.71 1156.24C2975.09 1161.38 2978.32 1167.65 2980.61 1174.88C2982.89 1182.11 2984.03 1190.09 2984.03 1198.84V1297.35H2956.64V1198.84C2956.64 1187.05 2953.97 1178.11 2948.64 1171.65C2943.32 1165.18 2935.14 1161.95 2924.29 1161.95C2916.3 1161.95 2908.7 1163.85 2901.85 1167.84C2894.81 1171.65 2888.34 1176.97 2882.44 1183.63V1297.54H2855.05V1142.93H2871.41C2875.22 1142.93 2877.69 1144.83 2878.64 1148.63L2880.73 1165.37L2880.54 1164.8Z" fill="white"/>
<path d="M3070.78 1299.44C3058.6 1299.44 3049.09 1296.02 3042.62 1289.17C3036.15 1282.33 3032.73 1272.44 3032.73 1259.69V1164.99H3014.09C3012.37 1164.99 3011.04 1164.42 3009.9 1163.47C3008.76 1162.52 3008.19 1161 3008.19 1158.9V1148.06L3033.49 1144.83L3039.77 1097.1C3040.15 1095.58 3040.72 1094.25 3041.86 1093.29C3043 1092.34 3044.33 1091.77 3046.04 1091.77H3059.74V1145.02H3104.45V1164.8H3059.74V1257.6C3059.74 1264.07 3061.26 1269.01 3064.5 1272.06C3067.73 1275.29 3071.73 1276.81 3076.67 1276.81C3079.53 1276.81 3082 1276.43 3084.09 1275.67C3086.18 1274.91 3087.9 1274.15 3089.61 1273.2C3091.13 1272.25 3092.46 1271.49 3093.41 1270.72C3094.55 1269.96 3095.51 1269.58 3096.27 1269.58C3097.6 1269.58 3098.93 1270.53 3100.07 1272.25L3108.06 1285.18C3103.31 1289.55 3097.79 1292.97 3091.13 1295.45C3084.47 1297.92 3077.62 1299.25 3070.59 1299.25L3070.78 1299.44Z" fill="white"/>
<path d="M3222.77 1167.84C3221.63 1170.12 3219.73 1171.27 3217.06 1171.27C3215.54 1171.27 3213.83 1170.69 3211.93 1169.55C3210.03 1168.41 3207.55 1167.27 3204.89 1165.75C3202.04 1164.42 3198.8 1163.09 3194.81 1161.95C3191 1160.81 3186.44 1160.24 3181.11 1160.24C3176.54 1160.24 3172.36 1160.81 3168.75 1161.95C3165.13 1163.09 3161.9 1164.8 3159.43 1166.7C3156.76 1168.79 3154.86 1171.08 3153.53 1173.74C3152.2 1176.4 3151.43 1179.44 3151.43 1182.49C3151.43 1186.48 3152.57 1189.71 3154.86 1192.37C3157.14 1195.04 3160.19 1197.32 3163.99 1199.22C3167.8 1201.12 3171.98 1202.83 3176.74 1204.36C3181.49 1205.88 3186.44 1207.4 3191.57 1209.11C3196.52 1210.82 3201.47 1212.72 3206.22 1214.62C3210.98 1216.53 3215.35 1219.19 3218.97 1222.23C3222.58 1225.27 3225.82 1229.08 3228.1 1233.45C3230.38 1237.83 3231.52 1243.15 3231.52 1249.43C3231.52 1256.46 3230.19 1263.12 3227.72 1269.2C3225.25 1275.29 3221.44 1280.42 3216.5 1284.99C3211.55 1289.36 3205.46 1292.97 3198.23 1295.45C3191 1297.92 3182.63 1299.25 3173.12 1299.25C3162.28 1299.25 3152.58 1297.54 3143.82 1293.93C3135.07 1290.5 3127.65 1285.94 3121.57 1280.42L3128.04 1269.96C3128.8 1268.63 3129.75 1267.68 3130.89 1266.92C3132.03 1266.16 3133.36 1265.78 3135.07 1265.78C3136.98 1265.78 3138.88 1266.54 3140.97 1267.87C3143.06 1269.2 3145.54 1270.92 3148.39 1272.63C3151.24 1274.34 3154.86 1275.86 3159.04 1277.38C3163.23 1278.9 3168.36 1279.47 3174.64 1279.47C3179.97 1279.47 3184.53 1278.71 3188.53 1277.38C3192.52 1276.05 3195.76 1274.15 3198.42 1271.87C3201.09 1269.58 3202.99 1266.92 3204.32 1263.69C3205.65 1260.46 3206.22 1257.41 3206.22 1253.99C3206.22 1249.81 3205.08 1246.19 3202.8 1243.34C3200.51 1240.49 3197.47 1238.21 3193.67 1236.11C3189.86 1234.21 3185.68 1232.31 3180.73 1230.98C3175.98 1229.46 3171.03 1227.94 3165.89 1226.22C3160.76 1224.51 3156 1222.8 3151.05 1220.71C3146.3 1218.62 3141.92 1215.96 3138.12 1212.91C3134.31 1209.68 3131.27 1205.88 3128.99 1201.31C3126.7 1196.75 3125.56 1191.04 3125.56 1184.39C3125.56 1178.49 3126.7 1172.79 3129.18 1167.27C3131.65 1161.76 3135.26 1157 3139.83 1153.01C3144.59 1148.83 3150.29 1145.59 3157.14 1143.12C3163.99 1140.65 3171.79 1139.51 3180.54 1139.51C3190.81 1139.51 3199.94 1141.03 3207.93 1144.26C3215.92 1147.49 3222.96 1151.87 3228.86 1157.38L3222.77 1167.27V1167.84Z" fill="white"/>
</svg>
