<?xml version="1.0" encoding="UTF-8"?>
<svg id="Layer_1" data-name="Layer 1" xmlns="http://www.w3.org/2000/svg" viewBox="0 0 898.75 917.03">
  <defs>
    <style>
      .cls-1 {
        fill: #fff;
      }
    </style>
  </defs>
  <path class="cls-1" d="m653.4,625.37c4.7,8.33,9.81,16.47,14.02,25.04,10.52,21.37,17.75,43.68,17.46,67.86-.04,3.31-.35,6.67-1.05,9.9-2.53,11.71-11.04,17.8-25.56,18.61-14.55.8-27.82-4.11-40.87-9.52-22.97-9.53-43.4-23.13-61.35-40.28-3.97-3.79-7.2-4.14-12.3-2.6-11.1,3.36-22.48,5.81-33.8,8.37-2.84.64-4.1,1.63-4.65,4.67-5.2,28.58-15.74,55.01-34.33,77.51-6.56,7.94-14.87,14.8-23.41,20.65-11.14,7.64-23.47,6.99-34.8-.18-29.38-18.58-46.2-46.17-54.96-79.09-2.29-8.62-3.3-17.59-4.72-26.43-.39-2.4-1.14-3.4-3.73-4.24-12.3-4-24.69-7.9-36.52-13.04-5.82-2.53-9.49-1.57-14.25,1.74-19.08,13.27-39.63,23.89-62.2,29.59-13.43,3.39-27.35,5.12-41.15,6.62-5.4.59-11.27-.88-16.61-2.45-13.88-4.1-19.23-13.76-16.3-27.89,4-19.27,14.54-35.12,26.14-50.43,2.76-3.65,5.65-7.19,8.49-10.8-14.88-2.39-29.33-4.19-43.55-7.12-16.3-3.35-32.24-8.19-45.83-18.41-10.01-7.53-12.05-18.55-4.05-28.23,5.51-6.67,12.45-12.52,19.71-17.3,10.64-7,22.12-12.7,32.87-18.75-54.99-89.12-69.2-185.08-41.68-286.38,20.3-74.72,62.4-135.8,124.36-182.5,136.83-103.13,327.78-88.66,445.3,16.9,66.65,59.87,105.33,134.54,114.76,223.5,9.4,88.66-11.19,170.17-63.3,243.59,5.7,5.26,11.65,10.27,17.04,15.82,10.5,10.82,19.83,22.41,23.02,37.77,2.83,13.62-2.51,23.99-15.51,29.13-15.43,6.11-31.5,5.98-47.65,4.4-20.33-1.99-39.73-7.35-58.14-16.27-.2-.1-.58.16-.89.26Zm-445.95-192.76c-17.79-17.88-15.72-51.67,4.24-65.21-5.86-3.69-7.17-8.82-5.04-15.13.45-1.34.36-3.04,0-4.44-2.89-11.18-.04-20.29,9.78-27.12-4.85-10.33-3.16-19.83,2.92-29.2,2.25-3.47,3.28-7.93,4.11-12.09,2.2-11.14,9.85-19.02,21.06-21.13,3.89-.73,7.76-1.53,12.4-2.45-.54-5.29-1.12-10.5-1.59-15.73-.18-1.95-.37-3.95-.11-5.87,1.04-7.84,5.95-13.29,12.01-17.57,6.58-4.65,11.92-9.69,15.12-17.58,2.11-5.21,7.15-9.31,11.14-13.67,3.22-3.52,7.25-6.34,10.18-10.06,4.98-6.31,10.57-10.97,19.07-10.98,1.09,0,2.34-.45,3.23-1.1,9.02-6.53,18.24-7.46,27.62-.97,1.98-2.76,3.37-5.78,5.68-7.69,5.17-4.28,10.83-7.97,16.25-11.95,7.97-5.86,17.88-5.49,26.78-6.78,6.66-.97,14.09,3.64,21.25,5.5,2.01.52,4.94,1,6.29-.03,14.45-10.95,29.81-11.47,46.17-5.15,2.9,1.12,6.59,1.74,9.5.99,11.39-2.97,21.15,1.36,24.94,12.85.49,1.5,2.73,2.75,4.43,3.47,4.67,1.97,9.44,3.75,14.26,5.31,1.98.64,4.47,1.28,6.27.64,13.91-4.91,26.86-.29,34.35,12.21,1.05,1.76,3.51,2.97,5.58,3.76,5.36,2.04,11.46,2.76,16.19,5.72,9.09,5.69,12.91,14.73,12.92,25.49,0,8.24.78,8.65,8.88,7.69,10.57-1.26,19.79,1.63,26.92,9.77,8.17,9.32,9.89,20.3,7.59,32.15-.55,2.84-1.18,5.66-1.83,8.75,9.84,1.07,15.23,6.92,18.28,14.93,3.24,8.5,6.01,17.2,8.61,25.93,2.04,6.83,2.6,13.83-1.43,20.27-2.83,4.52-2.34,8.76.33,13.05,1.57,2.54,3.18,5.06,4.65,7.66,6.31,11.1,7.97,22.96,3.9,35-1.63,4.82-5.55,8.86-8.56,13.46,14.27,19.23,12.16,45.95-5.53,63.25,5,7.35,7.86,15.76,3.65,23.83-5.62,10.78-4.8,24.32-15.83,33.27,26.78,8.75,51.41,19.38,74.25,33.96.98-1.16,1.69-1.86,2.24-2.67,13.99-20.48,26.37-41.82,35.7-64.91,21.96-54.33,30.15-110.49,24.07-168.85-4.04-38.72-14.16-75.66-30.87-110.72-27.18-57.02-67.02-103.31-119.79-138.08-46.22-30.45-97.31-47.18-152.29-53.03-37.38-3.98-74.4-2.49-111.02,5.59-58.28,12.86-109.84,39.18-154.57,78.81-28.97,25.66-51.8,56.09-70.54,89.79-27.22,48.96-39.95,101.74-41.34,157.39-.58,23.13,1.6,46.16,5.74,68.97,7.9,43.48,23.41,83.97,47.3,121.18.73,1.14,3.29,2.16,4.55,1.77,18.7-5.76,37.29-11.91,56.01-17.62,3.96-1.21,5.74-3.1,5.13-7.01-.64-4.07-1.44-8.14-2.5-12.12-.23-.87-1.86-1.89-2.89-1.94-13.79-.73-23.9-9.92-22.65-28.95.17-2.64.25-5.38-.21-7.97-1.78-10.02-.23-19.09,7.04-26.63Zm170.43,146.09c-2.27,6.27-4.5,11.97-6.42,17.78-9.31,28.25-12.97,57.32-11.9,86.97.75,20.69,3.96,40.94,11.87,60.28,9.1,22.23,22.42,41.14,42.77,54.42,12.54,8.19,23.93,8.01,35.41-1.62,7.95-6.67,15.53-14.23,21.62-22.59,20.92-28.69,28.55-61.9,29.68-96.67.45-13.88-.83-27.97-2.85-41.75-2.3-15.69-6.27-31.13-9.59-46.67-.47-2.21-1.32-3.67-4.43-3.34-10.55,1.13-21.1,1.62-28.3-8.66-5.51,4.53-11.14,7.39-19.05,5.43,0,15.99.1,31.08-.03,46.18-.12,14.98-.37,29.96-.73,44.94-.37,15.14-1.01,30.28-1.4,45.42-.38,14.81-.84,29.61-2.33,44.32l-2.56-.11c0-13.97.07-27.94-.01-41.9-.26-44.45-.7-88.89-.72-133.34,0-5.97-2.22-8.76-7.49-9.91-13.94,13.32-28.37,9.34-43.55.81Zm172.99-5.15c34.12,38.83,64.36,80.39,92.17,123.78-2.32-1.49-4.21-3.33-5.86-5.36-26.09-32.14-52.02-64.43-78.31-96.41-8.59-10.44-18.12-20.11-27.42-30.35-6.45,6.76-13.12,8.13-18.43,6.64-5.66,4.49-10.17,7.88-14.42,11.57-1.02.89-1.97,3.04-1.6,4.17,2.89,8.81,5.72,17.67,9.27,26.22,22.41,53.97,60.94,92.35,113.74,116.7,11.68,5.39,23.86,9.29,36.93,9.19,14.35-.11,21.11-6.92,21.31-21.06.21-14.99-2.98-29.37-8.04-43.34-8.28-22.89-19.19-44.51-37.66-60.82-17.8-15.72-36.78-30.13-55.43-44.87-1.8-1.42-5.13-1.97-7.44-1.48-6.07,1.29-11.98,3.38-18.82,5.41Zm-185.58-7.07c-3.45,1.31-6.63,2.78-9.95,3.69-3.5.95-7.22,1.11-10.7,2.11-2.1.6-4.13,1.9-5.82,3.34-2.01,1.71-3.5,4.01-5.4,5.85-35.09,33.95-72.83,64.77-111.68,94.27-.7.53-1.55.85-2.33,1.27.12-1.27.6-2.08,1.27-2.7,15.38-14.25,30.83-28.42,46.16-42.72,19.83-18.5,39.57-37.08,59.3-55.67,1.49-1.4,2.61-3.19,3.28-4.02-6.04-3.96-11.59-7.64-17.21-11.2-.68-.43-1.96-.48-2.71-.14-6.31,2.88-12.88,5.38-18.78,8.96-14.05,8.55-27.9,17.45-41.61,26.55-23.39,15.52-45.4,32.62-61.58,56.09-8.15,11.82-15.45,24.05-18.41,38.36-2.51,12.13,1.68,19.3,13.86,21.25,8.1,1.29,16.65,1.86,24.74.8,33.07-4.32,62.99-17.02,90.11-36.26,24.09-17.09,43.32-38.92,58.49-64.04,5.3-8.78,6.88-19.73,11.4-29.09,3.11-6.43,2.08-11.15-1.96-16.11-.1-.13-.21-.26-.48-.6Zm29.06-82.39c4.09,6.7,10.35,9.64,18.1,7.9,4.25-.96,8.12-3.56,12.35-4.75,3.28-.92,7.09-1.74,10.23-.92,4.39,1.14,8.41,3.79,12.53,5.9,8.19,4.19,16.51,4.08,24.96.93,3.67-1.37,7.29-2.95,11.06-3.97,9.42-2.55,12.56-7.36,10.56-16.9-.34-1.61-1.01-3.16-1.37-4.77-1.05-4.65-1.43-9.26,2.24-13.06,6.61-6.84,9.33-15.35,11.52-24.36,1.31-5.4-.11-9.67-3.32-13.3-5.5-6.21-12.07-10.4-21.06-7.85-3.53,1-5.75,0-5.82-4.27-.07-3.63-.56-7.28-1.11-10.88-1.7-11.25-5.14-14.73-15.69-16.63-1.13-.2-2.4-1.52-2.97-2.64-1.19-2.34-1.72-5.02-2.95-7.33-4.12-7.73-10.46-9.89-18.34-6.03-10.26,5.02-17.76,12.77-21.23,23.82-1.3,4.13-3.69,5.58-7.71,5.05-3.62-.48-7.24-.93-10.85-1.46-9.61-1.4-20.84,7.33-20.8,16.82.02,4.57-1.66,7.7-4.96,10.18-9.38,7.05-7.87,15.29.98,22.63,4.18,3.47,9.91,5.03,14.85,7.62,1.14.6,2.61,1.76,2.73,2.8.13,1.11-.87,2.77-1.87,3.53-4.69,3.53-5.99,8.71-2.26,13.16,2.42,2.88,2.8,5.11,1.89,8.79-1.9,7.73,1.89,12.1,8.3,9.99Zm325.8,114.53c-.27.37-.55.74-.82,1.11-13.51-7.06-26.94-14.24-40.53-21.14-15.82-8.03-31.76-15.84-47.71-23.61-1.66-.81-3.99-1.37-5.64-.86-6.76,2.1-13.64,4.12-19.98,7.19-6.98,3.37-13.15,4.17-19.33-1.3-.69-.61-2.29-.19-3.47-.25.41,1.09.55,2.41,1.28,3.21,1.89,2.09,3.91,4.1,6.09,5.88,13.28,10.83,26.57,21.64,39.94,32.36,10.82,8.67,22.55,15.76,35.5,20.93,18.37,7.34,37.43,11.51,57.1,12.63,11.97.69,23.98.2,35.3-4.58,9.12-3.84,12.46-10.19,10.65-19.95-2.84-15.37-12.36-26.75-23.16-36.99-26.83-25.42-60.03-39.05-93.47-49.78-5.57,8.19-10.79,15.88-16.27,23.94,29.56,15.56,57.76,32.21,84.51,51.21Zm-127.88-153.93c6.49,6.05,13.51,9.85,22.38,10.16,5.76.2,11.51,1.27,17.23,2.18,7.27,1.16,9.5.3,13.1-6.4,1.42-2.64,3.03-3.08,5.65-2.07,8.09,3.1,14.18,1.13,17.66-6.48,4.78-10.48,6.63-21.46,3.25-32.83-2.64-8.87-2.85-8.9-11.96-10.1-1.51-.2-3.4-1.53-4.02-2.85-.37-.79,1.1-2.91,2.23-3.84,1.35-1.12,3.23-1.61,4.87-2.39,12.74-6.05,16.14-32.03,5.39-41.3-.62-.54-1.65-.74-2.05-1.37-1.02-1.61-2.53-3.38-2.53-5.08.02-10.09-6.33-17.17-16.05-15.73-5.27.78-7.41-1.22-9.61-4.86-.51-.84-1.21-1.6-1.93-2.28-6.07-5.73-12.06-5.02-17.44,1.2-2.61,3.02-6.12,5.82-9.8,7.26-8.26,3.23-14.73,7.65-18.32,16.28-1.3,3.14-4.81,6.01-8.01,7.53-3.06,1.44-4.74,3.14-5.65,6.14-.53,1.74-1.12,3.51-2.01,5.08-1.87,3.28-1.75,6.22.71,9.15,1.27,1.52,2.31,3.24,3.38,4.91,3.82,5.98,7.04,12.21,5.21,19.6-1.85,7.49-4.05,14.89-6.09,22.29,17.24,2.1,25.9,13.41,14.41,25.81Zm-323.73,98.89c-41.17,14.43-81.89,28.7-122.61,42.97l-.52-1.39c34.96-18.49,72.05-31.94,110.66-45.23-3.34-1.25-5.32-2.01-7.3-2.74-6.87-2.52-13.8-4.86-18.2-11.45-.65-.97-2.95-1.56-4.24-1.25-35.38,8.46-69.55,20.12-100.34,39.97-6.44,4.15-12.26,9.7-17.27,15.55-4.77,5.56-3.48,12.93,2.53,17.02,5.7,3.88,11.85,7.39,18.27,9.85,20.93,8.02,42.89,11.25,65.09,13.55,7.6.79,12.84-1.07,18.54-6.12,19.86-17.57,42.34-31.58,64.58-45.89,3.41-2.2,6.77-4.47,11.04-7.28-8.7-3.75-16.94-6.62-20.23-17.56Zm237.92-341.75c.66-.36,1.32-.73,1.98-1.09,6.04,8.86,12.08,17.72,18.93,27.79,0-3.82.01-6.23,0-8.65-.06-8.61,1.83-16.79,5.88-24.38.77-1.45,2.65-2.31,4.01-3.43.25.35.5.7.75,1.05-2.04,8.94-4.07,17.88-6.11,26.82,5.38-7.24,11.52-12.89,19.13-16.8l1.22,1.14c-5.92,7.94-11.84,15.88-17.76,23.83.34.24.68.48,1.02.72,7.53-7.69,15.96-13.47,27.19-13.47-8.3,5.27-16.82,10-23.66,18.36h24.87c-7.75,6.73-17.48,4.98-26.43,6.2.96,5.31,4.46,10.22-1.47,15.04-1.64-2.7-3.11-5.02-4.48-7.4-1.4-2.44-2.44-5.14-4.11-7.36-6.21-8.22-18.75-7.65-24.21.96-3.7,5.84-4,5.84-7.84-.08-4.26-6.57-11.82-6.27-15.54.62-2.69,4.99-6.9,8.18-11.78,10.97-3.95,2.25-8.03,5.02-10.7,8.57-2.54,3.39-5.21,8.46-4.49,12.13,1.34,6.75,5.13,13.01,7.99,19.71,6.55-6.49,14.31-4.45,22.37-2.64-2-9.24-.37-17.09,6.27-23.66-.11,4.15-1.5,8.16-1.54,12.19-.04,4.14,1.25,8.29,1.96,12.44,3.02-8.56,7.48-11.94,16.58-11.27,3.64.27,5.68-.32,6.96-4.19,2.87-8.68,8.88-13.31,18.44-12.7,1.09.07,2.81-.94,3.33-1.93,7.16-13.64,18.72-18.03,33.84-11.82,3.54-5.2,8.26-10.19,10.62-16.12,2.81-7.08,6.69-12.33,13.37-15.81,1.62-.84,3.71-2.45,3.97-3.98,1.68-9.67-3.35-25.58-15.73-29.12-3.63-1.04-7.51-1.44-11.3-1.64-3.46-.17-5.08-1.08-5.94-4.92-2.43-10.79-20.65-16.97-28.41-9.64-3.51,3.32-5.29,2.68-8.42-.25-9.81-9.16-23.15-7.21-30.93,3.74-2.42,3.41-6.3,5.74-9.2,8.87-4,4.32-8.69,8.41-11.28,13.52-3.29,6.5-3.17,13.36,2.07,19.92,2.76,3.44,3.22,8.68,5,12.99.53,1.28,1.84,2.71,3.11,3.12,4.34,1.43,8.82,2.44,14.34,3.89,3.42-4.29,9.5-7.15,17.34-6.97-3.73-8.92-11.53-15.45-11.22-25.3Zm-47.57,159.25c2.99-1.97,6.06-3.48,8.47-5.69,4.71-4.32,10.25-8.36,13.27-13.74,4.56-8.1,8.94-15.79,17.24-20.67,1.2-.7,2.29-3.6,1.8-4.85-5.48-14.17-20.28-25.51-36.85-16.67-5.36,2.86-7.72,1.99-10.42-3.48-2.39-4.85-3.99-10.09-5.96-15.15-1.63-4.22-5.44-6.41-9.41-4.97-7.88,2.86-15.59,6.14-19.08,14.67-1.15,2.82-3.34,3.67-5.5,2.53-3.7-1.95-7.44-4.21-10.35-7.15-3.07-3.1-6.33-4.95-10.11-2.94-8.63,4.6-15.08,11.22-17.19,21.29-1,4.77-2.4,9.45-3.53,14.18-.3,1.23-.77,2.75-.33,3.77,1.51,3.5-.34,5.18-2.97,6.76-5.65,3.39-8.69,9.16-8.18,15,.92,10.76,4.89,21.11,14.78,26.75,8.71,4.96,18.41,8.22,27.77,11.96,1.07.43,3.73-.48,4.14-1.42,4.13-9.56,10.25-17.2,19.14-22.89,11.91-7.61,21.9-9.77,33.25,2.7Zm87.4-27.93c-1.04-2.86-1.47-5.89-3.09-8.02-2.43-3.2-5.23-7.23-8.68-8.3-8.18-2.53-17.39-.33-23.68,3.84-9.01,5.98-17.26,13.91-22.45,24.2-1.97,3.92-4.7,7.73-7.91,10.68-5.21,4.76-11.1,8.77-16.07,12.61,4.92,4.38,11.12,8.06,14.58,13.49,3.55,5.58,4.42,12.87,6.44,19.34,2.72.4,5.74.52,8.55,1.36,2.68.8,5.15,2.34,7.96,3.67-1.96-9.56,8.48-35.83,17.13-41.25-2.74,8.42-5.1,15.7-7.82,24.07,7.83-9.45,14.27-18.61,24.1-24.15.52.45,1.04.9,1.56,1.36-6.95,8.85-13.89,17.71-20.84,26.56,6.29-3.1,11.65-7.24,18.74-6.07.3.53.59,1.07.89,1.6-9.93,7.02-19.86,14.05-29.84,21.1,7.26,6.64,10.58,14.63,7.53,24.49-1.21,3.9.12,6.02,3.8,7.66,9.3,4.13,23.5-.77,28.91-10.26,4.13-7.24,4.12-7.17,12.2-6.22,1.53.18,3.45,0,4.69-.8,6.17-3.93,10.42-9.14,10.38-17-.01-2.26-.04-4.88,1-6.74,3.75-6.74,2.53-12.77-1.8-18.57-3.43-4.59-6.98-9.1-10.53-13.72,8.6-7.62,11.35-16.76,8.78-27.32-1.75-7.16-6.71-10.55-14.02-9.84-3.4.33-6.72,1.41-10.5,2.24Zm-249.39,88.8c-.16.75-.32,1.5-.48,2.25-1.4.36-2.81.66-4.19,1.07-7.62,2.29-9.65,5.33-9.68,13.33,0,2.92-.38,6.01-1.4,8.71-2.98,7.84.28,15.02,8.71,16.54,10,1.81,19.4-.55,27.9-6.29,2.21-1.5,3.64-5.93,6.92-3.27.99.8-.95,5.05-1.31,7.76-.38,2.9-1.74,7.43-.46,8.45,3.68,2.92,9.1,6.85,12.7,5.93,6.23-1.59,11.67-2.04,17.84-.45,5.65,1.45,7.83-1,9.39-6.56,1.03-3.66,3.23-7.1,5.4-10.3,1.91-2.8,4.51-5.13,6.7-7.57-4.8-3.83-9.37-6.86-13.19-10.65-7.67-7.6-8.29-21.23-.04-28.45,3.64-3.19,7.25-6.34,6.15-12.1-.23-1.19.84-2.89,1.74-4,3.62-4.45,7.42-8.76,11.34-13.35-11.88-3.85-20.73-11.55-25.03-24.21-1.42-4.18-5.14-3-7.94-1.22-1.76,1.12-3.29,2.89-4.39,4.69-1.56,2.56-3.41,2.84-5.86,1.72-3.86-1.76-6.46-.67-8.57,3.08-3.45,6.15-9.27,6.99-14.83,2.46-1.93-1.57-3.71-3.38-5.78-4.73-7-4.59-15.11-2.85-19.18,4.46-1.98,3.55-3.71,7.56-4.22,11.54-.69,5.39-3.73,8.34-7.56,11.57-2.66,2.25-5.36,5.88-5.71,9.14-.72,6.77,9.87,16.93,16.84,17.81,2.78.35,5.44,1.74,8.15,2.65Zm20.79-143.13c-.61.48-1.22.96-1.83,1.43-1.95-1.55-4.39-2.77-5.77-4.72-4-5.67-12.69-9.56-19.14-8.05-7.26,1.7-13.43,8.33-14.36,15.5-1.03,8.04-.34,15.8,3.21,23.26.66,1.38.13,3.33.16,5.02-1.55-.21-3.09-.5-4.64-.6-1.75-.12-4.18-.83-5.16.03-4.87,4.3-6.04,16.4-2.95,22.16,1.32,2.46,2.24,5.41,2.36,8.19.33,7.35,3.85,11.97,11.09,13.03,3.1.45,6.45.9,9.43.2,11.17-2.6,20.14,1.68,28.36,8.43,2.51,2.06,3.76,1.98,5.16-1.02,3.42-7.41,6.27-8.54,12.11-6.16,4.88-2.36,9.09-4.1,12.96-6.41,1.44-.86,2.76-2.98,2.97-4.68.94-7.67,3.38-14.59,9.56-19.51,3.57-2.84,4.71-5.44,1.58-8.28,1.68-3.31,4.4-6.21,4.36-9.07-.12-9.3,4.74-16.07,10.13-22.58,2.68-3.24,1.94-5.49-.97-7.23-2.17-1.3-4.85-1.82-7.37-2.43-1.65-.4-3.4-.35-5.32-.52.17-1.27.26-1.91.34-2.54.8-6.29-2.75-13.47-8.14-16.44-4.6-2.53-9.97-1.58-15.29,3.62-2.87,2.8-5.13,2.81-8.2.82-3.83-2.47-8.27-1.99-11.05.88-2.33,2.41-3.29,6.45-4.06,9.95-.54,2.43.27,5.16.48,7.75Zm121.66,218.21c-5.7-3.51-10.68-2.78-16.39.08-10.23,5.13-20.44,4.87-29.63-3.12-1.15-1-2.87-1.46-4.4-1.9-5.88-1.69-9.68-6.5-10.51-12.54-.75-5.46-2.1-10.83-3.19-16.24-.55.02-1.1.04-1.65.06-.71,1.96-1.54,3.88-2.13,5.88-3.8,13.01-10.67,16.68-23.56,12.56-.92-.29-2.06-.78-2.84-.49-6.08,2.29-11.27,5.72-13.54,12.21-1.89,5.38,2.27,8.11,5.25,11.31.34.36.75.66,1.1,1.01,3.5,3.51,3.05,5.66-1.58,7.49-5.93,2.35-9.98,8.48-8.48,14.13,2.13,8.03.07,14.07-6.34,19.36-5.25,4.34-4.24,9.94,2.03,12.41,14.91,5.86,29.36,5.95,42.81-4.19,1.92-1.45,4.29-2.31,7.64-4.07-.58,3.57-.94,5.49-1.2,7.42-.62,4.55-.15,8.7,4.56,11.02,4.14,2.04,8.29,4.06,12.5,5.96,14.76,6.67,26.17,1.76,30.63-12.75,1.89-6.17,4.63-12.08,7.24-18.79-4.37-4.26-4.15-10.12-1.41-16.73.98-2.35-.08-5.54-.17-8.35-.05-1.57-.66-3.6.08-4.63,4.15-5.76,8.63-11.29,13.18-17.11Zm156.85-40.51c.19,3.37-.58,6.56.65,8.42,5.33,8.07,4.46,15.5-1.37,22.99q29.18-5.74,32.61-1.98c-6.37,1.58-12.26,3.03-17.93,4.44,4.97,1.75,9.96,3.43,14.89,5.3.87.33,1.47,1.4,2.19,2.13-.98.64-1.99,1.85-2.95,1.81-2.96-.13-5.92-.63-8.85-1.18-5.47-1.04-10.92-2.23-16.6-3.4,4.32,5.68,8.23,10.81,12.78,16.79-2.59.19-3.9.7-4.45.27-6.57-5.22-13.02-10.58-19.42-15.84-4.58,1.66-9.35,3.4-14.3,5.19.31,9.01-4.3,14.3-12.82,17.05-2.47.79-5.19,2.85-6.41,5.08-3.1,5.69-7.39,9.18-13.72,9.84-.11.62-.31,1.02-.2,1.26,4.05,8.53,3.67,16.23-3.75,22.98-.58.53.14,3.81,1.17,4.59,4.73,3.56,10.16,3.52,15.66,1.98,5.47-1.53,10.89-3.34,16.43-4.56,7.6-1.67,9.65-7.6,12.02-13.78.76-1.99,3.52-3.22,5.37-4.79.72,1.93,1.46,3.86,2.13,5.81.15.45.06.99.06,1.49.08,6.71,3.82,9.05,10.02,6.76,7.1-2.63,14.32-4.97,21.59-7.12,4.99-1.48,8.43-4.2,10.3-9.15.81-2.15,2.17-4.33,3.86-5.86,4.21-3.85,8.13-8.1,6.82-14.03-1.11-5.02.85-7.34,4.85-8.74,4.33-1.51,6.79-4.44,8.16-8.66,2.13-6.57,3.63-13.49,6.76-19.56,3.63-7.04,2.44-13.05-1.2-19.18-2.44-4.11-7.95-4.39-11.97-1.83-3.18,2.03-7.3,4.26-10.74,3.9-13.84-1.45-28.34.15-41.63-8.38Zm-316.14-33.45c-7.2-2.61-11.06-7.88-13.98-14.03-3.76-7.91-1.33-17.78,6.22-21.76,3.94-2.08,4.89-4.63,4.67-8.92-2.53-.23-5.01-.86-7.39-.58-5.45.64-9.77-.89-13.95-4.53-6.07-5.29-13.3-7.28-21.32-4.99-4.44,1.26-8.82,2.82-13.32,3.8-8.22,1.79-13.52,7.03-15.02,14.8-1.62,8.39-2.09,17.1-2.08,25.67,0,6.19,3.91,10.77,9.51,13.59,4.59,2.32,4.8,3.5,1.93,7.69-2.41,3.52-6.19,7.21-6.36,10.96-.5,11.48-.57,23.18,1.2,34.48,1.22,7.84,14.36,11.52,18.88,6.13,7-8.34,16.21-12.8,25.82-17.18,6-2.74,12.87-6.23,16.22-11.41,3.47-5.37,4.26-13.2,4.15-19.92-.08-5.3,1.08-9.26,4.83-13.78Zm185.77-213.66c.41-.44.83-.88,1.24-1.32-2.46-16.53,6.37-26.75,18.94-34.96,1.5-.98,2.63-2.51,3.96-3.76,4.08-3.83,8.23-7.59,12.23-11.5.9-.88,2.02-2.43,1.8-3.4-1.59-7.28-8.55-12-15.37-9.57-6.11,2.17-11.22.83-16.71-1.42-7.43-3.04-15.23-5.58-23.17-2.85-5.72,1.97-11.24,4.9-16.36,8.15-4.07,2.58-7.6,2.42-11.63.59-4.06-1.84-8.16-3.67-12.37-5.13-4.41-1.52-8.66-1.46-12.59,1.89-1.43,1.21-4.06,2.18-5.73,1.73-6.1-1.66-10.5.23-14.6,4.74-2.22,2.44-5.21,4.4-8.2,5.87-4.52,2.22-7.1,5.44-6.96,10.45.36,12.87,6.41,23.15,15.3,31.86,3.23,3.17,10.88,3.34,13.35.6,5.82-6.44,12.26-11.48,22.12-11.06-5.66-7.34-7.58-14.94-8.43-24.48,5.66,3.85,4.95,9.78,7.97,13.37,3.39,4.03,6.98,7.93,10.72,11.64,3.51,3.47,7.34,6.62,11.46,10.3,0-10.52-.09-20.66.07-30.79.04-2.12,1.03-4.23,1.58-6.35.79.12,1.59.24,2.38.36v36.76c.67.17,1.35.33,2.02.5,4.68-11.53,9.26-23.13,16.2-33.39.84.38,1.68.76,2.52,1.13-3.91,10.34-7.82,20.69-11.78,31.17,7.01,3.09,13.53,5.97,20.05,8.85Zm43.62,237.69c-2.57,3.55-4.69,6.96-7.3,9.93-2.89,3.3-2.92,6.29-1.41,10.38,3.12,8.41,2.69,16.55-3.87,23.7-7.61,8.29-5.03,17.21-1.21,24.37,1.73,3.25,4.93,5.4,8.78,3.68,3.55-1.58,6.77-3.91,10.08-5.99,1.55-.97,2.99-2.13,5.23-3.75.32,2.89.46,4.67.73,6.43.9,5.89,5.42,10.43,11.11,11.22,6.43.89,15-2.36,16.37-7.02,1.19-4.05,3.17-6.22,7.24-6.78,1.3-.18,2.54-.74,3.81-1.12,6.41-1.92,8.68-8,5.31-13.86-.63-1.1-.64-2.57-1.06-4.45,9.42,1.79,16.44-1.7,22.75-6.89,7.79-6.41,8.44-11.76,3.29-20.37-.98-1.64-1.62-4.1-1.18-5.87,1.88-7.55,1.4-8.56-5.89-10.42-1.39-.35-2.56-1.54-3.84-2.34.86-1.32,1.48-2.91,2.63-3.9,2.51-2.15,5.37-3.88,7.93-5.98,3.21-2.63,2.59-5.35-.17-7.98-4.21-4-9.03-4.45-14.64-2.19-4.51,1.82-9.29,3.8-14.03,4.03-4.84.24-7.48,1.45-9.96,5.84-7.35,13.03-23.7,17.66-36.89,11.12-1.17-.58-2.37-1.12-3.8-1.8Zm-99.21-163.35c.63-.42.94-.56,1.15-.79,8.49-9.1,18.09-15.53,31.4-13.74.96.13,2.83-1.16,3.1-2.12,3.02-10.72,10.31-17.32,19.92-22.23,7.21-3.68,11.29-13.43,9.32-20.29-2.2-7.69-7.69-10.97-17.66-11.19-2.47-.05-5.2-1.08-7.29-2.45-7.34-4.81-7.68-5.06-14.82.29-3.41,2.55-5.43,2.04-7.38-1.62-6.72-12.63-21.42-11.32-29-4.76-3.95,3.42-7.05,5.32-12.24,4.97-5.16-.34-6.64,2.58-4.44,7.47.54,1.2,1.3,2.31,2.02,3.42,1.92,3,1.6,5.51-1.35,7.58-10.16-6.59-16.09-5.91-21.95,2.36-3.79,5.35-3.55,16.17.97,19.2,5.6,3.74,7.67,9.28,9.59,15.17.42,1.3,1.58,2.62,2.76,3.37,4.34,2.75,8.82,5.27,13.98,8.3,9.34-3.95,14.81-2.44,21.92,7.05Zm-94.07-76.76c.63-.18,1.26-.36,1.89-.54,6.37,9.98,10.04,21.02,12.1,34.01,3.44-6.76,6.58-12.51,9.32-18.44,2.71-5.85,5.03-11.88,7.52-17.83.62.15,1.24.29,1.85.44.22,1.36.84,2.8.58,4.07-1,4.85-1.76,9.85-3.57,14.41-3.41,8.61-7.46,16.97-11.31,25.4-1.23,2.7-1.15,4.71,1.68,4.47,5.21-2.08,10.43-4.17,15.76-6.3-3.22-17.08,6.76-30.3,21.43-30.72.82-4.57,1.1-8.68-4.35-11.07-1.96-.86-3.79-2.94-4.77-4.92-4.48-8.97-12.88-16.18-12.06-27.65.13-1.76-2.83-4.49-4.96-5.53-5.15-2.49-10.25-1.66-15.01,1.75-1.79,1.28-4.09,2.67-6.12,2.62-6.97-.15-11.86,2.8-16.12,8.14-3.47,4.34-7.98,7.83-11.82,11.89-3.36,3.54-7.98,6.86-9.31,11.13-2.58,8.25-6.41,13.84-14.3,18.37-8.54,4.9-14.19,13.19-10.04,24.47.46,1.26-.43,2.95-.21,4.37.36,2.28.4,5.61,1.84,6.54,4.26,2.75,9.13,4.56,13.78,6.69.18.08.55-.36.86-.43,4.12-1.01,8.32-3.01,12.35-2.73,5.54.38,10.96,2.5,16.37,3.86,2.24-3.32,4.84-7.18,7.52-11.16-8.26-1.97-16.63-3.83-24.89-6.06-1.77-.48-5.66-.17-4.31-3.71.47-1.24,3.74-1.51,5.78-2.01.72-.17,1.6.32,2.41.51,8.45,1.95,16.9,3.9,25.35,5.84.27-.29.55-.57.82-.86-8.88-7.97-17.76-15.95-26.64-23.92.32-.44.63-.89.95-1.33,10.93,1.77,18.4,9.34,27.02,16.6-2.47-10.12-4.93-20.25-7.4-30.37Zm198.02,314.36c-9.61,8.22-17.23,7.75-24.19-1.49-4.49-5.96-5.99-12.79-5.2-20.17.12-1.13.02-2.29.02-4.04-2.25.97-3.57,1.6-4.93,2.12-6.45,2.46-12.76,6.26-19.96,4.77-10.31-2.14-18.73-.76-23.37,9.98-.19.45-.74.77-.85,1.22-.34,1.34-1.11,2.92-.7,4.04,1.59,4.41,1.14,8.28-1.42,12.25-2.12,3.28-2.51,6.61,1.54,9.26,1.82,1.2,3.14,3.17,4.71,4.83-6.26,5.06-9.54,9.65-10.88,14.9-2.92,11.42-2.75,10.86,8.73,14.26,6.84,2.02,11.02-.26,15.28-4.81,1.33-1.42,3.72-3.19,5.14-2.84,1.48.37,2.94,2.95,3.43,4.82,1.07,4.13,3.5,6.36,7.58,6.7,4.96.42,9.94.81,14.91.83,9.16.03,16.88-2.56,21.58-11.45,1.03-1.95,5.01-4.33,6.45-3.72,6.46,2.74,10.81.8,14.58-4.42.96-1.33,2.32-2.38,3.49-3.55,8.26-8.27,7.15-15.93-3.27-21.42-5.4-2.84-10.37-6.01-12.66-12.08Zm-238.27-57.25c-7.44,7.72-17.12,11.86-27.07,15.63-3.36,1.28-6.52,3.31-9.45,5.44-6.06,4.42-7.51,10.56-3.82,17.01,1.81,3.17,1.9,5.92.69,9.23-1.77,4.84-.37,8.96,4.21,11.44,4.79,2.59,9.71,4.99,14.74,7.07,7.44,3.07,14.67,3.49,21.45-2.2,2.01-1.69,5.02-2.17,7.58-3.21l1.55,1.92c-1.98,2.84-3.72,5.89-6,8.47-3.88,4.38-4.7,7.5-.38,11.13,4.43,3.73,9.77,7,15.26,8.69,5.14,1.58,10.91.63,14.98-4.16,2.87-3.38,6.15-6.46,8.64-10.1,1.64-2.39,3.58-5.86,2.99-8.27-2.37-9.69,1.47-16.73,8.03-23.06-7.57-11.34-7.57-18.19.31-24.98-6.55-4.03-14.79-6.4-15.4-16.16-13.48,5.15-26.19,5.76-38.3-3.89Zm314.72-164.53c-1.59-4.15-1.57-4.78,1.35-9.62,4.37-7.22,1.54-13.84-1.84-20.19-3.38-6.35-9.35-8.55-16.1-7.21-3.75.74-5.27-.57-7.1-3.34-3.68-5.59-8.54-7.4-13.57-5.61-6.11,2.17-11.49,9.61-11.96,16.23-.08,1.16-.63,2.57-1.46,3.29-.41.36-2.12-.36-2.96-.97-6.35-4.63-15.67-2.68-16.94,4.94-1.54,9.27-6.79,10.14-13.96,9.78-.49-.02-1-.21-1.46-.13-5.34.94-8.18,7.43-5.39,12.06,1.97,3.27,3.62,6.75,5.73,9.92.77,1.16,2.47,2.46,3.73,2.44,10.74-.12,21.4-4.29,33.26.24-4.45-5.58-8.1-10.17-11.76-14.76.38-.44.76-.89,1.15-1.33,9.02-.42,11.01,9.3,16.91,13.4,12.66-24.71,14.01-26.55,20.99-27.25-4.88,8.34-9.46,16.16-14.03,23.98,7.29-1.48,12.35-6.96,19.85-5.05-8.61,5.82-15.54,14.55-27.66,14.22,1.43,3.72,2.6,6.78,3.78,9.86,6.89-.4,13.68-1.2,19.36,3.35,5.39,4.33,8.26,10.07,8.59,17.37,1.82-1.48,3.52-2.9,4.31-4.71,4.55-10.46,11.98-17.29,23.38-19.55,3.7-.73,5.67-3.02,5.49-7.08-.28-6.14-2.97-11.17-6.95-15.56-4.95-5.45-6.47-5.44-12.04-.64-.73.63-1.59,1.12-2.71,1.9Zm14.99-10.44c8.21,4.22,11.18,11.12,13.71,18.44.39,1.13,2.69,2.61,3.73,2.36,8.33-1.99,14.56,1.12,19.88,7.22.89,1.02,2.23,1.98,3.52,2.27,5.66,1.32,11.38,2.38,18.06,3.73,3.02-3.11,2.33-8.28,1.16-12.96-2.28-9.12-5.15-18.11-8.07-27.05-1.89-5.79-6.15-9.39-12.13-10.65-8.42-1.77-9.55-2.85-6.79-10.79,2.8-8.06,2.47-15.81.57-23.89-2.78-11.86-16.68-19.12-27.88-14.4-1.23.52-2.93.69-4.17.28-8.48-2.8-15.32-.17-18.81,8.15-2.93,6.99-6.23,13.47-12.57,18.07-1.13.82-1.87,3.08-1.65,4.5.13.82,2.54,1.8,3.93,1.8,5.85.02,11.08,2.01,14.66,6.32,3.74,4.49,6.4,9.88,9.47,14.77,3.9-8.8,7.95-18.86,18.29-23.86.47.28.95.56,1.42.84-3.97,6.49-7.94,12.97-11.92,19.46,6.8-3.85,12.43-9.22,22.2-8.11-7.86,5.64-14.73,10.58-21.6,15.52.21.41.41.82.62,1.23,3.83-.65,7.65-1.57,11.51-1.86,3.69-.27,7.43.12,11.15.21.05.89.1,1.78.16,2.67-9.1,1.82-18.19,3.64-28.46,5.7Zm-319.95,71.2c-2.04,0-3.34.02-4.64,0-12.17-.26-17.88-5.83-18.43-17.86-.06-1.28-.44-2.57-.87-3.79-1.61-4.5-3.52-8.9-4.88-13.46-.86-2.88-2.18-4.51-5.27-5.01-3.78-.61-7.48-1.71-11.21-2.59.06-.6.13-1.21.19-1.81,5.96-5.41,12.21-.68,18.58.62,2-6.27,3.15-12.91,9.1-17.05.93-.65,1.45-2.66,1.32-3.96-.92-9.22-.3-18.12,5.02-26.12-10.26-7.82-20.53-6.43-31.1-2.5-7.31,2.72-10.73,8.28-12.79,15.35-1.41,4.84-2.93,9.82-5.42,14.15-4.25,7.39-4.61,14.66-1.44,22.34.61,1.48,1.25,2.95,1.88,4.41-1.33,1.11-2.25,2.1-3.37,2.78-7.85,4.84-10.26,11.66-7.97,20.52.51,1.96.06,4.29-.36,6.36-1.35,6.56,2.84,11.23,9.44,10.17,2.27-.36,4.49-1.14,6.69-1.86,9.37-3.08,18.07-2.02,26.77,2.85,6.78,3.8,14.2,6.46,21.23,9.57,2.83-4.91,4.94-8.58,7.53-13.09Zm65.1,328.11c1.12-19.73,2.21-38.75,3.24-56.83-12.93,13.92-26.27,28.28-40.09,43.16,12.22,4.53,24.7,9.16,36.85,13.67Zm194.02-1.84c-15.64-16.24-28.13-33.35-37.41-51.89v60.94c12.5-3.02,24.4-5.9,37.41-9.05Z"/>
  <path class="cls-1" d="m894.28,777.45c-1.11,1.28-2.03,2.81-3.36,3.79-10.03,7.4-20.18,14.64-30.2,22.06-2.79,2.07-5.43,4.42-7.83,6.94-8.78,9.21-8.65,19.98.45,31.38,8.62,10.79,19.62,17.73,33.35,20.25,4.08.75,8.03,2.15,12.04,3.24l.02,2.11c-2.02.74-3.99,1.9-6.07,2.17-22,2.82-43.74,2.29-65.04-4.92-11.36-3.84-22.96-6.86-35.17-5.72-5.62.52-11.28,2.11-16.81,1.71-11.55-.83-23.13-2.11-34.47-4.34-4.46-.88-7.87-.33-11.75,1.24-22.3,9-44.39,18.62-67.05,26.6-32.46,11.43-66.02,18.92-99.99,24.51-45.8,7.55-91.92,9.81-138.24,7.94-44.71-1.81-89.15-6.59-133.09-15.09-36.84-7.13-73.2-16.33-108.17-30.27-5.79-2.31-10.93-2.89-17.01-.38-17.3,7.13-35.02,8.02-53.1,2.31-14.56-4.6-28.93-.95-43.26,2.16-15.98,3.47-32.08,4.64-47.64-1.52-6.23-2.47-11.84-6.55-17.56-10.18-1.51-.96-2.38-2.94-4.36-5.49,3.25-.15,5.27-.36,7.28-.31,14.63.37,29.49,1.7,43.36-4.07,6.61-2.75,12.46-7.4,18.46-11.46,2.76-1.87,2.26-4.05-.49-5.89-5.39-3.59-10.75-7.25-16.07-10.95-10.6-7.36-18.3-17.31-25.04-28.12-1.85-2.96-3.85-5.82-5.61-8.83-1.03-1.75-1.72-3.7-3.22-7.02,3.37.82,5.3.97,6.94,1.73,24.74,11.47,50.67,14.44,77.38,10.12,7.42-1.2,14.55-4.32,21.75-6.75,3.1-1.04,4.48-3.24,4.55-6.83.16-7.97.52-15.97,1.51-23.87,1.02-8.16,5.89-11.47,13.78-8.76,9.55,3.27,18.69,7.7,28.01,11.63,49.37,20.81,100.34,36.57,152.58,48.34,30.54,6.88,61.41,11.57,92.62,13.53,37.08,2.32,74.13,1.87,111.13-2.37,46.05-5.27,91.04-14.81,134.53-31.07,31.63-11.82,61.6-26.62,88.09-47.87,1.81-1.45,3.83-2.67,5.85-3.81,7.49-4.22,13.89-2.06,16.46,6.17,1.52,4.85,1.93,10.08,2.5,15.18.35,3.16,1.52,5.01,4.66,6.2,34.66,13.19,70.34,17.83,107.19,13.22,1.74-.22,3.53-.03,5.3-.03.26.46.51.91.77,1.37Zm-437.51,132.86c.03-.45.06-.9.09-1.36,38.35.42,76.44-2.88,114.17-9.46,50.56-8.82,99.61-22.87,146.32-44.51,14-6.49,28.1-12.76,42.11-19.22,10.15-4.68,14.07-12.44,13.01-23.74-1.89-20.35-2.79-40.8-4.49-61.18-.28-3.33-2.55-6.5-3.9-9.74-2.91,1.34-6.19,2.21-8.68,4.11-18.16,13.88-37.35,26.03-58.23,35.41-33.89,15.22-69,26.76-105.39,34.25-29.82,6.14-59.93,10.02-90.34,12.16-30.3,2.13-60.54,1.99-90.72-.54-31.8-2.67-63.32-7.43-94.5-14.53-47.68-10.86-94.33-24.87-139.51-43.67-10.73-4.46-21.29-9.33-32.05-13.71-5.12-2.08-6.87-.84-7.04,4.46-.74,22.45-1.24,44.91-2.07,67.36-.36,9.65,3.98,15.99,12.25,20.44,19.96,10.73,40.93,19.02,62.48,25.87,49.87,15.83,100.89,26.28,152.96,31.09,31.11,2.88,62.34,4.38,93.51,6.5Zm413.06-47.51c-1.7-.96-3.58-1.71-5.08-2.93-5.88-4.78-12.5-9-17.28-14.73-12.84-15.44-10.83-31.34,4.85-43.8,5.85-4.65,12.09-8.81,18.13-13.22,1.06-.78,2.05-1.66,4.25-3.47-34.46,1.68-66.45-2.34-96.94-14.74.55,15.66.92,30.93,1.69,46.18.59,11.65-4.25,19.81-14.6,24.9-1.94.95-3.87,1.92-5.79,2.89-4.14,2.08-8.27,4.16-12.41,6.25.12.71.23,1.41.35,2.12,9.36.42,18.94,2.35,28.02.96,20.44-3.15,39.93-1.26,59.32,5.63,11.3,4.02,23.17,5.64,35.5,3.96Zm-705.58.7c-8.32-4.58-15.94-8.56-23.33-12.93-6.24-3.69-10.82-8.98-11.99-16.37-.75-4.73-1.01-9.57-1.1-14.37-.17-8.58-.05-17.17-.05-25.93-30.29,13.64-61.45,10.32-93.55,1,6.64,10.79,13.92,19.46,23.57,26.02,5.77,3.92,11.5,7.91,17.25,11.87,4.38,3.01,5.2,6.24,1.71,10.36-3.17,3.76-6.74,7.44-10.81,10.14-10.01,6.64-21.2,10.22-33.3,10.52-4.84.12-9.68.02-14.53.02-.08.53-.17,1.05-.25,1.58,1.71.75,3.37,1.62,5.13,2.22,15.16,5.14,30.6,4.63,45.72.65,18.1-4.76,35.74-5.7,53.95-.26,14,4.18,27.9,1.49,41.56-4.52Z"/>
  <path class="cls-1" d="m436.83,426.69c-1.64-6.03-3.44-12.03-4.8-18.12-.38-1.69.53-3.67.85-5.52,1.52,1.26,3.96,2.26,4.39,3.81,2.01,7.28,3.58,14.7,5.05,22.12.44,2.18.07,4.53.07,7.63,8.26-4.18,15.59-7.9,22.93-11.62.55.56,1.1,1.12,1.65,1.68-.96,1.71-1.48,4.17-2.94,5.02-8.79,5.13-17.83,9.84-26.73,14.79-5.35,2.98-10.57,6.19-15.92,9.17-2.23,1.24-4.63,2.15-7.17,3.31q-.71-5.92,21.32-18.99c-4.6-8.69-10.25-16.45-18.55-22.04-.96-.65-2.17-1.04-2.92-1.87-.89-.98-1.39-2.31-2.06-3.49,1.43-.44,3.26-1.68,4.22-1.19,4.21,2.14,8.47,4.41,12.13,7.35,2.88,2.31,4.92,5.67,7.34,8.56.38-.21.76-.41,1.14-.62Z"/>
  <path class="cls-1" d="m632.88,359.46c-4.57,5.41-9.13,10.82-13.7,16.23,8.08-2.59,14.9-7.99,24.54-6.82-1.35,1.31-2.5,2.98-4.09,3.88-7.49,4.25-15.1,8.3-23.55,12.9,7.14,1.9,14.44.05,19.82,6.17-1.58.27-3.19.89-4.73.76-9.83-.82-19.5-.75-28.65,3.74-.96.47-3.24.4-3.38.02-.53-1.43-1.01-3.36-.46-4.64,2.91-6.67,5.96-13.29,9.34-19.73,2.17-4.13,4.98-7.92,7.51-11.86.49.21.97.41,1.46.62-1.17,4.28-2.34,8.56-3.87,14.15,6.29-6.73,9.47-15.25,18.4-16.78.46.45.91.91,1.37,1.36Z"/>
  <path class="cls-1" d="m404.54,319.89c10,2.17,14.32,11.43,20.96,18.41.78-7.58-1.28-15.11.9-22.25.77-.08,1.53-.17,2.3-.25.85,3.82,2.47,7.66,2.39,11.46-.18,8.57-1.08,17.13-2.06,25.65-.09.83-3.34,2.34-4.2,1.86-8.88-4.92-18.26-7.65-28.43-7.72-.65,0-1.3-.78-2.78-1.74,9.6-6.19,18.3-2.24,28.09-.72-3-3.81-6.01-7.6-8.98-11.42-3.13-4.02-6.21-8.07-9.32-12.11.38-.4.75-.79,1.13-1.19Z"/>
  <path class="cls-1" d="m344.28,412.11c-4.19-6.61-8.38-13.22-12.56-19.82.4-.54.81-1.08,1.21-1.62,2.17.92,4.79,1.36,6.44,2.86,6.46,5.85,10.59,13.04,11.25,21.97.34,4.6.95,9.17,1.34,12.87-12.98,2.7-26.1,5.43-40.65,8.46,8.35-11.44,19.82-12.51,31.83-14.67-7.39-5.3-14.77-10.62-22.18-15.9-1.48-1.05-3.37-1.69-4.54-2.99-1.16-1.29-1.67-3.18-2.46-4.81,1.67-.18,3.48-.86,4.97-.42,2.5.74,4.95,1.96,7.15,3.4,5.66,3.71,11.17,7.64,16.74,11.49.49-.27.97-.54,1.46-.81Z"/>
  <path class="cls-1" d="m314.39,304.05c11.52.64,17.25,9.56,24.73,16.5.63-10.21-7.91-17.28-7.53-26.82,7.46,4.02,9.79,11.1,12.54,18.71,2.32-5.09,4.46-9.77,6.6-14.45.52.17,1.04.35,1.56.52,1.54,5.52-.41,10.76-2.11,15.95-1.79,5.47-3.72,10.91-5.89,16.24-.58,1.43-2.17,3.27-3.48,3.43-7.71.95-15.46,1.47-23.21,2.08-.6.05-1.23-.29-1.83-.45q.74-3.77,19.93-8.59c-4.35-10.25-16.1-13.71-21.3-23.13Z"/>
  <path class="cls-1" d="m394.4,522.07c-8.11,6.41-15.09,11.94-22.08,17.47-.48-.52-.95-1.04-1.43-1.56,3.86-8.38,10.57-14.52,17.21-21.55-8.38,1.66-16.75,3.32-25.13,4.99-.34-.52-.68-1.04-1.02-1.55,1.02-1.42,1.73-3.56,3.1-4.15,11.55-4.94,23.46-7.01,35.81-3.22,2.8.86,3.64,2.79,2.7,5.86-2.54,8.34-4.75,16.78-7.16,25.16-.71,2.46-1.66,4.85-3.36,7.12-3.45-9.22-.78-18.14,1.35-28.57Z"/>
  <path class="cls-1" d="m241.56,451.74c1.69-6.88,6.3-11.07,19.92-19.04h-24.98c2.02-6.75,7.34-5.58,11.58-5.76,4.34-.18,8.72.58,13.61-.03-7.89-4.57-15.79-9.13-23.68-13.7.31-.75.62-1.49.94-2.24,2.87.57,6,.61,8.56,1.82,6.41,3.03,12.76,6.3,18.72,10.12,2.27,1.45,3.94,4.45,4.96,7.11,1.9,4.97.64,6.26-4.25,8.52-6.44,2.98-12.57,6.62-18.85,9.95-1.8.96-3.66,1.82-6.52,3.24Z"/>
  <path class="cls-1" d="m561.23,479.83h-28.38c7.21,3.44,13.39,6.38,19.57,9.33-.21.51-.41,1.03-.62,1.54-11.8,1.06-21.53-5.43-32.98-9.78,2.32-2.58,3.81-5.63,6.18-6.64,10.03-4.27,19.53-10,30.23-12.56.31.58.62,1.15.94,1.73-5.11,3.34-10.22,6.68-15.7,10.26,7.26,1.76,14.93.26,21.15,4.43-.13.56-.25,1.13-.38,1.69Z"/>
  <path class="cls-1" d="m391.9,250.42c8.33-.97,14.59,4.43,22.67,6.94-3.47-5.9-7.02-11.75-10.33-17.74-.7-1.27-.53-3.04-.76-4.57,1.49.62,3.64.81,4.36,1.93,3.74,5.78,7.13,11.79,10.6,17.74.62,1.07,1.04,2.25,1.55,3.39.5-.06,1-.12,1.49-.19-.39-8.4-.78-16.8-1.23-26.42,7.66,4.66,4.39,11.97,6.6,17.44,4.19-5.67,8.33-11.28,12.47-16.89.52.23,1.03.45,1.55.68-.3,1.56-.22,3.34-.97,4.64-5.63,9.74-11.35,19.43-17.2,29.04-1.5,2.47-3.45,3.56-6.59,1.53-6.49-4.21-13.31-7.92-19.92-11.96-1.88-1.15-3.51-2.71-5.25-4.09l.95-1.47Z"/>
  <path class="cls-1" d="m510.3,535.44c-6.22,3.88-10.17-2.05-15.48-2.08,2.57,4.76,5.04,9.34,7.51,13.92l-.94,1.41c-2.02-1.09-4.59-1.72-5.96-3.36-2.64-3.14-4.59-6.86-6.86-10.31-1.13-1.72-2.34-3.39-4.08-5.89-3.36,8.09-6.32,15.21-9.28,22.34-.86-.15-1.72-.3-2.57-.45,0-2.55-.62-5.3.12-7.61,1.81-5.65,4.01-11.2,6.49-16.59,2.51-5.47,4.47-5.8,9.63-2.94,6.9,3.83,13.89,7.49,21.41,11.54Z"/>
  <path class="cls-1" d="m292.08,486.97c-1.88-.29-3.74-.7-5.63-.84-2.81-.2-5.69.07-8.44-.42-1.55-.27-2.9-1.65-4.34-2.52,1.39-1.09,2.65-2.84,4.2-3.17,9.01-1.93,17.43-.34,24.95,5.19,2.93,2.15,3.81,4.1,1.32,7.78-2.9,4.31-4.43,9.53-6.65,14.31-.89,1.92-2.03,3.72-3.05,5.58-.75-.23-1.5-.46-2.25-.68,1.02-6.32,2.05-12.63,3.15-19.41-10.37,1.78-19.38,7.47-28.88,12.41.38-7.33,11.88-15.07,25.62-18.23Z"/>
  <path class="cls-1" d="m245.27,296.95c5.12-1.04,13.17,8.71,12.52,15.15-5.12-.67-11.29-8.13-12.52-15.15Z"/>
  <path class="cls-1" d="m242.35,834.19c-5.11-1.29-9.66-2.44-14.25-3.6.17-3.99,2.2-5.19,5.26-4.79,4.6.59,9.2,1.28,13.75,2.19,2.4.48,3.49,1.9,2.76,4.75-1.79,7.03-5.01,12.74-12.52,14.68-7.07,1.82-15.11-1.59-19.57-7.97-5.81-8.31-5.07-18.87,1.92-27.11,5.41-6.38,13.54-8.25,21.13-4.44,2.25,1.13,4.34,3.07,5.77,5.14.64.93-.51,3.1-.85,4.71-1.26-.35-2.81-.34-3.73-1.1-5.33-4.42-9.35-5.25-13.95-2.58-5.12,2.98-8.52,10.92-7.25,16.9,1.23,5.77,6.01,10.14,11.7,10.64,4.94.43,7.59-2.39,9.81-7.43Z"/>
  <path class="cls-1" d="m621.47,835.35c3.12-3.95,6.58-7.98,13.03-4.92.66.31,2.53-1.05,3.33-2.04,2.56-3.2,6.08-5.08,9.54-3.32,2.25,1.15,3.97,4.59,4.64,7.32,1.43,5.76,1.99,11.74,2.97,17.61.43,2.55.2,5.05-2.77,5.25-.93.06-2.61-2.41-2.98-3.96-1.22-5.15-1.86-10.44-3.02-15.6-.36-1.6-1.76-4.26-2.53-4.21-1.69.11-3.73,1.29-4.85,2.67-4.11,5.05-1.42,10.83-1.19,16.32.08,1.8,1.01,3.66.75,5.37-.2,1.32-1.65,2.45-2.55,3.66-.94-.92-2.51-1.71-2.72-2.78-.98-5.02-1.49-10.14-2.4-15.18-.27-1.52-1.29-2.9-1.96-4.35-1.69.91-3.77,1.45-4.99,2.78-4.39,4.78-2.21,10.7-2.27,16.21-.01,1.14.74,2.33.56,3.4-.2,1.23-1.04,2.36-1.6,3.53-1.19-.82-3.2-1.45-3.44-2.49-1.14-4.99-1.88-10.08-2.58-15.16-.39-2.79-.9-5.7-.45-8.41.34-2.04,2.12-3.83,3.26-5.74,1.34,1.27,2.67,2.55,4.22,4.03Z"/>
  <path class="cls-1" d="m481.46,881.69c-.62.51-1.57,1.91-2.37,1.82-1.58-.16-3.77-.72-4.47-1.87-1.43-2.36-1.76-5.37-3.11-7.81-.75-1.37-2.52-2.79-4.02-3.03-7.31-1.16-13.17.59-15.2,8.82-.27,1.08-.9,2.38-1.77,2.91-1.16.7-2.9,1.26-4.03.86-.69-.25-1.27-2.59-.91-3.67.97-2.98,2.27-5.88,3.78-8.64,4.61-8.45,9.26-16.89,14.18-25.17.94-1.59,3.22-3.43,4.75-3.32,1.38.1,3.26,2.51,3.76,4.23,3.14,10.82,5.95,21.73,8.87,32.61.13.48.23.97.54,2.24Zm-11.47-17.06c-.89-3.53-1.59-6.3-2.28-9.08-.51-.17-1.03-.34-1.54-.51-1.9,3.14-3.8,6.27-6.16,10.16,3.61-.21,6.34-.37,9.98-.58Z"/>
  <path class="cls-1" d="m569.33,844.33c-.16-2.88-.27-5.32-.44-7.75-.11-1.48-.88-3.18-.37-4.37.7-1.67,2.31-2.96,3.54-4.42,1.05,1.43,2.94,2.83,3.01,4.31.45,9.29.47,18.6.7,27.9.06,2.48.6,4.97.5,7.43-.08,1.88-.82,3.72-1.27,5.58-1.82-.6-3.64-1.21-6.08-2.02.31-.25-.24.12-.71.58-3.47,3.37-7.39,5.22-12.16,3.03-4.8-2.2-7.27-6.24-7.71-11.36-.89-10.2,6.99-18.77,17.21-18.92.98-.01,1.95,0,3.81,0Zm.1,14.32c-.09-6.8-.98-8.05-5.76-8.04-4.94,0-9.13,4.78-9.17,10.46-.03,4.95,2.93,8.01,7.6,7.84,4.97-.18,7.42-3.6,7.34-10.26Z"/>
  <path class="cls-1" d="m361.61,859.18c2.79,4.15,5.46,8.13,8.15,12.11.46.69,1.29,1.29,1.41,2.02.31,1.93.32,3.91.45,5.87-1.85-.8-4.17-1.16-5.46-2.5-2.16-2.24-3.63-5.13-5.47-7.69-.97-1.34-1.99-2.68-3.19-3.81-2.53-2.37-4.24-1.31-4.9,1.65-.55,2.42-.46,4.99-1.08,7.38-.25.98-1.74,2.42-2.48,2.31-1.19-.17-2.92-1.27-3.18-2.29-.52-2.03-.33-4.28-.19-6.43.62-9.6,1.28-19.2,2.03-28.8.19-2.43-.72-6.08,3.47-5.7,3.68.33,3.19,3.25,2.91,6.12-.59,6.03-.77,12.1-1.16,18.96,3.93-3.1,7.36-5.86,10.85-8.55,1.31-1.01,2.63-2.26,4.14-2.66,1.18-.31,2.66.51,4,.83-.32,1.18-.27,2.76-1.03,3.47-2.78,2.59-5.83,4.89-9.26,7.7Z"/>
  <path class="cls-1" d="m535.99,876.4c-5.87,4.44-8.97,4.87-14.37,1.47-5.25-3.31-6.98-8.34-5.39-15.67,2.11-9.74,8.06-13.15,18.06-13.89,7.31-.54,6.87,2.86,7.12,7.61.27,5.11,1.22,10.19,1.66,15.3.18,2.1-.18,4.25-.3,6.38-2.02-.35-4.04-.71-6.78-1.19Zm-.15-12.71c0-.66.21-1.41-.04-1.97-1.02-2.36-1.59-5.76-3.42-6.75-3.1-1.68-6.13.46-7.8,3.44-1.27,2.26-2.44,4.76-2.83,7.28-.64,4.23,2.64,7.76,6.87,8.08,4.72.36,7.2-3.14,7.21-10.08Z"/>
  <path class="cls-1" d="m271.02,857.22c-9.92,4.2-19.16-2.88-17.39-13.06.93-5.38,1.18-10.88,2.23-16.23.29-1.49,2.34-2.64,3.58-3.94.78,1.59,2.31,3.22,2.21,4.75-.34,4.95-1.47,9.84-1.92,14.79-.51,5.59,1.75,8.72,6.07,9.19,4.4.47,6.99-2.06,7.69-7.77.48-3.95.51-7.96,1.21-11.86.26-1.43,1.88-2.61,2.88-3.9,1.01,1.28,2.96,2.63,2.88,3.84-.58,8.93-1.49,17.83-2.5,26.73-.12,1.04-1.36,2.63-2.23,2.74-.95.12-2.26-1.02-3.08-1.92-.73-.8-1.01-2.02-1.62-3.34Z"/>
  <path class="cls-1" d="m331.12,870.67c-3.11.95-6.06,2.61-8.98,2.56-4.85-.07-8.87-4.28-8.91-9.74-.06-7.25.82-14.52,1.6-21.75.11-.98,2.01-1.77,3.09-2.65.91,1.21,2.61,2.43,2.6,3.64-.01,4.13-.64,8.25-.99,12.38-.14,1.65-.21,3.32-.28,4.98-.17,3.68.8,6.95,4.95,7.34,3.88.37,6.83-1.78,7.59-5.67.88-4.54,1.17-9.2,1.69-13.81.11-.99-.21-2.21.26-2.94.8-1.22,2.07-2.14,3.15-3.18.9,1.16,2.64,2.37,2.58,3.48-.46,9.1-1.05,18.21-2.07,27.27-.35,3.12-2.92,2.75-4.81,1.04-.86-.77-1.11-2.21-1.45-2.96Z"/>
  <path class="cls-1" d="m598.58,837.46c2.38,1.72,5.91,3,6.79,5.3.75,1.95-.92,5.71-2.68,7.53-2.7,2.79-6.49,4.51-9.65,6.91-1.17.89-2.78,2.68-2.53,3.59.34,1.2,2.53,2.92,3.56,2.7,3.39-.72,6.6-2.24,9.9-3.41,1.52-.54,3.07-1,4.61-1.49-.33,1.65-.24,3.55-1.07,4.91-3.46,5.71-12.03,8.47-17.97,6.04-5.83-2.39-8.34-8.79-6.44-16.48,2.09-8.49,8.36-14.69,15.48-15.59Zm2.28,8.86c-.21-.73-.42-1.46-.63-2.19-2.4.62-5.39.57-7.04,2.03-1.95,1.72-2.74,4.76-4.03,7.22.49.28.97.57,1.46.85l10.24-7.91Z"/>
  <path class="cls-1" d="m395.05,879.09c-3.06,2.55-7.29,4.01-11.99,1.34-4.83-2.75-5.79-7.36-5.52-12.42.28-5.3.47-10.62,1.1-15.88.17-1.43,1.8-2.69,2.75-4.03,1.01,1.33,2.85,2.65,2.87,3.99.06,4.95-.61,9.91-.75,14.87-.17,6.13,1.52,8.68,5.46,8.86,4.92.22,7.81-2.66,8.22-8.53.3-4.3.06-8.65.55-12.93.18-1.56,1.77-2.97,2.72-4.44,1.1,1.55,3.12,3.08,3.16,4.66.19,7.79-.05,15.6-.39,23.39-.07,1.58-1.21,3.11-1.86,4.67-1.8-1.01-3.6-2.02-6.33-3.55Z"/>
  <path class="cls-1" d="m660.21,820.5c3.44,4.33,6.85,8.63,10.77,13.57,2.58-6.52,4.9-12.45,7.29-18.34.61-1.52,1.09-3.36,2.23-4.34,1.06-.91,2.94-.87,4.46-1.24.09,1.31.62,2.77.21,3.89-5.26,14.45-10.58,28.87-16.15,43.2-.47,1.22-2.86,1.69-4.36,2.51-.31-1.57-1.42-3.61-.82-4.65,4.46-7.73,4.55-14.75-2.06-21.41-1.6-1.61-2.36-4.01-3.8-5.82-2.17-2.72-1.68-4.79,2.23-7.38Z"/>
  <path class="cls-1" d="m500.28,883c-5.66-.96-9.75-3.22-12.02-7.6-3.12-6.01-1.57-12.05,1.79-17.49,2.64-4.27,6.67-7.01,11.79-7.47,1.88-.17,4.16.07,5.68,1.03,1.24.78,1.63,2.92,2.4,4.45-1.37.29-2.83,1.04-4.1.8-7.29-1.41-14.69,6.58-12.49,13.66,1.87,6.01,8.03,7.44,14.28,3.48,1.29-.82,3.03-.91,4.57-1.34-.52,1.77-.5,4.34-1.68,5.17-3.13,2.18-6.78,3.6-10.22,5.32Z"/>
  <path class="cls-1" d="m303.92,849.68c-.49-1.55-1.04-2.86-1.3-4.21-.75-3.88-3.25-5.18-6.15-2.53-2.07,1.89-3.77,4.65-4.55,7.34-1.01,3.45-.69,7.27-1.43,10.83-.34,1.63-1.84,3.02-2.82,4.52-1.16-1.74-3.25-3.46-3.28-5.21-.07-4.1.85-8.22,1.39-12.33.39-2.96.53-5.98,1.29-8.84.54-2.02,1.96-3.8,2.98-5.69,1.46,1.34,2.91,2.69,4.35,4.01,2.63-.43,5.78-1.43,8.85-1.23,1.51.1,3.32,2.19,4.19,3.81,2.11,3.9,1.39,7.25-3.52,9.53Z"/>
  <path class="cls-1" d="m416.83,859.5c0,6.8.15,13.61-.14,20.4-.06,1.29-1.87,2.51-2.88,3.76-1.08-1.39-3.11-2.79-3.09-4.16.17-12.44.59-24.89,1.26-37.31.08-1.43,2.13-2.76,3.27-4.14,1.02,1.51,2.88,3.01,2.91,4.53.1,5.63-.4,11.28-.67,16.92-.22,0-.44,0-.66,0Z"/>
</svg>