<?xml version="1.0" encoding="utf-8"?>
<!-- Generator: Adobe Illustrator 27.3.1, SVG Export Plug-In . SVG Version: 6.00 Build 0)  -->
<svg version="1.1" xmlns="http://www.w3.org/2000/svg" xmlns:xlink="http://www.w3.org/1999/xlink" x="0px" y="0px"
	 viewBox="0 0 72.3 116.3" style="enable-background:new 0 0 72.3 116.3;" xml:space="preserve">
<style type="text/css">
	.st0{fill:url(#SVGID_1_);}
	.st1{fill:url(#SVGID_00000124133414032568099000000013774940197725062564_);}
	.st2{fill:url(#SVGID_00000011742717105407926380000004267770561464965798_);}
	.st3{fill:url(#SVGID_00000134957521765200366540000004609430136354085794_);}
	.st4{fill:url(#SVGID_00000039855749501270482780000001752561751120894612_);}
	.st5{fill:#FFFFFF;}
	.st6{font-family:'Poppins-Regular';}
	.st7{font-size:1.9524px;}
	.st8{font-family:'Montserrat-Light';}
	.st9{font-size:6.1542px;}
</style>
<g id="Clear_Area">
</g>
<g id="Logo">
	<g>
		<g>
			<g>
				<linearGradient id="SVGID_1_" gradientUnits="userSpaceOnUse" x1="35.3239" y1="13.7911" x2="8.8141" y2="27.2985">
					<stop  offset="0" style="stop-color:#DCDDDE"/>
					<stop  offset="0.71" style="stop-color:#EDEDEE"/>
					<stop  offset="1" style="stop-color:#FFFFFF"/>
				</linearGradient>
				<path class="st0" d="M7.7,31.2c1.9-0.5,4-0.8,6.1-0.8c3.7,0,7.3,0.8,10.4,2.3c5.2-2.4,9.4-6.7,11.9-11.9
					c-1.5-3.2-2.3-6.7-2.3-10.5c0-3.7,0.8-7.3,2.3-10.4c0,0,0,0,0,0L7.7,16.4V31.2z"/>
				
					<linearGradient id="SVGID_00000062891479648748934200000005447136820136210861_" gradientUnits="userSpaceOnUse" x1="62.5124" y1="26.8106" x2="36.5489" y2="13.5815">
					<stop  offset="0" style="stop-color:#DCDDDE"/>
					<stop  offset="0.71" style="stop-color:#EDEDEE"/>
					<stop  offset="1" style="stop-color:#FFFFFF"/>
				</linearGradient>
				<path style="fill:url(#SVGID_00000062891479648748934200000005447136820136210861_);" d="M38.5,10.5c0,3.7-0.8,7.3-2.3,10.5
					c2.4,5.2,6.7,9.4,11.9,11.9c3.2-1.5,6.7-2.3,10.4-2.3c2.1,0,4.1,0.3,6.1,0.8V16.4L36.1,0c0,0,0,0,0,0
					C37.6,3.2,38.5,6.7,38.5,10.5z"/>
				
					<linearGradient id="SVGID_00000114775570061481802360000004726170103674160778_" gradientUnits="userSpaceOnUse" x1="9.9966" y1="37.9651" x2="35.5502" y2="52.1297">
					<stop  offset="0" style="stop-color:#DCDDDE"/>
					<stop  offset="0.71" style="stop-color:#EDEDEE"/>
					<stop  offset="1" style="stop-color:#FFFFFF"/>
				</linearGradient>
				<path style="fill:url(#SVGID_00000114775570061481802360000004726170103674160778_);" d="M33.8,55.1c0-3.7,0.8-7.3,2.3-10.5
					c-2.4-5.2-6.7-9.4-11.9-11.9c-3.2,1.5-6.7,2.3-10.4,2.3c-2.1,0-4.1-0.3-6.1-0.8v14.8l28.4,16.4c0,0,0,0,0,0
					C34.7,62.4,33.8,58.9,33.8,55.1z"/>
				
					<linearGradient id="SVGID_00000067197878065173200580000003219183661110733747_" gradientUnits="userSpaceOnUse" x1="37.3418" y1="51.7923" x2="62.8606" y2="37.6471">
					<stop  offset="0" style="stop-color:#DCDDDE"/>
					<stop  offset="0.71" style="stop-color:#EDEDEE"/>
					<stop  offset="1" style="stop-color:#FFFFFF"/>
				</linearGradient>
				<path style="fill:url(#SVGID_00000067197878065173200580000003219183661110733747_);" d="M64.5,34.4c-1.9,0.5-4,0.8-6.1,0.8
					c-3.7,0-7.3-0.8-10.4-2.3c-5.2,2.4-9.4,6.7-11.9,11.9c1.5,3.2,2.3,6.7,2.3,10.5c0,3.7-0.8,7.3-2.3,10.4c0,0,0,0,0,0l28.4-16.4
					V34.4z"/>
				
					<linearGradient id="SVGID_00000010292881731930508550000012529448253312002482_" gradientUnits="userSpaceOnUse" x1="7.7378" y1="32.7944" x2="64.5444" y2="32.7944">
					<stop  offset="0" style="stop-color:#DCDDDE"/>
					<stop  offset="0.71" style="stop-color:#EDEDEE"/>
					<stop  offset="1" style="stop-color:#FFFFFF"/>
				</linearGradient>
				<path style="fill:url(#SVGID_00000010292881731930508550000012529448253312002482_);" d="M38.5,10.5c0,3.7-0.8,7.3-2.3,10.5
					c-1.5-3.2-2.3-6.7-2.3-10.5c0-3.7,0.8-7.3,2.3-10.4C37.6,3.2,38.5,6.7,38.5,10.5z M7.7,31.2v3.1c1.9,0.5,4,0.8,6.1,0.8
					c3.7,0,7.3-0.8,10.4-2.3c-3.2-1.5-6.7-2.3-10.4-2.3C11.7,30.5,9.7,30.7,7.7,31.2z M58.5,30.5c-3.7,0-7.3,0.8-10.4,2.3
					c3.2,1.5,6.7,2.3,10.4,2.3c2.1,0,4.1-0.3,6.1-0.8v-3.1C62.6,30.7,60.6,30.5,58.5,30.5z M36.1,65.6c1.5-3.2,2.3-6.7,2.3-10.4
					c0-3.7-0.8-7.3-2.3-10.5c-1.5,3.2-2.3,6.7-2.3,10.5C33.8,58.9,34.7,62.4,36.1,65.6z"/>
			</g>
		</g>
		<g>
			<g>
				<g>
					<g>
						<g>
							<path class="st5" d="M4.5,99.4c1.6-0.3,2.6-1.2,2.6-2.6v-0.1c0-1.6-1.3-2.6-3.3-2.6H0v9.1h0.8v-3.6h2.8l2.8,3.6l0,0h1
								L4.5,99.4z M0.8,98.8v-4h3c1.6,0,2.5,0.7,2.5,1.9v0.1c0,1.2-1,2-2.5,2H0.8z"/>
							<polygon class="st5" points="11,102.4 11,99 16.1,99 16.1,98.2 11,98.2 11,94.8 16.7,94.8 16.7,94.1 10.2,94.1 10.2,103.2 
								16.7,103.2 16.7,102.4 							"/>
							<path class="st5" d="M23.5,98.2V99h3v2.7c-0.6,0.5-1.6,1-2.8,1c-2.3,0-3.8-1.6-3.8-4v0c0-2.2,1.6-3.9,3.6-3.9
								c1.4,0,2.2,0.5,2.8,1.1l0.1,0l0.5-0.6l-0.1,0c-1-0.8-2-1.2-3.3-1.2c-2.8,0-4.5,2.4-4.5,4.7v0c0,2.8,1.9,4.7,4.6,4.7
								c1.8,0,3.1-1,3.6-1.4l0,0v-3.8H23.5z"/>
							<polygon class="st5" points="31.4,102.4 31.4,99 36.5,99 36.5,98.2 31.4,98.2 31.4,94.8 37.1,94.8 37.1,94.1 30.6,94.1 
								30.6,103.2 37.1,103.2 37.1,102.4 							"/>
							<polygon class="st5" points="47.3,94.1 47.3,101.8 41.2,94.1 41.2,94.1 40.5,94.1 40.5,103.2 41.2,103.2 41.2,95.3 
								47.4,103.2 47.5,103.2 48.1,103.2 48.1,94.1 							"/>
							<path class="st5" d="M58.3,101.2L58.3,101.2c-1,1-1.9,1.4-3.1,1.4c-2.1,0-3.7-1.7-3.7-4v0c0-2.3,1.6-3.9,3.7-3.9
								c1.4,0,2.3,0.7,3,1.3l0,0l0.6-0.6l0,0c-1-0.9-1.9-1.5-3.5-1.5c-2.6,0-4.6,2.1-4.6,4.7v0c0,2.7,1.9,4.7,4.5,4.7
								c1.8,0,2.8-0.8,3.6-1.6l0,0L58.3,101.2z"/>
						</g>
					</g>
					<polygon class="st5" points="67.6,94.1 64.4,98.9 61,94.1 61,94.1 60,94.1 63.9,99.6 63.9,103.2 64.7,103.2 64.7,99.6 
						68.6,94.1 					"/>
				</g>
				<polygon class="st5" points="2.3,82.2 2.3,88.1 0,88.1 0,75.2 2.3,75.2 2.3,80.1 8.4,80.1 8.4,75.2 10.7,75.2 10.7,88.1 
					8.4,88.1 8.4,82.2 				"/>
				<polygon class="st5" points="51,88.1 48.7,88.1 48.7,77.3 44.3,77.3 44.3,75.2 55.3,75.2 55.3,77.3 51,77.3 				"/>
				<polygon class="st5" points="65.3,88.1 63,88.1 63,77.3 58.6,77.3 58.6,75.2 69.6,75.2 69.6,77.3 65.3,77.3 				"/>
				<path class="st5" d="M21.3,81.2c0,0,0-0.2,0.1-0.3c0.2-0.5,3.5-5.7,3.5-5.7h2.7L22.5,83v5.1h-2.3V83L15,75.2h2.7
					c0,0,3.3,5.2,3.5,5.7C21.3,81.1,21.3,81.2,21.3,81.2L21.3,81.2z"/>
				<path class="st5" d="M40,88.1h2.4l-5.7-13h-2.1l-5.7,13h2.3l1.5-3.6h5.7L40,88.1z M33.6,82.4l1.9-4.6l1.9,4.6H33.6z"/>
			</g>
			<text transform="matrix(1.0817 0 0 1 69.3217 94.3929)" class="st5 st6 st7">TM</text>
			<text transform="matrix(1 0 0 1 10.7104 113.4847)" class="st5 st8 st9">KATHMANDU</text>
		</g>
	</g>
</g>
</svg>
