<svg width="419" height="659" viewBox="0 0 419 659" fill="none" xmlns="http://www.w3.org/2000/svg">
<g clip-path="url(#clip0_3260_255)">
<mask id="mask0_3260_255" style="mask-type:luminance" maskUnits="userSpaceOnUse" x="44" y="0" width="166" height="191">
<path d="M44.8906 181.21C56.1706 178.34 67.9706 176.78 80.1406 176.78C101.791 176.78 122.301 181.67 140.691 190.25C171.001 176.08 195.481 151.58 209.681 121.32C201.051 102.9 196.211 82.36 196.211 60.67C196.211 38.98 201.031 18.47 209.671 0.07C209.671 0.01 209.661 0.01 209.661 0L44.8906 95.13V181.21Z" fill="white"/>
</mask>
<g mask="url(#mask0_3260_255)">
<path d="M209.671 89.32L172.631 16.62L205.251 0H209.671V89.32Z" fill="#DCDDDE"/>
<path d="M209.67 102.809L167.17 19.3991L172.63 16.6191L209.67 89.3191V102.809Z" fill="#DCDDDE"/>
<path d="M209.671 116.31L161.711 22.1804L167.171 19.4004L209.671 102.81V116.31Z" fill="#DDDEDF"/>
<path d="M209.67 129.81L156.25 24.9697L161.71 22.1797L209.67 116.31V129.81Z" fill="#DEDFE0"/>
<path d="M209.671 143.301L150.791 27.7507L156.251 24.9707L209.671 129.811V143.301Z" fill="#DEDFE1"/>
<path d="M209.67 156.8L145.33 30.53L150.79 27.75L209.67 143.3V156.8Z" fill="#DFE0E2"/>
<path d="M209.671 158.609L204.941 161.019L139.871 33.3093L145.331 30.5293L209.671 156.799V158.609Z" fill="#E0E1E2"/>
<path d="M139.87 33.3069L134.408 36.0898L199.479 163.798L204.941 161.015L139.87 33.3069Z" fill="#E1E2E3"/>
<path d="M134.407 36.092L128.945 38.875L194.016 166.583L199.478 163.8L134.407 36.092Z" fill="#E2E3E4"/>
<path d="M128.946 38.8694L123.484 41.6523L188.555 169.36L194.017 166.577L128.946 38.8694Z" fill="#E3E4E5"/>
<path d="M123.497 41.6623L118.035 44.4453L183.106 172.153L188.567 169.37L123.497 41.6623Z" fill="#E4E5E6"/>
<path d="M118.034 44.4397L112.572 47.2227L177.643 174.931L183.105 172.148L118.034 44.4397Z" fill="#E5E6E7"/>
<path d="M112.571 47.2151L107.109 49.998L172.18 177.706L177.642 174.923L112.571 47.2151Z" fill="#E6E6E7"/>
<path d="M107.108 50.0002L101.646 52.7832L166.717 180.491L172.179 177.708L107.108 50.0002Z" fill="#E6E7E8"/>
<path d="M101.655 52.7756L96.1934 55.5586L161.264 183.267L166.726 180.484L101.655 52.7756Z" fill="#E7E8E9"/>
<path d="M96.1982 55.5706L90.7363 58.3535L155.807 186.061L161.269 183.279L96.1982 55.5706Z" fill="#E8E9EA"/>
<path d="M90.7353 58.3459L85.2734 61.1289L150.344 188.837L155.806 186.054L90.7353 58.3459Z" fill="#E9EAEB"/>
<path d="M150.341 188.831L147.581 190.241H144.181L79.8105 63.9109L85.2705 61.1309L150.341 188.831Z" fill="#EAEBEC"/>
<path d="M137.312 190.24L74.3516 66.6902L79.8116 63.9102L144.182 190.24H137.312Z" fill="#EBECEC"/>
<path d="M130.43 190.239L68.9004 69.4695L74.3504 66.6895L137.31 190.239H130.43Z" fill="#ECEDED"/>
<path d="M123.551 190.241L63.4414 72.2607L68.9014 69.4707L130.431 190.241H123.551Z" fill="#EDEDEE"/>
<path d="M120.431 190.24L60.9609 73.5198L63.4409 72.2598L123.551 190.24H120.431Z" fill="#EDEDEE"/>
<path d="M117.31 190.24L58.4805 74.7795L60.9605 73.5195L120.43 190.24H117.31Z" fill="#EEEEEF"/>
<path d="M114.19 190.239L56 76.0393L58.48 74.7793L117.31 190.239H114.19Z" fill="#EFEFF0"/>
<path d="M111.071 190.239L53.5215 77.3091L56.0015 76.0391L114.191 190.239H111.071Z" fill="#EFF0F1"/>
<path d="M107.951 190.241L51.0508 78.5705L53.5208 77.3105L111.071 190.241H107.951Z" fill="#F0F1F1"/>
<path d="M104.83 190.24L48.5703 79.8303L51.0503 78.5703L107.95 190.24H104.83Z" fill="#F1F2F2"/>
<path d="M101.71 190.24L46.0898 81.0901L48.5698 79.8301L104.83 190.24H101.71Z" fill="#F2F3F3"/>
<path d="M98.5906 190.24L44.8906 84.8598V81.7098L46.0906 81.0898L101.711 190.24H98.5906Z" fill="#F3F3F4"/>
<path d="M95.4606 190.239L44.8906 90.9794V84.8594L98.5906 190.239H95.4606Z" fill="#F4F4F5"/>
<path d="M92.3406 190.24L44.8906 97.1105V90.9805L95.4606 190.24H92.3406Z" fill="#F5F5F6"/>
<path d="M89.2206 190.239L44.8906 103.229V97.1094L92.3406 190.239H89.2206Z" fill="#F6F6F6"/>
<path d="M86.1006 190.24L44.8906 109.36V103.23L89.2206 190.24H86.1006Z" fill="#F7F7F7"/>
<path d="M82.9806 190.239L44.8906 115.479V109.359L86.1006 190.239H82.9806Z" fill="#F8F8F8"/>
<path d="M79.8606 190.24L44.8906 121.61V115.48L82.9806 190.24H79.8606Z" fill="#F9F9F9"/>
<path d="M76.7406 190.239L44.8906 127.729V121.609L79.8606 190.239H76.7406Z" fill="#FAFAFB"/>
<path d="M73.6206 190.24L44.8906 133.86V127.73L76.7406 190.24H73.6206Z" fill="#FCFCFC"/>
<path d="M70.5006 190.239L44.8906 139.989V133.859L73.6206 190.239H70.5006Z" fill="#FDFDFD"/>
<path d="M67.3806 190.24L44.8906 146.11V139.99L70.5006 190.24H67.3806Z" fill="white"/>
<path d="M44.8906 146.109L67.3806 190.239H44.8906V146.109Z" fill="white"/>
</g>
<mask id="mask1_3260_255" style="mask-type:luminance" maskUnits="userSpaceOnUse" x="209" y="0" width="166" height="191">
<path d="M223.13 60.67C223.13 82.36 218.28 102.89 209.66 121.32C223.87 151.58 248.34 176.07 278.64 190.25C297.03 181.67 317.55 176.78 339.21 176.78C351.35 176.78 363.17 178.34 374.43 181.18V95.14L209.7 0L209.67 0.07C218.29 18.47 223.14 38.98 223.14 60.67H223.13Z" fill="white"/>
</mask>
<g mask="url(#mask1_3260_255)">
<path d="M344.959 190.24L374.439 132.4V190.24H344.959Z" fill="#DCDDDE"/>
<path d="M338.23 190.24L374.44 119.18V132.4L344.96 190.24H338.23Z" fill="#DCDDDE"/>
<path d="M331.49 190.241L374.44 105.961V119.181L338.23 190.241H331.49Z" fill="#DDDEDF"/>
<path d="M324.76 190.24L374.44 92.7402V105.96L331.49 190.24H324.76Z" fill="#DEDFE0"/>
<path d="M318.02 190.24L373.56 81.25L374.44 81.69V92.74L324.76 190.24H318.02Z" fill="#DEDFE1"/>
<path d="M311.289 190.24L368.209 78.5195L373.559 81.2495L318.019 190.24H311.289Z" fill="#DFE0E2"/>
<path d="M304.551 190.241L362.861 75.8008L368.211 78.5208L311.291 190.241H304.551Z" fill="#E0E1E2"/>
<path d="M297.82 190.24L357.52 73.0703L362.86 75.8003L304.55 190.24H297.82Z" fill="#E1E2E3"/>
<path d="M291.08 190.24L352.17 70.3496L357.52 73.0696L297.82 190.24H291.08Z" fill="#E2E3E4"/>
<path d="M284.35 190.241L346.82 67.6309L352.17 70.3509L291.08 190.241H284.35Z" fill="#E3E4E5"/>
<path d="M277.609 190.24L341.479 64.9004L346.819 67.6304L284.349 190.24H277.609Z" fill="#E4E5E6"/>
<path d="M271.761 190.24L271.061 189.89L336.131 62.1797L341.481 64.8997L277.611 190.24H271.761Z" fill="#E5E6E7"/>
<path d="M330.776 59.4561L265.705 187.164L271.051 189.888L336.122 62.1801L330.776 59.4561Z" fill="#E6E6E7"/>
<path d="M325.43 56.7237L260.359 184.432L265.705 187.156L330.776 59.4476L325.43 56.7237Z" fill="#E6E7E8"/>
<path d="M320.088 54.0069L255.018 181.715L260.364 184.439L325.434 56.7308L320.088 54.0069Z" fill="#E7E8E9"/>
<path d="M314.744 51.2881L249.674 178.996L255.02 181.72L320.09 54.0121L314.744 51.2881Z" fill="#E8E9EA"/>
<path d="M309.399 48.5576L244.328 176.266L249.674 178.99L314.745 51.2816L309.399 48.5576Z" fill="#E9EAEB"/>
<path d="M304.045 45.8291L238.975 173.537L244.321 176.261L309.391 48.5531L304.045 45.8291Z" fill="#EAEBEC"/>
<path d="M298.695 43.1065L233.625 170.814L238.971 173.538L304.041 45.8304L298.695 43.1065Z" fill="#EBECEC"/>
<path d="M293.358 40.3799L228.287 168.088L233.633 170.812L298.704 43.1039L293.358 40.3799Z" fill="#ECEDED"/>
<path d="M288.006 37.6573L222.936 165.365L228.282 168.089L293.352 40.3812L288.006 37.6573Z" fill="#EDEDEE"/>
<path d="M285.576 36.419L220.506 164.127L222.929 165.362L288 37.6538L285.576 36.419Z" fill="#EDEDEE"/>
<path d="M283.156 35.1963L218.086 162.904L220.509 164.139L285.58 36.4312L283.156 35.1963Z" fill="#EEEEEF"/>
<path d="M280.723 33.9483L215.652 161.656L218.076 162.891L283.146 35.1831L280.723 33.9483Z" fill="#EFEFF0"/>
<path d="M278.295 32.7119L213.225 160.42L215.648 161.655L280.719 33.9468L278.295 32.7119Z" fill="#EFF0F1"/>
<path d="M275.877 31.4776L210.807 159.186L213.23 160.42L278.301 32.7124L275.877 31.4776Z" fill="#F0F1F1"/>
<path d="M210.8 159.18L209.67 158.61V155.41L273.45 30.2402L275.87 31.4702L210.8 159.18Z" fill="#F1F2F2"/>
<path d="M209.67 149.42L271.02 29L273.45 30.24L209.67 155.41V149.42Z" fill="#F2F3F3"/>
<path d="M209.67 143.42L268.59 27.7598L271.02 28.9998L209.67 149.42V143.42Z" fill="#F3F3F4"/>
<path d="M209.67 137.419L266.17 26.5293L268.59 27.7593L209.67 143.419V137.419Z" fill="#F4F4F5"/>
<path d="M209.67 131.419L263.74 25.2891L266.17 26.5291L209.67 137.419V131.419Z" fill="#F5F5F6"/>
<path d="M209.67 125.421L261.31 24.0605L263.74 25.2905L209.67 131.421V125.421Z" fill="#F6F6F6"/>
<path d="M209.67 119.42L258.89 22.8203L261.31 24.0603L209.67 125.42V119.42Z" fill="#F7F7F7"/>
<path d="M209.67 113.42L256.46 21.5801L258.89 22.8201L209.67 119.42V113.42Z" fill="#F8F8F8"/>
<path d="M209.67 107.42L254.03 20.3496L256.46 21.5796L209.67 113.42V107.42Z" fill="#F9F9F9"/>
<path d="M209.67 101.419L251.61 19.1094L254.03 20.3494L209.67 107.419V101.419Z" fill="#FAFAFB"/>
<path d="M209.67 95.4191L249.18 17.8691L251.61 19.1091L209.67 101.419V95.4191Z" fill="#FCFCFC"/>
<path d="M209.67 89.4306L246.75 16.6406L249.18 17.8706L209.67 95.4206V89.4306Z" fill="#FDFDFD"/>
<path d="M209.67 83.4304L244.33 15.4004L246.75 16.6404L209.67 89.4304V83.4304Z" fill="white"/>
<path d="M214.1 0L244.33 15.4L209.67 83.43V0H214.1Z" fill="white"/>
</g>
<mask id="mask2_3260_255" style="mask-type:luminance" maskUnits="userSpaceOnUse" x="44" y="190" width="166" height="191">
<path d="M196.201 319.82C196.201 298.17 201.041 277.6 209.671 259.19C195.481 228.89 170.991 204.44 140.681 190.25C122.301 198.86 101.781 203.71 80.1309 203.71C67.9609 203.71 56.1709 202.17 44.8809 199.34V285.4L209.621 380.53C209.621 380.53 209.661 380.47 209.661 380.44C201.031 362.05 196.191 341.5 196.191 319.83L196.201 319.82Z" fill="white"/>
</mask>
<g mask="url(#mask2_3260_255)">
<path d="M74.6206 190.24L44.8906 243.88V190.24H74.6206Z" fill="#DCDDDE"/>
<path d="M81.5006 190.24L44.8906 256.29V243.88L74.6206 190.24H81.5006Z" fill="#DCDDDE"/>
<path d="M88.3806 190.24L44.8906 268.71V256.29L81.5006 190.24H88.3806Z" fill="#DDDEDF"/>
<path d="M95.2606 190.24L44.8906 281.12V268.71L88.3806 190.24H95.2606Z" fill="#DEDFE0"/>
<path d="M102.141 190.24L45.7606 291.96L44.8906 291.48V281.12L95.2606 190.24H102.141Z" fill="#DEDFE1"/>
<path d="M109.02 190.24L51.0198 294.88L45.7598 291.96L102.14 190.24H109.02Z" fill="#DFE0E2"/>
<path d="M115.901 190.24L56.2815 297.8L51.0215 294.88L109.021 190.24H115.901Z" fill="#E0E1E2"/>
<path d="M122.781 190.24L61.5413 300.71L56.2812 297.8L115.901 190.24H122.781Z" fill="#E1E2E3"/>
<path d="M129.661 190.24L66.811 303.63L61.541 300.71L122.781 190.24H129.661Z" fill="#E2E3E4"/>
<path d="M136.541 190.24L72.0705 306.55L66.8105 303.63L129.661 190.24H136.541Z" fill="#E3E4E5"/>
<path d="M143.42 190.24L77.3303 309.47L72.0703 306.55L136.54 190.24H143.42Z" fill="#E4E5E6"/>
<path d="M149.51 190.24L150.11 190.58L82.5901 312.38L77.3301 309.47L143.42 190.24H149.51Z" fill="#E5E6E7"/>
<path d="M150.109 190.578L82.5898 312.387L87.8551 315.305L155.374 193.497L150.109 190.578Z" fill="#E6E6E7"/>
<path d="M155.373 193.492L87.8535 315.301L93.1187 318.219L160.638 196.411L155.373 193.492Z" fill="#E6E7E8"/>
<path d="M160.633 196.405L93.1133 318.213L98.3785 321.131L165.898 199.323L160.633 196.405Z" fill="#E7E8E9"/>
<path d="M165.896 199.33L98.377 321.139L103.642 324.057L171.162 202.249L165.896 199.33Z" fill="#E8E9EA"/>
<path d="M171.162 202.244L103.643 324.053L108.908 326.971L176.427 205.163L171.162 202.244Z" fill="#E9EAEB"/>
<path d="M176.426 205.17L108.906 326.979L114.171 329.897L181.691 208.089L176.426 205.17Z" fill="#EAEBEC"/>
<path d="M181.685 208.073L114.166 329.881L119.431 332.799L186.951 210.991L181.685 208.073Z" fill="#EBECEC"/>
<path d="M186.949 210.996L119.43 332.805L124.695 335.723L192.214 213.915L186.949 210.996Z" fill="#ECEDED"/>
<path d="M192.213 213.912L124.693 335.721L129.959 338.639L197.478 216.831L192.213 213.912Z" fill="#EDEDEE"/>
<path d="M197.478 216.825L129.959 338.633L132.347 339.956L199.866 218.148L197.478 216.825Z" fill="#EDEDEE"/>
<path d="M199.871 218.149L132.352 339.957L134.739 341.281L202.259 219.472L199.871 218.149Z" fill="#EEEEEF"/>
<path d="M202.248 219.477L134.729 341.285L137.116 342.609L204.636 220.8L202.248 219.477Z" fill="#EFEFF0"/>
<path d="M204.642 220.797L137.123 342.605L139.511 343.929L207.03 222.121L204.642 220.797Z" fill="#EFF0F1"/>
<path d="M207.033 222.131L139.514 343.939L141.901 345.263L209.421 223.455L207.033 222.131Z" fill="#F0F1F1"/>
<path d="M209.42 223.451L209.67 223.591V228.641L144.29 346.581L141.9 345.261L209.42 223.451Z" fill="#F1F2F2"/>
<path d="M209.671 234.271L146.681 347.901L144.291 346.581L209.671 228.641V234.271Z" fill="#F2F3F3"/>
<path d="M209.67 239.9L149.06 349.23L146.68 347.9L209.67 234.27V239.9Z" fill="#F3F3F4"/>
<path d="M209.671 245.53L151.451 350.55L149.061 349.23L209.671 239.9V245.53Z" fill="#F4F4F5"/>
<path d="M209.671 251.169L153.841 351.879L151.451 350.549L209.671 245.529V251.169Z" fill="#F5F5F6"/>
<path d="M209.67 256.8L156.23 353.2L153.84 351.88L209.67 251.17V256.8Z" fill="#F6F6F6"/>
<path d="M209.67 262.431L158.62 354.521L156.23 353.201L209.67 256.801V262.431Z" fill="#F7F7F7"/>
<path d="M209.671 268.06L161.011 355.85L158.621 354.52L209.671 262.43V268.06Z" fill="#F8F8F8"/>
<path d="M209.67 273.701L163.39 357.171L161.01 355.851L209.67 268.061V273.701Z" fill="#F9F9F9"/>
<path d="M209.671 279.331L165.781 358.501L163.391 357.171L209.671 273.701V279.331Z" fill="#FAFAFB"/>
<path d="M209.671 284.96L168.171 359.82L165.781 358.5L209.671 279.33V284.96Z" fill="#FCFCFC"/>
<path d="M209.67 290.591L170.56 361.141L168.17 359.821L209.67 284.961V290.591Z" fill="#FDFDFD"/>
<path d="M209.671 296.23L172.951 362.47L170.561 361.14L209.671 290.59V296.23Z" fill="white"/>
<path d="M205.501 380.51L172.951 362.47L209.671 296.23V380.51H205.501Z" fill="white"/>
</g>
<mask id="mask3_3260_255" style="mask-type:luminance" maskUnits="userSpaceOnUse" x="209" y="190" width="166" height="191">
<path d="M374.44 199.34C363.18 202.16 351.36 203.72 339.22 203.72C317.56 203.72 297.04 198.88 278.65 190.24C248.35 204.43 223.88 228.89 209.67 259.18C218.29 277.59 223.14 298.16 223.14 319.81C223.14 341.46 218.29 362.03 209.67 380.42C209.67 380.45 209.7 380.48 209.72 380.51L374.45 285.38V199.34H374.44Z" fill="white"/>
</mask>
<g mask="url(#mask3_3260_255)">
<path d="M209.67 287.9L249.92 360.51L213.84 380.51H209.67V287.9Z" fill="#DCDDDE"/>
<path d="M209.67 275.5L255.17 357.6L249.92 360.51L209.67 287.9V275.5Z" fill="#DCDDDE"/>
<path d="M209.67 263.109L260.43 354.689L255.17 357.599L209.67 275.499V263.109Z" fill="#DDDEDF"/>
<path d="M209.67 250.721L265.68 351.771L260.43 354.691L209.67 263.111V250.721Z" fill="#DEDFE0"/>
<path d="M209.67 238.32L270.94 348.86L265.68 351.77L209.67 250.72V238.32Z" fill="#DEDFE1"/>
<path d="M209.67 225.93L276.19 345.95L270.94 348.86L209.67 238.32V225.93Z" fill="#DFE0E2"/>
<path d="M209.67 223.59L213.93 221.23L281.45 343.03L276.19 345.95L209.67 225.93V223.59Z" fill="#E0E1E2"/>
<path d="M219.182 218.319L213.926 221.232L281.445 343.041L286.702 340.127L219.182 218.319Z" fill="#E1E2E3"/>
<path d="M224.442 215.403L219.186 218.316L286.705 340.125L291.961 337.211L224.442 215.403Z" fill="#E2E3E4"/>
<path d="M229.688 212.483L224.432 215.396L291.951 337.205L297.208 334.291L229.688 212.483Z" fill="#E3E4E5"/>
<path d="M234.958 209.578L229.701 212.492L297.221 334.3L302.477 331.387L234.958 209.578Z" fill="#E4E5E6"/>
<path d="M240.21 206.668L234.953 209.582L302.473 331.39L307.729 328.477L240.21 206.668Z" fill="#E5E6E7"/>
<path d="M245.464 203.744L240.207 206.658L307.726 328.466L312.983 325.553L245.464 203.744Z" fill="#E6E6E7"/>
<path d="M250.723 200.828L245.467 203.742L312.986 325.55L318.243 322.637L250.723 200.828Z" fill="#E6E7E8"/>
<path d="M255.975 197.928L250.719 200.842L318.238 322.65L323.495 319.736L255.975 197.928Z" fill="#E7E8E9"/>
<path d="M261.229 195.004L255.973 197.918L323.492 319.726L328.749 316.813L261.229 195.004Z" fill="#E8E9EA"/>
<path d="M266.481 192.094L261.225 195.008L328.744 316.816L334.001 313.902L266.481 192.094Z" fill="#E9EAEB"/>
<path d="M266.48 192.09L269.82 190.24H272.33L339.26 310.99L334 313.9L266.48 192.09Z" fill="#EAEBEC"/>
<path d="M279.2 190.24L344.51 308.08L339.26 310.99L272.33 190.24H279.2Z" fill="#EBECEC"/>
<path d="M286.069 190.24L349.769 305.16L344.509 308.08L279.199 190.24H286.069Z" fill="#ECEDED"/>
<path d="M292.94 190.24L355.03 302.25L349.77 305.16L286.07 190.24H292.94Z" fill="#EDEDEE"/>
<path d="M296.059 190.24L357.409 300.93L355.029 302.25L292.939 190.24H296.059Z" fill="#EDEDEE"/>
<path d="M299.171 190.24L359.801 299.61L357.411 300.93L296.061 190.24H299.171Z" fill="#EEEEEF"/>
<path d="M302.29 190.24L362.18 298.28L359.8 299.61L299.17 190.24H302.29Z" fill="#EFEFF0"/>
<path d="M305.409 190.24L364.569 296.96L362.179 298.28L302.289 190.24H305.409Z" fill="#EFF0F1"/>
<path d="M308.53 190.24L366.95 295.64L364.57 296.96L305.41 190.24H308.53Z" fill="#F0F1F1"/>
<path d="M311.649 190.24L369.339 294.32L366.949 295.64L308.529 190.24H311.649Z" fill="#F1F2F2"/>
<path d="M314.76 190.24L371.72 293L369.34 294.32L311.65 190.24H314.76Z" fill="#F2F3F3"/>
<path d="M317.88 190.24L374.11 291.67L371.72 293L314.76 190.24H317.88Z" fill="#F3F3F4"/>
<path d="M321.001 190.24L374.441 286.65V291.49L374.111 291.67L317.881 190.24H321.001Z" fill="#F4F4F5"/>
<path d="M324.12 190.24L374.44 281.02V286.65L321 190.24H324.12Z" fill="#F5F5F6"/>
<path d="M327.239 190.24L374.439 275.4V281.02L324.119 190.24H327.239Z" fill="#F6F6F6"/>
<path d="M330.35 190.24L374.44 269.77V275.4L327.24 190.24H330.35Z" fill="#F7F7F7"/>
<path d="M333.47 190.24L374.44 264.15V269.77L330.35 190.24H333.47Z" fill="#F8F8F8"/>
<path d="M336.591 190.24L374.441 258.52V264.15L333.471 190.24H336.591Z" fill="#F9F9F9"/>
<path d="M339.71 190.24L374.44 252.9V258.52L336.59 190.24H339.71Z" fill="#FAFAFB"/>
<path d="M342.829 190.24L374.439 247.27V252.9L339.709 190.24H342.829Z" fill="#FCFCFC"/>
<path d="M345.94 190.24L374.44 241.65V247.27L342.83 190.24H345.94Z" fill="#FDFDFD"/>
<path d="M349.059 190.24L374.439 236.02V241.65L345.939 190.24H349.059Z" fill="white"/>
<path d="M374.441 236.02L349.061 190.24H374.441V236.02Z" fill="white"/>
</g>
<mask id="mask4_3260_255" style="mask-type:luminance" maskUnits="userSpaceOnUse" x="44" y="0" width="331" height="381">
<path d="M223.131 60.6703C223.131 82.3603 218.281 102.89 209.661 121.32C201.031 102.9 196.191 82.3603 196.191 60.6703C196.191 38.9803 201.031 18.4703 209.671 0.0703125C218.291 18.4703 223.141 38.9803 223.141 60.6703H223.131ZM44.8906 181.21V199.33C56.1706 202.16 67.9706 203.7 80.1406 203.7C101.791 203.7 122.301 198.85 140.691 190.24C122.311 181.66 101.791 176.77 80.1406 176.77C67.9706 176.77 56.1806 178.33 44.8906 181.2V181.21ZM339.211 176.78C317.551 176.78 297.031 181.67 278.641 190.25C297.031 198.89 317.551 203.73 339.211 203.73C351.351 203.73 363.171 202.17 374.431 199.35V181.18C363.171 178.34 351.351 176.78 339.211 176.78ZM209.661 380.43C218.281 362.04 223.131 341.5 223.131 319.82C223.131 298.14 218.281 277.6 209.661 259.19C201.031 277.6 196.191 298.17 196.191 319.82C196.191 341.47 201.031 362.04 209.661 380.43Z" fill="white"/>
</mask>
<g mask="url(#mask4_3260_255)">
<path d="M196.981 259.189H196.201V380.429H196.981V259.189Z" fill="#E6E7E8"/>
<path d="M208.68 259.189H196.98V380.429H208.68V259.189Z" fill="#E7E8E9"/>
<path d="M220.37 259.189H208.67V380.429H220.37V259.189Z" fill="#E8E9EA"/>
<path d="M223.131 259.189H220.371V380.429H223.131V259.189Z" fill="#E9EAEB"/>
<path d="M278.871 176.781H278.641V203.731H278.871V176.781Z" fill="#EDEDEE"/>
<path d="M284.181 176.781H278.871V203.731H284.181V176.781Z" fill="#EDEDEE"/>
<path d="M289.49 176.781H284.18V203.731H289.49V176.781Z" fill="#EEEEEF"/>
<path d="M294.8 176.781H289.49V203.731H294.8V176.781Z" fill="#EFEFF0"/>
<path d="M300.111 176.781H294.801V203.731H300.111V176.781Z" fill="#EFF0F1"/>
<path d="M305.421 176.781H300.111V203.731H305.421V176.781Z" fill="#F0F1F1"/>
<path d="M310.72 176.781H305.41V203.731H310.72V176.781Z" fill="#F1F2F2"/>
<path d="M316.031 176.781H310.721V203.731H316.031V176.781Z" fill="#F2F3F3"/>
<path d="M321.341 176.781H316.031V203.731H321.341V176.781Z" fill="#F3F3F4"/>
<path d="M326.65 176.781H321.34V203.731H326.65V176.781Z" fill="#F4F4F5"/>
<path d="M331.96 176.781H326.65V203.731H331.96V176.781Z" fill="#F5F5F6"/>
<path d="M337.271 176.781H331.961V203.731H337.271V176.781Z" fill="#F6F6F6"/>
<path d="M342.581 176.781H337.271V203.731H342.581V176.781Z" fill="#F7F7F7"/>
<path d="M347.89 176.781H342.58V203.731H347.89V176.781Z" fill="#F8F8F8"/>
<path d="M353.201 176.781H347.891V203.731H353.201V176.781Z" fill="#F9F9F9"/>
<path d="M358.511 176.781H353.201V203.731H358.511V176.781Z" fill="#FAFAFB"/>
<path d="M363.82 176.781H358.51V203.731H363.82V176.781Z" fill="#FCFCFC"/>
<path d="M369.13 176.781H363.82V203.731H369.13V176.781Z" fill="#FDFDFD"/>
<path d="M374.441 176.781H369.131V203.731H374.441V176.781Z" fill="white"/>
<path d="M56.5906 176.781H44.8906V203.701H56.5906V176.781Z" fill="#DCDDDE"/>
<path d="M68.2898 176.781H56.5898V203.701H68.2898V176.781Z" fill="#DDDEDF"/>
<path d="M79.991 176.781H68.291V203.701H79.991V176.781Z" fill="#DEDFE0"/>
<path d="M91.6902 176.781H79.9902V203.701H91.6902V176.781Z" fill="#DEDFE1"/>
<path d="M103.38 176.781H91.6797V203.701H103.38V176.781Z" fill="#DFE0E2"/>
<path d="M115.081 176.781H103.381V203.701H115.081V176.781Z" fill="#E0E1E2"/>
<path d="M126.78 176.781H115.08V203.701H126.78V176.781Z" fill="#E1E2E3"/>
<path d="M138.481 176.781H126.781V203.701H138.481V176.781Z" fill="#E2E3E4"/>
<path d="M140.68 176.781H138.48V203.701H140.68V176.781Z" fill="#E3E4E5"/>
<path d="M196.981 0.0703125H196.201V121.31H196.981V0.0703125Z" fill="#E6E7E8"/>
<path d="M208.68 0.0703125H196.98V121.31H208.68V0.0703125Z" fill="#E7E8E9"/>
<path d="M220.37 0.0703125H208.67V121.31H220.37V0.0703125Z" fill="#E8E9EA"/>
<path d="M223.131 0.0703125H220.371V121.31H223.131V0.0703125Z" fill="#E9EAEB"/>
</g>
<path d="M26.33 576.789C35.69 575.299 41.25 569.669 41.25 561.619V560.969C41.25 551.889 33.62 545.779 22.27 545.779H0V598.649H4.63V577.559H21.1L37.58 598.499L37.69 598.649H43.59L26.32 576.789H26.33ZM4.63 573.289V550.139H22.03C31.16 550.139 36.6 554.249 36.6 561.139V561.769C36.6 568.769 30.8 573.289 21.81 573.289H4.63Z" fill="white"/>
<path d="M63.5795 594.299V574.169H93.4295V569.819H63.5795V550.139H96.7895V545.789H58.9395V598.649H97.1595V594.299H63.5795Z" fill="white"/>
<path d="M136.411 569.748V574.108H153.831V589.608C150.441 592.408 144.441 595.358 137.641 595.358C124.511 595.358 115.691 586.058 115.691 572.228V572.068C115.691 559.228 124.971 549.168 136.811 549.168C145.131 549.168 149.811 552.278 153.301 555.318L153.601 555.578L156.641 552.088L156.321 551.838C150.371 546.908 144.781 544.898 137.031 544.898C120.671 544.898 110.891 558.788 110.891 572.228V572.368C110.891 588.378 121.831 599.548 137.481 599.548C148.151 599.548 155.511 594.018 158.191 591.628L158.321 591.518V569.758H136.411V569.748Z" fill="white"/>
<path d="M181.91 594.299V574.169H211.75V569.819H181.91V550.139H215.1V545.789H177.26V598.649H215.47V594.299H181.91Z" fill="white"/>
<path d="M274.32 545.789V590.379L239.06 545.929L238.96 545.789H234.73V598.649H239.22V553.099L275.22 598.509L275.33 598.649H278.82V545.789H274.32Z" fill="white"/>
<path d="M338.191 587.008L337.911 587.268C332.141 592.948 327.021 595.268 320.241 595.268C308.101 595.268 298.611 585.148 298.611 572.228V572.068C298.611 559.008 307.871 549.168 320.171 549.168C328.511 549.168 333.601 552.988 337.461 556.728L337.741 557.008L341.021 553.608L340.741 553.338C335.221 548.278 329.631 544.908 320.241 544.908C305.411 544.908 293.811 556.908 293.811 572.238V572.378C293.811 587.878 305.111 599.558 320.081 599.558C330.351 599.558 336.441 594.918 341.051 590.368L341.331 590.098L338.181 587.028L338.191 587.008Z" fill="white"/>
<path d="M392.321 545.789L373.311 573.479L354.141 545.949L354.031 545.789H348.221L370.921 577.789V598.649H375.571V577.699L397.891 545.789H392.321Z" fill="white"/>
<path d="M13.18 476.65V511.23H0V436.25H13.18V464.45H48.96V436.25H62.13V511.23H48.96V476.65H13.18Z" fill="white"/>
<path d="M295.749 511.23H282.459V448.45H256.869V436.25H321.079V448.45H295.749V511.23Z" fill="white"/>
<path d="M378.7 511.23H365.43V448.45H339.84V436.25H404.04V448.45H378.7V511.23Z" fill="white"/>
<path d="M123.68 471.038C123.68 471.038 123.81 470.148 124.24 469.128C125.49 466.218 144.53 436.238 144.53 436.238H160.06L130.3 481.648V511.228H116.76V481.648L86.9805 436.238H102.51C102.51 436.238 121.66 466.188 122.82 469.128C123.34 470.448 123.37 471.038 123.37 471.038H123.68Z" fill="white"/>
<path d="M231.801 511.219H245.751L212.761 435.699H200.541L167.551 511.219H181.031L189.981 490.189H222.881L231.811 511.219H231.801ZM195.161 477.959L206.421 451.449L217.691 477.959H195.161Z" fill="white"/>
<path d="M408.351 539.699V540.539H406.021V547.599H404.901V540.539H402.561V539.699H408.341H408.351Z" fill="white"/>
<path d="M418.391 539.76V547.6H417.271V541.76L414.451 547.6H413.671L410.841 541.74V547.6H409.721V539.76H410.921L414.061 546.24L417.201 539.76H418.391Z" fill="white"/>
<path d="M66.4902 658.35V633.36H68.3102V658.35H66.4902ZM68.0602 652.03L67.9902 649.74L83.9102 633.35H86.1202L74.9802 644.88L73.9402 645.99L68.0502 652.02L68.0602 652.03ZM84.6602 658.35L73.4102 645.5L74.6602 644.18L86.8702 658.35H84.6602Z" fill="white"/>
<path d="M89.3398 658.349L100.84 633.359H102.66L114.16 658.349H112.2L101.35 634.499H102.14L91.3198 658.349H89.3598H89.3398ZM93.5499 651.319L94.1599 649.779H109.12L109.73 651.319H93.5598H93.5499Z" fill="white"/>
<path d="M125.08 658.349V634.999H116.08V633.359H135.89V634.999H126.89V658.349H125.07H125.08Z" fill="white"/>
<path d="M143.25 658.349V633.359H145.07V658.349H143.25ZM144.86 646.459V644.849H162V646.459H144.86ZM161.78 658.349V633.359H163.6V658.349H161.78Z" fill="white"/>
<path d="M175.17 658.349V633.359H176.71L188.31 653.389H187.49L199.06 633.359H200.56L200.6 658.349H198.81L198.77 636.109H199.27L188.31 655.029H187.42L176.42 636.109H176.96V658.349H175.17Z" fill="white"/>
<path d="M207.98 658.349L219.48 633.359H221.3L232.8 658.349H230.84L219.99 634.499H220.78L209.96 658.349H208H207.98ZM212.19 651.319L212.8 649.779H227.76L228.37 651.319H212.2H212.19Z" fill="white"/>
<path d="M240.18 658.349V633.359H241.72L259.54 656.099H258.72V633.359H260.54V658.349H259.04L241.19 635.609H242.01V658.349H240.19H240.18Z" fill="white"/>
<path d="M272.1 658.349V633.359H281.99C284.63 633.359 286.95 633.899 288.95 634.969C290.95 636.039 292.5 637.519 293.61 639.399C294.72 641.279 295.27 643.429 295.27 645.859C295.27 648.289 294.72 650.439 293.61 652.319C292.5 654.199 290.95 655.679 288.95 656.749C286.95 657.819 284.63 658.359 281.99 658.359H272.1V658.349ZM273.92 656.709H281.85C284.21 656.709 286.25 656.249 287.99 655.319C289.73 654.389 291.07 653.109 292.02 651.479C292.97 649.849 293.45 647.979 293.45 645.859C293.45 643.739 292.97 641.869 292.02 640.239C291.07 638.609 289.72 637.329 287.99 636.399C286.25 635.469 284.21 635.009 281.85 635.009H273.92V656.719V656.709Z" fill="white"/>
<path d="M314.221 658.529C311.131 658.529 308.691 657.629 306.901 655.819C305.111 654.009 304.221 651.319 304.221 647.749V633.359H306.041V647.679C306.041 650.799 306.751 653.109 308.181 654.609C309.611 656.109 311.631 656.859 314.251 656.859C316.871 656.859 318.861 656.109 320.281 654.609C321.711 653.109 322.421 650.799 322.421 647.679V633.359H324.241V647.749C324.241 651.319 323.351 654.009 321.561 655.819C319.771 657.629 317.321 658.529 314.211 658.529H314.221Z" fill="white"/>
</g>
<defs>
<clipPath id="clip0_3260_255">
<rect width="418.39" height="658.53" fill="white"/>
</clipPath>
</defs>
</svg>
