<svg width="5746" height="602" viewBox="0 0 5746 602" fill="none" xmlns="http://www.w3.org/2000/svg">
<path d="M40.9117 106.163C39.1996 134.308 36.9168 158.84 36.3461 183.373C34.4437 267.048 32.9219 350.913 31.2097 434.589C31.2097 439.153 29.8781 446.95 27.405 447.52C19.7956 449.612 11.4253 449.612 3.24519 449.422C2.10378 449.422 -0.179045 444.287 0.0111899 441.625C4.00613 354.717 3.24519 267.809 13.3276 181.09C18.6542 135.069 18.0835 88.0968 19.0347 41.695C19.7956 5.9428 20.1761 4.80176 55.9403 4.99193C77.8173 4.99193 91.1338 16.0218 97.4115 37.5112C98.9334 43.0262 102.738 48.1608 105.592 53.2954C106.923 55.7676 109.396 57.8595 109.967 60.5219C112.821 71.9322 117.576 82.2015 123.664 92.4707C133.176 108.445 138.502 126.702 145.921 144.007C152.009 158.08 158.857 171.772 165.135 185.655C169.13 194.402 171.603 203.911 176.549 211.898C184.539 224.64 187.393 239.663 194.622 251.834C206.036 271.041 213.074 291.96 223.157 311.548C226.962 318.965 233.049 325.43 239.137 331.136C243.893 335.51 247.697 331.706 249.79 326.762C256.638 309.646 262.726 292.15 270.335 275.225C277.564 259.061 285.934 243.657 293.924 227.873C295.066 225.591 296.017 223.309 296.968 221.026C306.29 198.967 315.611 177.097 324.742 155.037C331.591 138.682 338.249 122.137 345.478 105.783C354.229 86.3852 363.55 67.1779 372.491 47.9706C374.013 44.7377 375.345 41.5048 376.296 38.0817C383.145 12.9791 392.656 5.1821 418.528 4.80176C423.284 4.80176 427.85 4.80176 432.606 4.80176C453.341 4.99193 453.722 5.56245 455.624 27.4321C458.287 58.4301 461.521 89.4279 463.424 120.426C466.277 167.588 467.609 214.751 470.272 261.913C473.126 311.168 476.74 360.422 479.974 409.676C480.735 420.706 481.306 431.926 481.116 442.956C481.116 445.428 476.93 449.993 474.648 449.993C457.336 450.563 440.215 450.373 422.904 450.373C411.68 450.373 410.729 442.005 410.348 434.018C409.207 408.725 408.256 383.242 407.495 357.76C405.212 291.96 403.5 226.161 400.836 160.362C400.076 142.866 397.222 125.56 395.32 108.065C395.129 106.353 395.32 104.261 394.559 102.74C391.895 97.6053 388.852 92.6609 385.998 87.7164C382.954 92.2805 379.53 96.4643 377.247 101.219C368.496 120.236 360.126 139.443 351.566 158.46C345.859 171.202 339.581 183.563 334.064 196.304C326.264 214.37 319.416 232.627 311.616 250.693C304.387 267.238 296.207 283.593 288.978 300.138C281.179 318.014 274.14 336.08 266.531 353.956C260.063 368.98 252.834 383.623 245.985 398.456C242.561 405.873 239.517 413.48 235.142 420.516C229.625 429.644 223.537 438.392 216.689 446.57C212.504 451.514 209.08 448.281 207.748 443.146C202.041 419.755 189.676 399.217 179.593 377.537C171.984 361.373 166.086 344.638 158.667 328.473C150.107 309.836 140.405 291.77 131.273 273.324C129.561 269.9 128.8 265.907 127.278 262.294C124.425 256.208 121.381 250.503 118.337 244.608C117.196 242.326 114.913 240.424 114.533 238.142C112.63 225.971 107.304 215.702 101.026 205.052C91.8947 189.648 86.5681 171.962 79.5294 155.227C73.8224 141.535 69.0665 127.082 61.4571 114.34C58.7938 109.966 49.4723 109.396 40.7215 106.163H40.9117Z" fill="white"/>
<path d="M4855.76 219.125C4855.76 229.204 4855.76 239.093 4855.76 249.172C4855.76 260.772 4855.38 272.183 4846.63 281.311C4845.3 282.832 4843.97 285.114 4844.16 287.206C4844.16 308.886 4833.31 326.952 4824.37 345.398C4812.77 369.17 4794.12 387.616 4773.58 404.352C4749.61 423.749 4720.88 434.399 4693.3 447.14C4689.5 448.852 4684.93 449.422 4680.75 449.802C4636.99 453.226 4593.24 457.599 4549.48 449.612C4544.16 448.661 4539.4 445.428 4534.26 442.956C4531.03 441.435 4528.18 438.963 4524.94 437.822C4494.7 426.031 4472.82 404.161 4453.79 379.059C4429.44 347.11 4420.69 310.027 4416.89 270.471C4413.27 233.197 4418.22 196.685 4424.12 160.552C4427.35 141.155 4440.29 123.088 4449.23 104.642C4459.31 83.9131 4475.48 67.7485 4493.74 54.4365C4517.9 36.5604 4542.06 18.1138 4573.45 14.3104C4612.45 -8.12981 4654.87 1.94925 4695.77 4.2313C4716.7 5.37233 4737.82 17.3531 4757.41 27.0519C4782.9 39.6032 4802.69 60.3318 4818.28 83.5327C4829.51 100.078 4840.54 117.383 4842.83 138.492C4843.59 145.909 4848.34 152.755 4850.82 159.982C4852.53 165.306 4854.62 170.821 4854.81 176.336C4855.38 190.599 4854.81 204.862 4854.81 219.315C4854.81 219.315 4855.19 219.315 4855.38 219.315L4855.76 219.125ZM4625.39 435.92C4650.88 438.202 4675.61 436.3 4697.11 420.706C4708.71 412.339 4721.46 404.542 4730.21 393.702C4746.38 373.354 4762.55 352.435 4766.54 325.43C4766.92 322.768 4769.58 320.676 4770.73 318.014C4773.39 311.548 4777.76 305.082 4777.96 298.616C4779.29 263.244 4778.72 227.873 4780.24 192.501C4781.95 154.847 4769.97 121.377 4749.61 90.7592C4728.11 58.2399 4699.2 35.0391 4658.11 31.8061C4648.41 31.0455 4638.7 29.5241 4629 29.9044C4618.73 30.2848 4607.31 30.2848 4598.75 34.6587C4580.87 44.1673 4563.37 55.1972 4548.15 68.319C4535.6 79.1588 4524.56 92.8511 4516.38 107.114C4506.87 123.849 4496.22 140.774 4495.27 161.123C4495.27 163.785 4492.98 166.257 4492.03 169.11C4489.37 177.097 4484.99 185.274 4484.99 193.262C4484.8 233.197 4480.24 272.753 4494.31 312.879C4504.02 340.264 4511.44 368.409 4530.65 390.279C4552.15 414.811 4577.26 435.54 4613.21 435.349C4617.21 435.349 4621.2 435.73 4625.01 435.92H4625.39Z" fill="white"/>
<path d="M3985.44 231.106C3985.44 163.785 3985.44 96.4645 3985.44 29.1439C3985.44 5.5627 3986.2 4.61183 4009.21 4.61183C4043.08 4.42166 4076.94 3.85115 4110.61 4.802C4123.17 5.18235 4135.72 9.74647 4148.28 11.8384C4158.17 13.3597 4168.25 14.3106 4178.33 14.8811C4210.86 16.4025 4236.17 33.8982 4258.61 54.2465C4270.79 65.2765 4280.87 80.6803 4280.87 99.3171C4280.87 109.396 4281.44 119.285 4281.25 129.364C4280.49 164.356 4261.85 188.317 4232.36 204.292C4213.34 214.751 4192.98 222.928 4173.2 231.866C4162.54 236.621 4160.07 241.565 4168.82 251.644C4210.67 300.138 4251.57 349.582 4292.86 398.647C4303.89 411.768 4314.92 424.89 4325.77 438.012C4331.09 444.478 4329.19 449.993 4320.63 450.563C4300.27 451.895 4279.73 452.275 4259.18 452.655C4256.71 452.655 4253.1 451.324 4251.57 449.422C4240.92 435.159 4230.65 420.706 4220.19 406.253C4205.16 385.335 4190.13 364.606 4175.48 343.687C4163.31 326.191 4151.89 307.935 4139.53 290.439C4128.3 274.465 4116.51 258.681 4103.76 243.847C4100.15 239.663 4092.35 238.332 4086.26 237.001C4081.5 236.05 4076.18 236.811 4071.23 237.001C4050.69 237.572 4047.83 240.234 4047.64 261.153C4047.45 319.155 4047.45 377.157 4047.26 435.159C4047.26 450.944 4046.88 451.324 4030.9 451.324C4020.06 451.324 4009.22 450.754 3998.56 451.324C3988.29 451.895 3984.67 447.901 3984.67 437.632C3984.87 384.954 3984.67 332.277 3984.48 279.79C3984.48 263.625 3984.48 247.651 3984.48 231.486C3984.48 231.486 3984.67 231.486 3984.86 231.486L3985.44 231.106ZM4048.02 133.168C4048.02 157.509 4048.4 181.851 4048.02 206.193C4048.02 215.702 4052.02 218.935 4060.96 218.745C4081.88 218.554 4103.19 221.217 4123.55 217.984C4143.33 214.751 4164.26 209.046 4181 198.396C4205.92 182.802 4212.39 154.657 4216.57 126.892C4219.04 110.347 4208.58 97.6056 4204.02 83.1526C4195.65 56.7188 4174.91 40.1738 4149.8 34.4687C4124.12 28.5734 4096.72 30.0948 4070.66 37.1311C4054.68 41.5051 4048.4 49.8726 4048.4 66.4175C4048.4 88.6675 4048.4 110.727 4048.4 132.977L4048.02 133.168Z" fill="white"/>
<path d="M3769.33 344.448C3769.33 321.817 3769.33 299.377 3769.33 276.747C3769.33 270.281 3771.42 266.097 3777.89 265.717C3792.16 264.576 3806.43 262.864 3820.69 263.054C3831.54 263.054 3838.19 271.232 3838 282.071C3837.43 328.663 3836.86 375.065 3835.53 421.657C3835.53 426.221 3831.16 431.546 3827.35 435.159C3810.42 450.563 3789.11 450.753 3767.81 451.514C3748.02 452.465 3728.24 455.317 3708.64 455.127C3684.29 454.937 3659.56 453.796 3635.59 450.373C3582.33 442.766 3537.24 418.805 3501.1 379.059C3491.97 369.17 3483.98 358.14 3476.18 347.3C3473.7 343.687 3473.7 338.362 3471.8 334.178C3469.14 328.283 3465.52 322.958 3462.67 317.063C3460.77 313.26 3458.29 309.266 3458.29 305.462C3458.1 262.484 3458.1 219.505 3458.49 176.717C3458.49 171.772 3461.91 166.828 3464.19 162.073C3465.71 158.84 3468.38 155.988 3469.33 152.755C3482.45 112.819 3507.38 81.0605 3540.29 55.9579C3553.22 46.069 3569.39 40.554 3582.33 30.8553C3596.98 19.8253 3615.43 20.586 3629.89 12.9792C3664.13 -5.0871 3699.89 4.23129 3734.9 1.94924C3761.91 0.237695 3787.4 7.65436 3812.51 17.3531C3824.69 21.9172 3827.73 25.9108 3824.69 38.4621C3823.17 44.9279 3819.74 51.0134 3816.13 56.7185C3812.7 62.0433 3807.76 62.0433 3802.05 58.6203C3795.96 54.8168 3789.11 51.7741 3782.27 49.3019C3771.61 45.4984 3760.77 41.695 3749.54 39.0326C3736.99 35.9899 3724.24 32.1865 3711.5 31.9963C3689.81 31.4258 3666.79 29.3339 3646.44 35.2292C3613.34 44.9279 3585.94 66.2271 3565.59 94.7528C3555.7 108.635 3547.13 123.278 3538 137.731C3537.62 138.302 3537.05 139.063 3537.05 139.633C3537.24 166.067 3518.6 188.317 3520.5 215.321C3521.45 229.965 3519.74 244.798 3521.45 259.251C3522.78 271.041 3527.54 282.452 3530.77 294.052C3531.35 296.144 3532.49 298.046 3532.87 300.138C3536.67 339.123 3558.74 368.219 3586.7 392.941C3600.4 404.922 3618.09 412.529 3634.26 421.467C3673.07 442.386 3715.11 435.73 3756.58 434.589C3760.39 434.589 3765.71 430.025 3767.24 426.411C3769.52 420.706 3769.9 413.86 3769.9 407.584C3770.28 386.856 3769.9 366.127 3769.9 345.208C3769.9 345.208 3769.52 345.208 3769.33 345.208V344.448Z" fill="white"/>
<path d="M5593.11 5.7526C5590.26 8.03465 5589.31 8.79536 5587.79 9.93639C5588.93 10.3167 5589.88 10.8872 5590.83 10.8872C5603.39 11.6479 5615.94 12.2184 5628.5 12.9791C5664.07 15.071 5696.22 26.6714 5721.71 51.774C5737.12 66.7976 5746.25 86.1951 5745.87 108.445C5745.49 127.082 5746.25 146.099 5742.26 163.975C5739.4 176.907 5731.41 189.648 5722.47 199.917C5707.25 217.603 5686.33 227.492 5664.83 237.571C5629.83 253.736 5593.87 249.172 5557.92 251.454C5551.83 251.834 5545.74 251.454 5539.66 251.454C5517.59 251.834 5513.21 256.018 5513.02 278.268C5512.64 304.321 5513.02 330.565 5513.02 356.618C5513.02 383.813 5512.64 411.007 5513.02 438.202C5513.02 448.091 5509.03 451.514 5499.52 451.134C5486.2 450.563 5472.88 450.563 5459.57 450.563C5451.39 450.563 5448.34 446.95 5448.34 438.773C5448.72 394.653 5448.53 350.723 5448.53 306.604C5448.53 215.321 5448.53 124.039 5448.53 32.7569C5448.53 30.2847 5448.53 27.8125 5448.53 25.3402C5450.25 7.27398 5452.34 5.1821 5470.22 4.99193C5508.27 4.80176 5546.51 4.99193 5584.55 4.80176C5586.64 4.80176 5588.74 5.37226 5592.73 5.7526H5593.11ZM5558.68 234.338C5566.67 234.338 5574.47 234.529 5582.46 234.338C5611.38 233.197 5636.87 223.309 5655.32 200.678C5662.55 191.93 5664.83 179.189 5671.49 169.68C5679.29 158.65 5680.62 146.669 5681.38 134.118C5683.28 104.642 5672.44 79.5391 5652.66 59.0006C5642.95 48.7313 5630.4 37.8915 5617.27 34.8488C5589.88 28.7633 5561.34 30.0945 5533.95 37.321C5519.3 41.1244 5513.21 51.0133 5512.83 65.8467C5512.83 73.2634 5512.45 80.8702 5512.45 88.2869C5512.45 128.984 5512.45 169.87 5513.02 210.567C5513.21 231.486 5516.64 234.338 5538.13 234.338C5544.98 234.338 5551.83 234.338 5558.68 234.338Z" fill="white"/>
<path d="M1389.49 234.338C1389.49 166.637 1389.49 98.9365 1389.49 31.4257C1389.49 29.7142 1389.49 27.8125 1389.68 26.101C1391.2 8.41503 1394.05 5.37228 1412.32 5.18211C1487.46 4.99194 1562.79 5.1821 1637.94 4.80176C1647.45 4.80176 1652.2 7.65432 1652.2 17.1629C1652.2 18.3039 1652.58 19.2548 1652.77 20.3958C1655.82 45.8787 1652.77 50.0625 1627.66 47.9706C1613.59 46.8296 1599.13 43.977 1585.62 39.9834C1550.24 29.524 1514.47 30.2847 1478.71 35.6095C1460.83 38.2719 1452.08 50.8232 1452.08 69.0796C1451.89 107.304 1451.7 145.719 1451.7 183.943C1451.7 201.058 1453.22 203.15 1470.72 203.531C1495.83 204.101 1521.13 203.531 1546.24 203.531C1562.41 203.531 1578.58 203.911 1594.75 203.531C1601.98 203.531 1605.79 205.813 1605.41 213.229C1605.22 216.843 1605.41 220.456 1605.41 223.879C1605.41 231.676 1601.98 234.338 1594.18 234.148C1559.37 233.768 1524.37 233.958 1489.36 233.578C1451.51 233.197 1451.51 233.197 1451.7 270.471C1451.7 313.069 1451.7 355.668 1451.7 398.266C1451.7 417.283 1458.16 424.89 1477.57 423.178C1525.51 419.375 1573.45 414.24 1621.39 409.676C1631.47 408.725 1641.36 407.204 1651.44 407.014C1655.82 407.014 1663.81 409.866 1663.81 411.388C1663.81 418.614 1661.91 426.031 1660 433.258C1659.43 435.349 1655.25 436.871 1655.25 438.582C1654.87 453.035 1644.59 450.943 1635.46 450.943C1562.03 450.943 1488.6 450.943 1415.17 450.563C1384.92 450.563 1390.06 453.035 1389.68 425.27C1388.92 361.563 1389.49 297.856 1389.49 234.148C1389.49 234.148 1389.68 234.148 1389.87 234.148L1389.49 234.338Z" fill="white"/>
<path d="M579.848 443.717C589.93 442.196 593.545 436.3 593.735 427.172C593.735 424.129 595.447 420.896 596.588 418.044C607.051 393.892 617.324 369.55 628.358 345.589C641.294 317.063 654.99 288.918 667.736 260.392C680.482 231.486 692.086 202.009 704.832 173.103C712.632 155.227 721.573 137.732 729.753 120.046C732.036 115.101 732.987 109.776 735.079 104.832C737.743 98.7464 740.786 92.8511 743.83 86.7656C744.781 84.8639 746.303 83.1524 747.255 81.2507C754.483 63.1844 761.522 45.1182 769.132 27.2421C772.175 20.0156 776.361 13.1694 781.116 6.89375C786.253 0.0475841 792.53 0.808272 796.145 8.60529C802.803 23.2485 808.51 38.0818 815.168 52.725C822.778 69.2699 831.148 85.6246 839.138 102.17C840.85 105.783 841.611 109.586 843.133 113.199C846.177 119.855 849.601 126.511 852.835 133.167C853.406 134.499 854.547 135.449 855.118 136.781C861.966 154.276 868.624 171.772 875.663 189.268C877.566 194.212 880.609 198.586 883.082 203.341C885.175 207.334 887.838 211.328 888.98 215.702C891.643 225.21 891.833 235.67 901.725 241.945C903.247 242.896 904.008 245.559 904.389 247.65C906.291 259.821 911.237 270.281 917.705 280.93C926.456 295.764 930.07 313.45 938.06 328.854C947.572 346.92 950.616 368.029 964.122 384.384C967.547 388.567 966.786 396.174 969.259 401.689C971.732 407.394 975.727 412.529 978.961 418.044C980.483 420.706 982.385 423.369 983.146 426.411C984.668 433.258 985.429 440.484 986.76 448.852C982.195 449.802 977.819 451.134 973.444 451.324C964.503 451.704 955.372 451.324 946.431 451.324C920.559 451.324 910.666 442.576 905.53 417.283C904.389 411.198 900.584 405.873 897.73 400.168C896.779 398.266 895.067 396.745 894.306 394.843C888.028 379.059 881.56 363.465 875.663 347.49C869.956 331.706 868.054 329.234 850.933 329.044C804.896 328.663 758.859 328.854 712.822 328.663C704.452 328.663 696.271 328.093 688.091 328.473C672.492 328.854 663.551 336.841 658.034 351.484C649.854 373.544 640.152 395.033 631.211 416.713C627.787 425.08 624.553 433.448 622.651 442.005C621.319 447.711 619.036 450.373 613.519 449.993C602.676 449.422 591.832 448.852 580.989 448.091C580.799 446.57 580.609 445.048 580.228 443.717H579.848ZM767.229 307.364C767.229 307.364 767.229 307.554 767.229 307.745C789.487 307.745 811.934 307.745 834.192 307.745C845.035 307.745 851.694 302.23 849.601 291.96C846.747 278.268 840.85 265.146 835.904 251.834C833.811 246.319 830.577 241.185 828.485 235.67C821.827 217.033 815.549 198.206 808.891 179.569C808.13 177.667 806.037 176.336 804.896 174.625C802.613 171.012 800.33 167.588 798.618 163.785C794.052 153.135 789.677 142.296 785.302 131.456C783.589 127.082 782.448 122.708 781.116 118.144C779.975 113.96 779.214 109.776 777.502 105.783C775.409 100.648 772.175 99.6973 767.61 103.501C758.669 111.108 750.869 119.285 749.728 131.646C749.347 135.83 748.015 140.014 746.303 144.007C736.411 167.208 726.138 190.219 716.056 213.42C714.915 216.082 713.773 218.744 712.822 221.407C704.642 240.424 696.462 259.251 688.472 278.458C686.95 282.072 686.189 286.065 685.809 289.868C684.667 302.42 689.803 307.745 702.359 307.745C724.046 307.745 745.542 307.745 767.229 307.745V307.364Z" fill="white"/>
<path d="M5028.3 4.42139C5028.3 38.0817 5028.3 69.8403 5028.3 101.599C5028.3 173.864 5028.3 246.319 5028.68 318.584C5028.68 330.755 5028.68 342.926 5037.63 353.005C5039.72 355.477 5040.29 359.661 5040.86 363.084C5046 394.272 5068.06 409.676 5095.27 419.565C5108.77 424.51 5122.85 427.743 5136.93 430.595C5143.78 432.116 5151.39 432.307 5158.23 430.975C5175.93 427.362 5194 424.7 5210.55 418.044C5235.28 407.775 5251.64 388.948 5262.1 363.655C5277.13 327.522 5275.23 290.059 5275.42 252.785C5275.8 181.471 5275.42 110.347 5275.8 39.0325C5275.8 30.2847 5277.51 21.3466 5279.98 12.7889C5282.46 4.23123 5287.21 3.47055 5293.87 9.93637C5302.24 18.1137 5304.52 28.383 5304.52 39.4129C5304.52 60.5219 5304.52 81.6309 5304.52 102.74C5304.14 164.355 5304.53 225.971 5302.43 287.396C5301.48 314.4 5298.25 342.165 5290.07 367.648C5279.98 398.266 5259.82 422.988 5228.81 437.441C5186.01 457.219 5140.92 455.698 5095.65 453.035C5092.41 453.035 5089.18 451.894 5085.94 451.894C5052.65 452.845 5026.97 435.92 5004.14 415.001C4994.25 405.873 4988.16 392.561 4980.93 380.58C4965.72 354.907 4965.34 326.381 4965.34 297.475C4965.72 208.665 4965.34 119.855 4965.34 31.0453C4965.34 30.2847 4965.34 29.524 4965.34 28.9535C4965.91 6.70346 4967.62 4.80173 4990.07 4.42139C5001.86 4.42139 5013.66 4.42139 5028.11 4.42139H5028.3Z" fill="white"/>
<path d="M1929.76 454.747C1906.17 453.225 1873.83 452.084 1841.68 448.661C1830.07 447.33 1819.42 440.104 1808 436.49C1793.17 431.926 1789.36 426.411 1792.6 411.007C1793.93 404.351 1800.78 401.879 1806.86 407.584C1816.76 416.903 1829.31 418.044 1841.3 421.467C1848.71 423.749 1855.75 427.362 1863.17 430.025C1868.12 431.926 1873.26 434.018 1878.39 434.208C1897.03 434.779 1915.87 435.92 1934.51 434.208C1961.71 431.926 1980.55 415.952 1997.67 395.223C2015.17 374.304 2012.7 350.913 2009.27 328.093C2007.56 317.253 1999 306.223 1991.01 297.856C1962.67 268.189 1927.28 248.601 1890.76 230.535C1860.32 215.321 1834.83 193.452 1812.95 167.208C1812.76 167.018 1812.38 166.637 1812.38 166.257C1800.2 137.731 1786.7 110.727 1802.68 77.6373C1812.76 56.7185 1824.56 38.8423 1842.63 24.5795C1843.2 24.1992 1843.58 23.4385 1844.34 23.2483C1863.93 16.212 1880.48 1.18847 1903.12 1.94915C1927.28 2.70984 1951.63 0.0474272 1975.41 2.9C1998.62 5.75256 2021.26 13.9299 2043.9 20.0154C2050.93 21.9171 2052.08 26.8616 2049.03 33.5176C2045.8 40.7441 2043.33 48.1608 2040.85 55.5774C2038.38 62.9941 2032.1 65.4663 2027.54 59.571C2020.31 50.633 2010.41 50.0625 2000.9 47.4001C1991.58 44.9278 1982.83 40.3637 1973.51 38.6522C1954.11 35.039 1934.7 31.9962 1915.11 29.7141C1903.5 28.3829 1891.14 24.9599 1880.48 32.7569C1868.88 41.3146 1859.18 51.3937 1856.13 66.227C1849.48 97.7954 1862.22 122.708 1883.15 144.578C1901.22 163.405 1923.86 175.766 1945.73 189.268C1975.41 207.714 2007.75 222.358 2033.05 247.27C2044.66 258.87 2055.69 271.232 2065.96 283.973C2069.77 288.727 2071.67 295.573 2072.81 301.659C2077.38 327.332 2077.38 353.195 2070.91 378.488C2068.44 387.997 2061.78 397.125 2055.5 405.112C2044.66 418.995 2032.67 431.736 2014.79 437.061C2010.6 438.392 2007.56 442.196 2003.57 444.478C1999.95 446.569 1996.15 449.042 1992.34 449.422C1974.46 451.134 1956.39 452.275 1929.76 454.366V454.747Z" fill="white"/>
<path d="M3159.63 63.5649C3150.11 60.7123 3139.27 66.4175 3134.71 53.8662C3134.13 52.3448 3131.28 51.2038 3129.19 50.8234C3098.56 43.0264 3069.26 28.5734 3036.54 30.0948C3018.09 31.0456 2998.69 29.3341 2981.19 34.2785C2945.8 44.3576 2916.51 65.2764 2896.53 96.6547C2885.88 113.39 2875.42 130.886 2869.14 149.332C2863.62 165.307 2864.95 183.373 2861.53 200.108C2854.3 235.099 2862.48 269.33 2867.42 303.371C2870.09 321.247 2880.17 338.933 2889.68 354.907C2904.52 379.82 2926.21 398.837 2951.7 413.29C2957.6 416.523 2964.25 418.234 2970.53 420.897C2978.33 424.13 2985.75 428.123 2993.55 431.166C2997.55 432.687 3001.73 434.018 3005.92 434.018C3032.17 434.399 3058.42 435.159 3084.67 434.589C3109.97 434.018 3131.85 420.897 3155.44 413.86C3156.77 413.48 3157.91 411.959 3159.25 411.768C3164.76 411.008 3172.75 408.155 3175.03 410.627C3180.93 416.903 3174.65 429.644 3167.24 434.399C3137.56 453.606 3103.7 449.803 3071.17 453.796C3029.89 458.931 2989.18 453.796 2948.66 447.521C2930.96 444.858 2914.03 434.779 2898.05 425.651C2879.79 415.191 2861.72 403.591 2845.74 389.899C2834.51 380.39 2825.19 367.839 2818.15 354.907C2808.26 336.651 2801.03 316.873 2792.85 297.476C2791.33 293.862 2790 289.869 2790 286.065C2790 254.687 2785.81 222.358 2792.09 192.121C2796.66 169.871 2800.08 145.148 2815.68 125.371C2828.43 109.206 2838.51 90.9496 2851.26 74.785C2857.72 66.6076 2866.66 59.7615 2875.8 54.0563C2904.71 36.3704 2932.87 16.4024 2968.25 12.9794C2988.03 -3.56554 3012 2.90028 3034.26 1.75925C3057.47 0.618227 3081.25 0.618234 3104.27 3.66097C3122.15 5.94303 3139.46 13.3597 3156.77 18.8747C3158.87 19.4452 3161.15 23.0584 3161.15 25.3405C3160.96 37.7016 3160.01 50.0627 3159.25 63.5649H3159.63Z" fill="white"/>
<path d="M1215.99 252.405C1215.99 326.191 1215.99 399.978 1215.99 473.764C1215.99 480.991 1218.85 490.88 1206.29 492.401C1205.15 492.401 1204.01 495.254 1203.63 496.775C1193.93 537.852 1163.11 561.814 1131.34 584.824C1126.39 588.438 1119.16 588.628 1113.08 590.72C1104.13 593.762 1095.38 598.707 1086.25 600.038C1074.08 601.75 1061.14 602.51 1048.97 600.799C1034.89 598.897 1021 593.953 1007.11 590.339C1006.73 590.339 1006.35 590.149 1006.16 589.959C999.696 587.297 997.413 564.666 1002.36 552.305C1006.35 542.416 1013.77 547.17 1019.67 548.882C1042.12 555.348 1064.19 562.384 1086.63 568.66C1096.34 571.512 1114.22 561.433 1121.26 549.262C1130.01 533.858 1141.23 519.405 1141.61 500.388C1141.61 498.677 1141.99 496.585 1143.13 495.254C1157.59 478.709 1155.5 458.551 1155.69 438.963C1156.07 329.044 1156.45 219.125 1156.45 109.206C1156.45 78.7787 1156.07 48.3513 1155.31 17.9239C1155.12 8.035 1158.35 4.42173 1168.24 4.80207C1180.8 5.37259 1193.36 5.18241 1206.1 4.6119C1213.33 4.42173 1216.75 6.70378 1216.94 14.1205C1217.32 34.0884 1218.28 54.2466 1218.28 74.2146C1218.47 133.738 1218.28 193.072 1218.28 252.595C1217.51 252.595 1216.94 252.595 1216.18 252.595L1215.99 252.405Z" fill="white"/>
<path d="M2367.3 245.178C2367.3 309.646 2367.11 374.114 2367.49 438.583C2367.49 448.852 2364.44 451.704 2354.55 451.134C2341.99 450.373 2329.44 450.753 2316.69 451.134C2308.51 451.134 2305.47 447.901 2305.47 439.533C2305.66 385.144 2305.47 330.755 2305.47 276.176C2305.47 208.475 2304.9 140.774 2304.71 73.0735C2304.71 61.0927 2308.51 48.3512 2295.77 39.7935C2293.1 38.082 2290.44 35.6098 2287.4 35.2294C2264.38 31.426 2242.31 32.567 2220.05 42.0756C2206.17 47.9709 2189.24 47.2102 2173.45 48.5414C2171.35 48.5414 2167.36 43.9773 2166.6 40.7444C2165.27 35.6097 2165.46 30.0948 2165.65 24.77C2166.22 8.98576 2170.02 5.18236 2185.62 5.18236C2288.54 5.18236 2391.46 5.18236 2494.56 4.99219C2503.5 4.99219 2506.93 7.84477 2506.55 16.5926C2504.84 51.9645 2512.06 49.3021 2472.88 47.5905C2462.03 47.02 2451.38 42.8362 2440.92 39.223C2419.23 31.6161 2396.97 31.426 2374.9 35.6098C2371.86 36.1803 2368.06 43.4068 2367.87 47.7807C2367.11 72.1226 2367.11 96.4645 2367.11 120.806C2367.11 162.264 2367.11 203.911 2367.11 245.369L2367.3 245.178Z" fill="white"/>
<path d="M2677.57 235.099C2677.57 302.42 2677.57 369.741 2677.57 437.061C2677.57 446.57 2676.24 451.704 2664.83 450.754C2652.27 449.803 2639.71 450.754 2627.16 451.134C2618.22 451.514 2615.17 447.901 2615.36 439.153C2615.74 391.23 2615.55 343.307 2615.55 295.193C2615.55 209.997 2615.55 124.8 2615.55 39.6033C2615.55 30.4751 2617.08 20.9665 2618.79 12.0285C2619.36 9.17592 2623.35 5.37251 2626.21 4.99217C2634.01 3.85114 2642 3.66095 2649.8 4.04129C2667.49 4.99215 2677 15.8319 2677 33.5179C2677 100.838 2677 168.159 2677 235.48C2677 235.48 2677 235.48 2677.19 235.48L2677.57 235.099Z" fill="white"/>
</svg>
