<?xml version="1.0" encoding="UTF-8"?>
<svg id="Layer_1" data-name="Layer 1" xmlns="http://www.w3.org/2000/svg" viewBox="0 0 804.26 964.45">
  <defs>
    <style>
      .cls-1 {
        fill: #fff;
      }
    </style>
  </defs>
  <g>
    <path class="cls-1" d="m149.25,772.1c0-42.84,34.74-76.23,76.23-76.23s76.23,34.74,76.23,76.23-34.74,76.23-76.23,76.23-76.23-34.74-76.23-76.23Zm127.38,0c0-27.98-22.58-51.14-51.14-51.14s-51.14,22.58-51.14,51.14,22.58,51.14,51.14,51.14,51.14-22.58,51.14-51.14Z"/>
    <path class="cls-1" d="m324.49,697.8h55.39c25.67,0,46.7,16.98,46.7,46.7s-20.84,46.9-46.7,46.9h-30.3v55h-25.09v-148.6Zm55.39,68.51c11.97,0,21.62-7.72,21.62-21.81s-9.65-21.62-21.62-21.62h-30.3v43.42h30.3Z"/>
    <path class="cls-1" d="m442.6,697.8h92.64v25.09h-67.55v36.67h59.83v25.09h-59.83v36.67h67.55v25.09h-92.64v-148.6Z"/>
    <path class="cls-1" d="m635.97,846.4l-30.49-55h-22.19v55h-25.09v-148.6h55.39c25.67,0,46.7,18.91,46.7,46.7,0,21.23-11.97,37.25-29.14,43.81l33.77,58.09h-28.95Zm-52.69-80.09h28.37c13.9,0,23.55-7.72,23.55-21.81s-9.65-21.62-23.55-21.62h-28.37v43.42Z"/>
    <path class="cls-1" d="m764.7,819.38h-56.35l-11,27.02h-28.37l67.55-152.46,67.55,152.46h-28.37l-11-27.02Zm-9.65-23.54l-18.53-45.16-18.53,45.16h37.05Z"/>
  </g>
  <g>
    <path class="cls-1" d="m152.55,882.17h18.85v3.19h-15.53v9.11h14.62v3.19h-14.62v13.84h15.53v3.19h-18.85v-32.51Z"/>
    <path class="cls-1" d="m178.23,882.17h4.01l20.35,27.96v-27.96h3.32v32.51h-4.01l-20.35-27.96v27.96h-3.32v-32.51Z"/>
    <path class="cls-1" d="m210.92,898.24c0-8.92,7.65-16.48,16.98-16.48,6.33,0,11.61,3.51,14.52,8.51h-3.73c-2.46-3.14-6.42-5.19-10.79-5.19-7.51,0-13.52,6.01-13.52,13.16,0,7.51,6.01,13.52,13.52,13.52,4.78,0,8.97-2.46,11.38-6.19v-7.33h3.32v16.44h-3.32v-3.96c-3,2.73-7.01,4.37-11.38,4.37-9.33,0-16.98-7.56-16.98-16.85Z"/>
    <path class="cls-1" d="m249.44,882.17h3.32v32.51h-3.32v-32.51Z"/>
    <path class="cls-1" d="m260.04,882.17h4.01l20.35,27.96v-27.96h3.32v32.51h-4.01l-20.35-27.96v27.96h-3.32v-32.51Z"/>
    <path class="cls-1" d="m295.01,882.17h18.85v3.19h-15.53v9.11h14.62v3.19h-14.62v13.84h15.53v3.19h-18.85v-32.51Z"/>
    <path class="cls-1" d="m320.69,882.17h18.85v3.19h-15.53v9.11h14.62v3.19h-14.62v13.84h15.53v3.19h-18.85v-32.51Z"/>
    <path class="cls-1" d="m345.46,882.17h10.65c6.19,0,10.38,4.05,10.38,10.11,0,5.05-2.87,8.7-7.47,9.79l9.93,12.61h-4.42l-9.7-12.29h-6.06v12.29h-3.32v-32.51Zm10.65,17.03c4.14,0,6.92-2.78,6.92-6.92s-2.73-6.92-6.92-6.92h-7.33v13.84h7.33Z"/>
    <path class="cls-1" d="m373.05,882.17h3.32v32.51h-3.32v-32.51Z"/>
    <path class="cls-1" d="m383.65,882.17h4.01l20.35,27.96v-27.96h3.32v32.51h-4.01l-20.35-27.96v27.96h-3.32v-32.51Z"/>
    <path class="cls-1" d="m416.34,898.24c0-8.92,7.65-16.48,16.98-16.48,6.33,0,11.61,3.51,14.52,8.51h-3.73c-2.46-3.14-6.42-5.19-10.79-5.19-7.51,0-13.52,6.01-13.52,13.16,0,7.51,6.01,13.52,13.52,13.52,4.78,0,8.97-2.46,11.38-6.19v-7.33h3.32v16.44h-3.32v-3.96c-3,2.73-7.01,4.37-11.38,4.37-9.33,0-16.98-7.56-16.98-16.85Z"/>
    <path class="cls-1" d="m497.7,906.94c-2.96,4.92-8.33,8.2-14.48,8.2-9.33,0-16.98-7.56-16.98-16.85s7.65-16.48,16.98-16.48c6.1,0,11.43,3.28,14.39,8.01h-4.14c-2.46-2.87-6.1-4.69-10.24-4.69-7.51,0-13.52,6.01-13.52,13.16,0,7.51,6.01,13.52,13.52,13.52,4.19,0,7.92-1.87,10.34-4.87h4.14Z"/>
    <path class="cls-1" d="m534.99,898.2c0,9.29-7.6,16.85-16.94,16.85s-16.94-7.56-16.94-16.85,7.6-16.48,16.94-16.48,16.94,7.56,16.94,16.48Zm-3.46,0c0-7.15-5.96-13.16-13.48-13.16s-13.48,6.01-13.48,13.16c0,7.51,5.96,13.52,13.48,13.52s13.48-6.01,13.48-13.52Z"/>
    <path class="cls-1" d="m540.23,882.17h4.01l20.35,27.96v-27.96h3.32v32.51h-4.01l-20.35-27.96v27.96h-3.32v-32.51Z"/>
    <path class="cls-1" d="m588.81,888.82c-.68-2.14-2.87-3.83-5.33-3.83-3.55,0-5.87,2.55-5.87,5.37s1.96,4.1,5.87,5.33c6.06,1.91,10.56,4.28,10.56,9.97s-4.69,9.43-10.56,9.43c-5.42,0-9.83-3.64-10.47-8.7h3.46c.64,3.14,3.51,5.37,7.01,5.37,3.96,0,7.1-2.32,7.1-6.1,0-3-1.96-4.64-7.1-6.24-6.06-1.87-9.33-4.14-9.33-9.06s3.73-8.7,9.33-8.7c4.55,0,8.24,2.96,8.97,7.15h-3.64Z"/>
    <path class="cls-1" d="m598.14,902.93v-20.76h3.32v20.76c0,5.74,3.42,9.15,9.2,9.15s9.11-3.41,9.11-9.15v-20.76h3.32v20.76c0,7.83-4.6,12.48-12.43,12.48s-12.52-4.64-12.52-12.48Z"/>
    <path class="cls-1" d="m630.37,882.17h3.32v29.32h14.98v3.19h-18.3v-32.51Z"/>
    <path class="cls-1" d="m654.69,885.36h-11.02v-3.19h25.31v3.19h-10.97v29.32h-3.32v-29.32Z"/>
    <path class="cls-1" d="m681.78,882.17h3.6l14.62,32.51h-3.6l-5.83-12.93h-13.98l-5.83,12.93h-3.6l14.62-32.51Zm1.82,4.01l-5.6,12.38h11.16l-5.55-12.38Z"/>
    <path class="cls-1" d="m703.63,882.17h4.01l20.35,27.96v-27.96h3.32v32.51h-4.01l-20.35-27.96v27.96h-3.32v-32.51Z"/>
    <path class="cls-1" d="m767.78,906.94c-2.96,4.92-8.33,8.2-14.48,8.2-9.33,0-16.98-7.56-16.98-16.85s7.65-16.48,16.98-16.48c6.1,0,11.43,3.28,14.39,8.01h-4.14c-2.46-2.87-6.1-4.69-10.25-4.69-7.51,0-13.52,6.01-13.52,13.16,0,7.51,6.01,13.52,13.52,13.52,4.19,0,7.92-1.87,10.34-4.87h4.14Z"/>
    <path class="cls-1" d="m780.84,905.16l-11.25-22.99h3.6l9.47,19.35,9.47-19.35h3.6l-15.94,32.51h-3.6l4.64-9.52Z"/>
  </g>
  <g>
    <path class="cls-1" d="m155.91,927.22h2.57l10.46,23.26h-2.57l-4.17-9.25h-10l-4.17,9.25h-2.57l10.46-23.26Zm1.3,2.87l-4.01,8.86h7.98l-3.97-8.86Z"/>
    <path class="cls-1" d="m171.55,927.22h2.87l14.56,20v-20h2.38v23.26h-2.87l-14.56-20v20h-2.38v-23.26Z"/>
    <path class="cls-1" d="m196.57,927.22h6.19c8.44,0,11.83,3.32,11.83,11.63s-3.39,11.63-11.83,11.63h-6.19v-23.26Zm6.19,20.98c6.68,0,9.35-2.67,9.35-9.35s-2.67-9.35-9.35-9.35h-3.81v18.7h3.81Z"/>
    <path class="cls-1" d="m249.16,944.94c-2.12,3.52-5.96,5.86-10.36,5.86-6.68,0-12.15-5.41-12.15-12.05s5.47-11.79,12.15-11.79c4.37,0,8.18,2.34,10.29,5.73h-2.96c-1.76-2.05-4.37-3.36-7.33-3.36-5.38,0-9.68,4.3-9.68,9.42,0,5.38,4.3,9.67,9.68,9.67,3,0,5.67-1.33,7.4-3.49h2.96Z"/>
    <path class="cls-1" d="m275.84,938.68c0,6.65-5.44,12.05-12.12,12.05s-12.12-5.41-12.12-12.05,5.44-11.79,12.12-11.79,12.12,5.41,12.12,11.79Zm-2.48,0c0-5.12-4.27-9.42-9.64-9.42s-9.64,4.3-9.64,9.42c0,5.38,4.27,9.68,9.64,9.68s9.64-4.3,9.64-9.68Z"/>
    <path class="cls-1" d="m279.59,927.22h2.87l14.56,20v-20h2.38v23.26h-2.87l-14.56-20v20h-2.38v-23.26Z"/>
    <path class="cls-1" d="m314.35,931.97c-.49-1.53-2.05-2.74-3.81-2.74-2.54,0-4.2,1.82-4.2,3.84s1.4,2.93,4.2,3.81c4.33,1.37,7.56,3.06,7.56,7.13s-3.36,6.74-7.56,6.74c-3.88,0-7.04-2.61-7.49-6.22h2.48c.46,2.25,2.51,3.84,5.02,3.84,2.83,0,5.08-1.66,5.08-4.37,0-2.15-1.4-3.32-5.08-4.46-4.33-1.34-6.68-2.96-6.68-6.48s2.67-6.22,6.68-6.22c3.26,0,5.9,2.12,6.42,5.12h-2.61Z"/>
    <path class="cls-1" d="m326.96,929.5h-7.88v-2.28h18.11v2.28h-7.85v20.98h-2.38v-20.98Z"/>
    <path class="cls-1" d="m340.12,927.22h7.62c4.43,0,7.43,2.9,7.43,7.23,0,3.62-2.05,6.22-5.34,7l7.1,9.02h-3.16l-6.94-8.8h-4.33v8.8h-2.38v-23.26Zm7.62,12.18c2.96,0,4.95-1.99,4.95-4.95s-1.95-4.95-4.95-4.95h-5.25v9.9h5.25Z"/>
    <path class="cls-1" d="m359.21,942.07v-14.86h2.38v14.86c0,4.11,2.44,6.55,6.58,6.55s6.52-2.44,6.52-6.55v-14.86h2.38v14.86c0,5.6-3.29,8.93-8.89,8.93s-8.96-3.32-8.96-8.93Z"/>
    <path class="cls-1" d="m402.51,944.94c-2.12,3.52-5.96,5.86-10.36,5.86-6.68,0-12.15-5.41-12.15-12.05s5.47-11.79,12.15-11.79c4.37,0,8.18,2.34,10.29,5.73h-2.96c-1.76-2.05-4.37-3.36-7.33-3.36-5.38,0-9.68,4.3-9.68,9.42,0,5.38,4.3,9.67,9.68,9.67,3,0,5.67-1.33,7.4-3.49h2.96Z"/>
    <path class="cls-1" d="m412.03,929.5h-7.88v-2.28h18.11v2.28h-7.85v20.98h-2.38v-20.98Z"/>
    <path class="cls-1" d="m425.19,927.22h2.38v23.26h-2.38v-23.26Z"/>
    <path class="cls-1" d="m455.55,938.68c0,6.65-5.44,12.05-12.12,12.05s-12.12-5.41-12.12-12.05,5.44-11.79,12.12-11.79,12.12,5.41,12.12,11.79Zm-2.48,0c0-5.12-4.27-9.42-9.64-9.42s-9.64,4.3-9.64,9.42c0,5.38,4.27,9.68,9.64,9.68s9.64-4.3,9.64-9.68Z"/>
    <path class="cls-1" d="m459.3,927.22h2.87l14.56,20v-20h2.38v23.26h-2.87l-14.56-20v20h-2.38v-23.26Z"/>
    <path class="cls-1" d="m514.98,944.94c-2.12,3.52-5.96,5.86-10.36,5.86-6.68,0-12.15-5.41-12.15-12.05s5.47-11.79,12.15-11.79c4.37,0,8.18,2.34,10.29,5.73h-2.96c-1.76-2.05-4.37-3.36-7.33-3.36-5.38,0-9.68,4.3-9.68,9.42,0,5.38,4.3,9.67,9.68,9.67,3,0,5.67-1.33,7.4-3.49h2.96Z"/>
    <path class="cls-1" d="m541.66,938.68c0,6.65-5.44,12.05-12.12,12.05s-12.12-5.41-12.12-12.05,5.44-11.79,12.12-11.79,12.12,5.41,12.12,11.79Zm-2.48,0c0-5.12-4.27-9.42-9.64-9.42s-9.64,4.3-9.64,9.42c0,5.38,4.27,9.68,9.64,9.68s9.64-4.3,9.64-9.68Z"/>
    <path class="cls-1" d="m566.23,932.66l-7.79,17.82h-2.83l-7.82-17.82v17.82h-2.38v-23.26h2.7l8.89,20.65,8.89-20.65h2.7v23.26h-2.38v-17.82Z"/>
    <path class="cls-1" d="m581.44,927.22c4.43,0,7.43,2.9,7.43,7.23s-2.96,7.23-7.43,7.23h-5.25v8.8h-2.38v-23.26h7.62Zm0,12.18c2.96,0,4.95-1.99,4.95-4.95s-1.95-4.95-4.95-4.95h-5.25v9.9h5.25Z"/>
    <path class="cls-1" d="m598.35,927.22h2.57l10.46,23.26h-2.57l-4.17-9.25h-10l-4.17,9.25h-2.57l10.46-23.26Zm1.3,2.87l-4.01,8.86h7.98l-3.97-8.86Z"/>
    <path class="cls-1" d="m613.99,927.22h2.87l14.56,20v-20h2.38v23.26h-2.87l-14.56-20v20h-2.38v-23.26Z"/>
    <path class="cls-1" d="m644.45,943.67l-8.05-16.45h2.57l6.78,13.85,6.78-13.85h2.57l-11.4,23.26h-2.57l3.32-6.81Z"/>
    <path class="cls-1" d="m675.11,927.22c4.43,0,7.43,2.9,7.43,7.23s-2.96,7.23-7.43,7.23h-5.25v8.8h-2.38v-23.26h7.62Zm0,12.18c2.96,0,4.95-1.99,4.95-4.95s-1.95-4.95-4.95-4.95h-5.25v9.9h5.25Z"/>
    <path class="cls-1" d="m683.52,927.22h2.57l8.54,20.2,8.5-20.2h2.57l-9.81,23.26h-2.57l-9.81-23.26Z"/>
    <path class="cls-1" d="m714.89,929.5h-7.88v-2.28h18.11v2.28h-7.85v20.98h-2.38v-20.98Z"/>
    <path class="cls-1" d="m724.63,948.82c0-.98.81-1.79,1.82-1.79s1.79.81,1.79,1.79-.81,1.82-1.79,1.82-1.82-.81-1.82-1.82Z"/>
    <path class="cls-1" d="m742.75,927.22h2.38v20.98h10.72v2.28h-13.1v-23.26Z"/>
    <path class="cls-1" d="m760.14,929.5h-7.88v-2.28h18.11v2.28h-7.85v20.98h-2.38v-20.98Z"/>
    <path class="cls-1" d="m773.31,927.22h6.19c8.44,0,11.83,3.32,11.83,11.63s-3.39,11.63-11.83,11.63h-6.19v-23.26Zm6.19,20.98c6.68,0,9.35-2.67,9.35-9.35s-2.67-9.35-9.35-9.35h-3.81v18.7h3.81Z"/>
    <path class="cls-1" d="m793.44,948.82c0-.98.81-1.79,1.82-1.79s1.79.81,1.79,1.79-.81,1.82-1.79,1.82-1.82-.81-1.82-1.82Z"/>
  </g>
  <g>
    <g>
      <path class="cls-1" d="m436.58,396.5v-38.93l-114.49,61.91v235.87l19.78-.22v-143.61l94.71-51.6v-32.23l-92.51,48.51v-29.85l92.51-49.85Zm-2.16,34.77v27.35l-94.71,51.6v142.77l-15.47.17v-232.4l110.18-59.58v34.04l-92.51,49.85v34.71l92.51-48.51Z"/>
      <polygon class="cls-1" points="341.91 445.08 341.91 479.78 434.42 431.27 434.42 458.62 339.71 510.22 339.71 652.99 324.24 653.16 324.24 420.77 434.42 361.19 434.42 395.23 341.91 445.08"/>
    </g>
    <g>
      <path class="cls-1" d="m368.48,531.34v123.98h35.81v-140.53l-35.81,16.54Zm33.65,121.83h-31.49v-120.45l31.49-14.54v134.99Z"/>
      <polygon class="cls-1" points="402.13 518.18 402.13 653.16 370.64 653.16 370.64 532.72 402.13 518.18"/>
    </g>
    <g>
      <path class="cls-1" d="m430.76,498.33v156.79l15.75.22v-157.01h-15.75Zm13.59,154.83l-11.43-.15v-152.52h11.43v152.67Z"/>
      <polygon class="cls-1" points="444.34 500.49 444.34 653.16 432.91 653.01 432.91 500.49 444.34 500.49"/>
    </g>
    <g>
      <g>
        <path class="cls-1" d="m464.53,0v655.15l30.5.17V17.6L464.53,0Zm28.34,653.16l-26.19-.17V3.73l26.19,15.12v634.31Z"/>
        <polygon class="cls-1" points="492.88 18.85 492.88 653.16 466.69 652.99 466.69 3.73 492.88 18.85"/>
      </g>
      <g>
        <path class="cls-1" d="m518.87,115.92v539.4h17.97V133.89l-17.97-17.97Zm15.81,537.25h-13.65V121.14l13.65,13.65v518.37Z"/>
        <polygon class="cls-1" points="534.68 134.79 534.68 653.16 521.02 653.16 521.02 121.14 534.68 134.79"/>
      </g>
      <g>
        <path class="cls-1" d="m556.79,74.61l5.05,579.46v1.08h34.1V113.76l-39.15-39.15Zm36.99,578.38h-29.81l-4.98-573.12,34.79,34.79v538.32Z"/>
        <polygon class="cls-1" points="593.78 114.67 593.78 652.99 563.97 652.99 558.99 79.87 593.78 114.67"/>
      </g>
    </g>
    <g>
      <path class="cls-1" d="m618,306.25v348.9l23.71.19v-199.22l17.6,13.46v185.57h23.38v-303.15l-64.69-45.75Zm62.53,346.74h-19.07v-184.49l-21.92-16.74v201.4l-19.39-.17v-342.55l60.38,42.69v299.87Z"/>
      <polygon class="cls-1" points="680.54 353.12 680.54 652.99 661.47 652.99 661.47 468.5 639.55 451.76 639.55 653.16 620.16 652.99 620.16 310.44 680.54 353.12"/>
    </g>
    <g>
      <path class="cls-1" d="m702.82,423.38v24.09l31.64,18.18v35.91l-31.64-20.34v174.09l48.9-.17v-199.63l-48.9-32.14Zm46.74,229.61l-44.59.17v-167.99l31.64,20.36v-41.13l-31.64-18.18v-18.85l44.59,29.31v196.31Z"/>
      <polygon class="cls-1" points="749.56 456.68 749.56 652.99 704.98 653.16 704.98 485.18 736.62 505.54 736.62 464.4 704.98 446.22 704.98 427.37 749.56 456.68"/>
    </g>
    <g>
      <g>
        <g>
          <polygon class="cls-1" points="1.08 189.71 1.08 190.79 0 190.79 1.08 189.71"/>
          <path class="cls-1" d="m169.78,173.27v21.83l-7.23,7.25h-80.59v-22.35h-49.61v10.79H1.08v35.35h22.65v26.98h51.77v-26.98h86.28l8.2,8.22v21.14h73.62v-82.23h-73.81Zm-94.28,30.46h-36.67v-12.94h36.67v12.94Zm114.32,30.2l-6.47-7.51v-35.63l6-10.79h37.14l6.47,10.79v36.67l-6.99,6.47h-36.15Z"/>
        </g>
        <circle class="cls-1" cx="207.07" cy="87.25" r="10.79"/>
        <rect class="cls-1" x="77.65" y="146.57" width="150.99" height="6.47" transform="translate(-58.58 182.47) rotate(-53.14)"/>
        <rect class="cls-1" x="149.66" y="131.47" width="88.94" height="10.79" transform="translate(14.27 292) rotate(-75.96)"/>
        <rect class="cls-1" x="214.62" y="90.2" width="10.79" height="86.84" transform="translate(-26.3 58.83) rotate(-14.38)"/>
        <rect class="cls-1" x="321.12" y=".49" width="6.47" height="236.07" transform="translate(124.12 399.88) rotate(-74.63)"/>
        <rect class="cls-1" x="237.27" y="187.55" width="198.44" height="6.47"/>
        <rect class="cls-1" x="239.43" y="222.06" width="196.29" height="6.47"/>
        <rect class="cls-1" x="254.04" y="193.73" width="2.16" height="38.34" transform="translate(-72.27 269.68) rotate(-49.68)"/>
        <rect class="cls-1" x="273.16" y="181.33" width="2.16" height="54.05" transform="translate(-66.99 255.04) rotate(-45.02)"/>
        <rect class="cls-1" x="239.25" y="206.97" width="55.55" height="2.16" transform="translate(-69.34 246.03) rotate(-44.37)"/>
        <rect class="cls-1" x="289.36" y="182.76" width="2.16" height="50.57" transform="translate(-65.85 234.39) rotate(-39.84)"/>
        <rect class="cls-1" x="287.87" y="207.27" width="50.39" height="2.16" transform="translate(-49.08 309.69) rotate(-49.28)"/>
        <rect class="cls-1" x="305.37" y="186.44" width="2.16" height="23.79" transform="translate(-58.26 213.73) rotate(-35.33)"/>
        <rect class="cls-1" x="330.73" y="195.42" width="2.16" height="34.14" transform="translate(-57.67 272.06) rotate(-41.33)"/>
        <polygon class="cls-1" points="337.2 218.63 335.79 217 344.2 209.71 344.2 190.79 346.36 190.79 346.36 210.69 337.2 218.63"/>
        <polygon class="cls-1" points="367.47 306.26 350.51 306.26 350.51 225.52 344.29 210.62 346.28 209.78 352.67 225.3 352.67 304.1 365.31 304.1 365.31 225.3 367.47 225.3 367.47 306.26"/>
        <polygon class="cls-1" points="357.19 203.55 345.28 203.55 345.28 201.39 355.03 201.39 355.03 190.79 357.19 190.79 357.19 203.55"/>
        <rect class="cls-1" x="366.57" y="197.69" width="2.16" height="32.63" transform="translate(-43.64 322.66) rotate(-45)"/>
        <polygon class="cls-1" points="372.16 218.51 370.63 216.99 382.02 205.6 382.02 190.79 384.18 190.79 384.18 206.49 372.16 218.51"/>
        <rect class="cls-1" x="391.84" y="201.98" width="2.16" height="27.76" transform="translate(-37.56 341.06) rotate(-45)"/>
        <rect class="cls-1" x="381.94" y="198.92" width="23.64" height="2.16" transform="translate(-26.09 337.01) rotate(-45)"/>
        <rect class="cls-1" x="390.82" y="206.97" width="48.81" height="2.16" transform="translate(-25.49 354.54) rotate(-45)"/>
        <rect class="cls-1" x="410.59" y="190.63" width="2.16" height="41.42" transform="translate(-21.91 373.05) rotate(-47.63)"/>
        <g>
          <polygon class="cls-1" points="232.96 255.5 232.96 502.07 224.31 510.87 221.01 255.5 232.96 255.5"/>
          <path class="cls-1" d="m224.95,478.62v-.02l-.02-2.52v-.02l-.28-21.72v-.02l-.04-2.55-.28-21.76-.02-2.55-.28-21.74-.04-2.55-.28-21.74-.02-2.55-.28-21.76-.04-2.55v-.02l-.28-21.72v-.02l-.02-2.55-.28-21.76-.04-2.55-.3-24.7-1.1-1.04.09,6.38v.02l.02,1.57-1.08,1.08.19,15.31v.02l1.1.67.02,2.55.04,3.04.02,1.49-1.06,1.06v.02l.19,15.49,1.08.67.04,2.55.04,3.08.02,1.32-1.08,1.08.19,15.6,1.1.67.02,2.55.04,3.11.02,1.19-1.06,1.06.19,15.75,1.1.67v.02l.02,2.55.04,3.13.02,1.01-1.08,1.08.21,15.85,1.08.67.04,2.55.02,3.15.02.88-1.06,1.06.19,15.98,1.1.67.02,2.55.04,3.21.02.71v.02l-1.08,1.06.21,16.09,1.08.67.04,2.55v.02l.04,3.21v.56l-1.06,1.06.22,16.22,1.08.67v.02l.02,2.52v.02l.04,3.24v.47l-1.06,1.06.17,13.29h2.16l-.24-17.39Zm-5.05-224.2l.02,1.08.09,6.58.02,3.02.15,11.07.04,3,.09,7.12.04,3,.19,15.31v.02l.04,2.55.04,3.28.04,2.98v.02l.19,15.49.02,2.55.04,3.17.04,2.98.19,15.6.04,2.55.04,3.04.04,2.98.19,15.75.04,2.55v.02l.02,2.91.04,2.98.21,15.85.02,2.55.04,2.78.04,2.98.19,15.98.04,2.55.04,2.8.02,2.87.21,16.09.04,2.55v.02l.02,2.78.04,2.72.22,16.22v.02l.02,2.52.04,2.85.02,2.61.17,13.29.04,3.02v.02l.04,2.55.04,2.85v.02l.02,2.42.09,6.6,3.21-3.28,7.55-7.7v-248.08h-14.13Zm11.97,247.21l-5.39,5.46-1.14,1.16-.06-5.33-.04-2.55v-.02l-.04-4.36-.24-17.39v-.02l-.02-2.52v-.02l-.28-21.72v-.02l-.04-2.55-.28-21.76-.02-2.55-.28-21.74-.04-2.55-.28-21.74-.02-2.55-.28-21.76-.04-2.55v-.02l-.28-21.72v-.02l-.02-2.55-.28-21.76-.04-2.55-.3-24.7-.04-3-.28-21.68h9.77v245.06Zm-6.92-23.02v-.02l-.02-2.52v-.02l-.28-21.72v-.02l-.04-2.55-.28-21.76-.02-2.55-.28-21.74-.04-2.55-.28-21.74-.02-2.55-.28-21.76-.04-2.55v-.02l-.28-21.72v-.02l-.02-2.55-.28-21.76-.04-2.55-.3-24.7-1.1-1.06v.02l.09,6.38v.02l.02,1.57-1.08,1.08.19,15.31v.02l1.1.67.02,2.55.04,3.04.02,1.49-1.06,1.06v.02l.19,15.49,1.08.67.04,2.55.04,3.08.02,1.32-1.08,1.08.19,15.6,1.1.67.02,2.55.04,3.11.02,1.19-1.06,1.06.19,15.75,1.1.67v.02l.02,2.55.04,3.13.02,1.01-1.08,1.08.21,15.85,1.08.67.04,2.55.02,3.15.02.88-1.06,1.06.19,15.98,1.1.67.02,2.55.04,3.21.02.71v.02l-1.08,1.06.21,16.09,1.08.67.04,2.55v.02l.04,3.21v.56l-1.06,1.06.22,16.22,1.08.67v.02l.02,2.52v.02l.04,3.24v.47l-1.06,1.06.17,13.29h2.16l-.24-17.39Z"/>
        </g>
        <polygon class="cls-1" points="226.46 656.23 186.34 656.23 186.34 255.5 190.66 255.5 190.66 651.91 222.15 651.91 222.17 496 226.49 496 226.46 656.23"/>
        <rect class="cls-1" x="211.72" y="248.71" width="2.16" height="43.77" transform="translate(-129.9 237.97) rotate(-46.38)"/>
        <polygon class="cls-1" points="194.58 290.57 188.5 290.57 188.5 288.41 193.68 288.41 220.48 261.59 222.01 263.12 194.58 290.57"/>
        <rect class="cls-1" x="208.15" y="281.08" width="2.16" height="35.53" transform="translate(-155.01 319.18) rotate(-58.2)"/>
        <polygon class="cls-1" points="194.82 314.82 188.5 314.82 188.5 312.66 193.92 312.66 220.66 285.93 222.25 287.38 222.19 287.44 194.82 314.82"/>
        <rect class="cls-1" x="208.39" y="305.33" width="2.16" height="35.53" transform="translate(-175.51 330.86) rotate(-58.2)"/>
        <polygon class="cls-1" points="195.05 339.06 188.5 339.06 188.5 336.9 194.16 336.9 220.96 310.11 222.48 311.63 195.05 339.06"/>
        <rect class="cls-1" x="208.63" y="329.59" width="2.16" height="35.53" transform="translate(-196.01 342.53) rotate(-58.2)"/>
        <polygon class="cls-1" points="195.29 363.33 188.5 363.33 188.5 361.17 194.4 361.17 221.19 334.37 222.72 335.9 195.29 363.33"/>
        <rect class="cls-1" x="208.86" y="353.84" width="2.16" height="35.53" transform="translate(-216.52 354.2) rotate(-58.2)"/>
        <polygon class="cls-1" points="195.53 387.57 188.5 387.57 188.5 385.41 194.63 385.41 221.43 358.62 222.96 360.14 195.53 387.57"/>
        <rect class="cls-1" x="209.1" y="378.1" width="2.16" height="35.53" transform="translate(-237.02 365.87) rotate(-58.2)"/>
        <polygon class="cls-1" points="195.76 411.84 188.5 411.84 188.5 409.68 194.87 409.68 221.67 382.88 223.19 384.41 195.76 411.84"/>
        <rect class="cls-1" x="209.34" y="402.35" width="2.16" height="35.53" transform="translate(-257.52 377.55) rotate(-58.2)"/>
        <polygon class="cls-1" points="196 436.08 188.5 436.08 188.5 433.93 195.11 433.93 221.91 407.13 223.43 408.65 196 436.08"/>
        <rect class="cls-1" x="209.58" y="426.61" width="2.16" height="35.53" transform="translate(-278.02 389.23) rotate(-58.2)"/>
        <polygon class="cls-1" points="196.24 460.35 188.5 460.35 188.5 458.19 195.34 458.19 222.14 431.39 223.67 432.92 196.24 460.35"/>
        <rect class="cls-1" x="209.81" y="450.86" width="2.16" height="35.53" transform="translate(-298.52 400.91) rotate(-58.2)"/>
        <polygon class="cls-1" points="196.48 484.59 188.5 484.59 188.5 482.44 195.58 482.44 222.38 455.64 223.91 457.16 196.48 484.59"/>
        <rect class="cls-1" x="210.05" y="475.12" width="2.16" height="35.53" transform="translate(-319.02 412.58) rotate(-58.2)"/>
        <polygon class="cls-1" points="196.71 508.85 186.32 508.85 186.32 506.7 195.82 506.7 222.62 479.9 224.15 481.42 196.71 508.85"/>
        <rect class="cls-1" x="209.22" y="499.97" width="2.16" height="33.02" transform="translate(-339.46 422.96) rotate(-58.19)"/>
        <polygon class="cls-1" points="196.95 533.11 186.56 533.11 186.56 530.95 196.06 530.95 222.86 504.15 224.39 505.67 196.95 533.11"/>
        <rect class="cls-1" x="209.34" y="524.28" width="2.16" height="32.74" transform="translate(-359.95 434.54) rotate(-58.2)"/>
        <polygon class="cls-1" points="197.19 557.36 186.8 557.36 186.8 555.21 196.29 555.21 223.1 528.4 224.62 529.93 197.19 557.36"/>
        <rect class="cls-1" x="209.46" y="548.62" width="2.16" height="32.46" transform="translate(-380.47 446.16) rotate(-58.2)"/>
        <polygon class="cls-1" points="197.43 581.62 187.03 581.62 187.03 579.46 196.53 579.46 223.33 552.66 224.86 554.18 197.43 581.62"/>
        <rect class="cls-1" x="209.56" y="572.93" width="2.16" height="32.16" transform="translate(-400.92 457.51) rotate(-58.19)"/>
        <polygon class="cls-1" points="197.66 605.87 187.27 605.87 187.27 603.72 196.77 603.72 223.57 576.91 225.1 578.44 197.66 605.87"/>
        <rect class="cls-1" x="209.68" y="597.26" width="2.16" height="31.88" transform="translate(-421.44 469.11) rotate(-58.19)"/>
        <polygon class="cls-1" points="197.9 630.13 187.51 630.13 187.51 627.97 197.01 627.97 223.81 601.17 225.33 602.69 197.9 630.13"/>
        <rect class="cls-1" x="209.8" y="621.58" width="2.16" height="31.6" transform="translate(-441.94 480.72) rotate(-58.2)"/>
        <circle class="cls-1" cx="360.22" cy="308.34" r="10.79"/>
        <polygon class="cls-1" points="360.22 313.74 369.56 313.74 364.89 321.83 360.22 329.91 355.55 321.83 350.88 313.74 360.22 313.74"/>
      </g>
      <path class="cls-1" d="m618.78,194.09v38.65h60.59l-60.59-38.65Zm6.47,11.8l31.95,20.38h-31.95v-20.38Z"/>
    </g>
    <g>
      <path class="cls-1" d="m300.9,521.44v-26.32l-53.13,33.74v126.29l53.13.17v-102.72l-36.67,22.37v-34.1l36.67-19.43Zm-2.16,35.01v96.72l-48.81-.17v-122.97l48.81-30.97v21.1l-36.67,19.43v39.24l36.67-22.37Z"/>
      <polygon class="cls-1" points="262.08 539.58 262.08 578.81 298.75 556.44 298.75 653.16 249.93 652.99 249.93 530.02 298.75 499.05 298.75 520.14 262.08 539.58"/>
    </g>
  </g>
</svg>