<?xml version="1.0" encoding="utf-8"?>
<!-- Generator: Adobe Illustrator 26.0.1, SVG Export Plug-In . SVG Version: 6.00 Build 0)  -->
<svg version="1.1" id="Layer_1" xmlns="http://www.w3.org/2000/svg" xmlns:xlink="http://www.w3.org/1999/xlink" x="0px" y="0px"
	 viewBox="0 0 578.2 744.4" style="enable-background:new 0 0 578.2 744.4;" xml:space="preserve">
<style type="text/css">
	.st0{fill:#FFFFFF;}
</style>
<g>
	<path class="st0" d="M255.2,106.2c12-10.8,14.8-23.8,17.4-37c1-4.9,3.4-9.5,5.5-15.5c-4.6-6.2,0.6-44.5,8.6-53.8
		c3.4,12.1,9.5,22.8,5.6,35.5c-0.5,1.7,0.5,3.9,0.4,5.8c-0.8,9.2,2.6,17.4,5.7,25.9c4.2,11.6,7.2,23.7,11,35.5
		c0.5,1.4,1.9,2.6,4.6,3.4c-0.5-2.9-0.8-5.8-1.4-8.7c-1.3-6.6-1-13.5,6.3-15.6c4-1.2,10.2,0.2,13.4,2.9c5.1,4.3,5.4,11,2.2,17.2
		c-1.2,2.4-2.8,4.7-4.8,7.8c6.3,1.3,12.2,2.4,18.2,3.6c-0.7,1.9-0.8,2.8-1.2,3.3c-2.1,2.3-6.5,5.8-6,6.6c3,5.2,6,12.5,10.9,14.3
		c69.6,26.4,139.4,52.1,209.2,78c5.3,2,10.1,3.6,13.3-3.2c0.3-0.7,2.1-0.8,4.1-1.5c0,8.7-3.1,15.3-10.2,18.1
		c-15.5,6.2-31.6,11.1-47.2,17c-19.3,7.3-35.4,4-53.6-7.1c-66.9-40.6-140.5-54.8-218.3-46.9c-44.5,4.5-86.3,17.9-125.4,39.5
		c-11.3,6.3-22.4,13.1-33.7,19.5c-1.6,0.9-3.9,1.5-5.6,1.1c-24.9-6.6-50.9-9.6-73.9-22.2c-8.4-4.6-11.1-9.4-9.9-19.2
		c9.2,7.8,17.5,2.2,26-1c62.2-23.2,124.4-46.4,186.6-69.7c2.1-0.8,4.3-1.9,6.5-1.9c4.8-0.1,6.2-2.4,6.9-6.9
		c0.6-3.7,3.1-7.2,4.7-10.8c-2.7-1.8-5.4-3.7-9.8-6.8c7.9-1.9,13.8-3.3,20.7-5c-7.2-7.6-11.3-15.2-4.3-23.8
		c3.9-4.8,9.6-6.4,14.9-3.1C261.9,87.8,259.4,96.5,255.2,106.2L255.2,106.2z"/>
	<path class="st0" d="M460.6,300.3c-13.9,17-27.4,33.7-41.6,51.1c-2.1-2.4-4.1-5.1-6.5-7.4c-31.2-31-68.8-49.3-112.7-52.7
		c-47.1-3.6-88.8,11.5-126.4,39.4c-16.4,12.2-11.3,13.8-27.7-2.4c-9.1-9-18.7-17.4-28.1-26C197.6,224,332.9,200,460.6,300.3
		L460.6,300.3z"/>
	<path class="st0" d="M350.1,421.1c-32.5-37.9-81.7-43.8-120.5,0.2c-13.9-16.5-27.6-32.9-41.2-49.1c51.8-50.4,143.5-53.8,201.4,6.4
		C376.5,392.8,363.3,407,350.1,421.1z"/>
	<path class="st0" d="M253,451.8c-0.1-20.4,15.5-36.1,36.1-36.3c19.4-0.1,35.6,15.9,36.1,35.7c0.4,18.8-16.2,35.6-35.8,36
		C270.5,487.6,253.1,470.7,253,451.8z"/>
</g>
<g>
	<path class="st0" d="M237.4,599.2c9.1-21,38.7-21.8,48.5-2.5c1.6-2.4,2.9-4.9,4.7-7c9.9-11.4,31.8-9.4,39.1,4.1
		c3.2,5.9,5.2,13.1,5.6,19.8c0.9,13.8,0.2,27.6,0.3,41.4c0,2.7-0.7,4-3.7,3.9c-4.7-0.2-9.4-0.1-14,0c-3,0.1-4-1-4-4.1
		c0.1-11.8,0.2-23.6,0-35.4c-0.1-3.8-0.8-7.7-2-11.4c-1.3-4.2-4.9-6.4-9.3-6.7c-4.5-0.3-8.7,1.2-10.6,5.3c-1.7,3.7-3,7.9-3.1,11.9
		c-0.4,13.2-0.1,26.3-0.1,40.1c-6.8,0-13.3,0.1-19.8-0.2c-0.7,0-1.8-2.2-1.8-3.5c-0.2-11.3-0.1-22.7-0.2-34c0-3.2-0.2-6.5-0.7-9.7
		c-1-5.6-4.5-8.9-9.9-9.8c-4.8-0.8-9.4,1.3-11.8,6.4c-1.4,3.1-2.2,6.8-2.3,10.3c-0.3,11.3-0.1,22.7-0.1,34c0,4.2-2.1,6.4-6.1,6.5
		c-3.6,0-7.2-0.1-10.8,0.1c-3.6,0.3-4.9-0.9-4.8-4.7c0.2-20.2,0.1-40.4,0.2-60.6c0-9.4,0.1-9.4,9.6-9.4c5.4,0,8,2.8,7.7,8.3
		C237.9,595,237.6,597.1,237.4,599.2L237.4,599.2z"/>
	<path class="st0" d="M100.7,623.8c8,11.6,15.9,22.9,24.6,35.4c-6.3,0-11.4-0.5-16.4,0.1c-7.2,0.9-11.9-1.4-15.5-7.8
		c-4.2-7.4-9.3-14.3-14.2-21.3c-0.8-1.2-2.6-1.8-3.9-2.7c-0.1-0.1-0.3,0-0.5,0c-9-0.8-13.6,3.3-13.6,12.2c0,6.2,0,12.4,0,19.5
		c-7,0-13.7,0.1-20.3-0.1c-0.7,0-1.9-1.6-1.9-2.5C39,624.5,39,592.4,39,560.7c0.8-0.7,1-1,1.3-1c16.5,0.2,33.1-0.3,49.5,0.9
		c12.2,0.9,22.5,6.9,26.2,19.3c4.2,13.8,4.8,27.8-7.7,38.6C106.2,620.3,103.6,621.8,100.7,623.8L100.7,623.8z M61.3,609.6
		c7.6,0,14.6,0.6,21.5-0.2c7.4-0.8,12.9-8.1,12.9-15.5c0-7.7-4.8-13.7-12.8-14.8c-6.1-0.9-12.4-0.8-18.6-0.8c-1,0-2.8,1.7-2.8,2.7
		C61.2,590.3,61.3,599.8,61.3,609.6L61.3,609.6z"/>
	<path class="st0" d="M431.4,622.5c0.4,21.8-16.1,38.1-39.2,38.6c-25.7,0.5-42.9-14.5-43.3-37.8c-0.3-22.4,17.8-41.2,40.6-41.2
		C413.3,582.1,431.6,597.9,431.4,622.5z M371.2,621.9c0.2,16.2,9.8,22.8,22.5,21c10.6-1.6,14.4-6.8,15.6-18.9
		c0.9-9.3-4.1-18.4-12.1-21.7C383.9,596.7,371.2,606.3,371.2,621.9L371.2,621.9z"/>
	<path class="st0" d="M206.7,627.6h-54.2c-0.2,6.1,4.1,12.5,9.8,14.7c7.3,2.8,15.5,1.1,19.9-3.7c1.3-1.5,3.7-2.5,5.7-2.7
		c5.4-0.4,10.9-0.1,17.2-0.1c-0.9,2.7-1.3,4.8-2.2,6.6c-7.6,15.5-24.1,22.4-43.3,18.5c-15.2-3.1-27.8-17.9-28.1-33.6
		c-0.1-6.6,0-13.5,1.8-19.8c4.7-16.7,22-27,41.4-25.6c14,1,27.7,14.9,30.5,31.1C206.1,617.5,206.2,622.2,206.7,627.6L206.7,627.6z
		 M152.3,614.8h32.2c-0.2-8.1-4.6-13.4-11.9-14.4C162.3,598.9,155.8,603.4,152.3,614.8z"/>
	<path class="st0" d="M521.4,628.3c2.2,7,5.1,12.9,12.2,14.7c7.3,1.9,14.2,1.1,19.3-5.6c0.6-0.8,2-1.5,3.1-1.5
		c5.8-0.1,11.5-0.1,18.2-0.1c-0.8,2.6-1.1,4.9-2,6.8c-6.4,13.7-20.8,20.8-37.9,18.9c-24.9-2.8-38.7-26.1-32.3-52.3
		c5.9-24.6,38.1-32.9,53.2-23.9c12.8,7.6,22,24.1,20.3,39.4c-0.1,1-2.4,2.5-3.7,2.5c-14.8,0.2-29.7,0.2-44.5,0.2
		C525.5,627.7,523.7,628,521.4,628.3L521.4,628.3z M553.6,615c0.3-8.9-7-15.6-16-15.1c-9.1,0.4-15.9,7.3-15,15.1H553.6z"/>
	<path class="st0" d="M468.9,600.4c0,10.4-0.4,19.8,0.1,29.3c0.5,9.1,3.4,11.6,12.6,11.8c2.9,0.1,5.9,0,9.1,0v18.7
		c-11.2,0-22.4,0.7-32.5-5.2c-5.8-3.3-7.9-9.2-8.3-15.4c-0.7-11.3-1-22.6-1-33.9c0-4.2-1.3-5.8-5.4-5.1c-4.7,0.8-6.7-1.1-6-5.8
		c0.1-0.8,0-1.5,0-2.3c0.1-7.3,0.1-7.5,7.5-7.7c3-0.1,3.7-1.4,3.7-4c-0.1-4,0.1-8.1,0-12.1c0-2.5,1-3.6,3.6-3.5
		c5.1,0.1,10.3,0,16.1,0c0,5.2,0.2,10.3-0.1,15.3c-0.1,3.2,0.8,4.5,4.2,4.3c4.8-0.2,9.7,0.1,14.5-0.1c2.8-0.1,3.9,0.9,3.8,3.8
		c-0.2,3.8,0,7.7,0,12.1L468.9,600.4L468.9,600.4z"/>
	<path class="st0" d="M255.1,698.5c0,1.9,0,3.9,0,5.8c0,10.9,0,21.8,0,32.6c0,1.5,0.1,3.2-0.4,4.6c-0.4,0.9-1.8,1.9-2.7,1.9
		c-0.8,0-1.8-1.4-2.2-2.3c-0.4-0.8-0.1-1.8-0.1-2.8c0-15.4-0.1-30.8-0.1-46.1c0-1.9,0.6-3.8,0.9-5.7c0.6-0.3,1.1-0.5,1.6-0.8
		c2.4,2.5,5.3,4.8,7.2,7.7c7.5,11.2,14.8,22.6,22.2,34c1,1.5,2.3,2.9,3.9,5c0.4-1.6,0.7-2.4,0.7-3.2c0-12.4,0-24.9,0-37.3
		c0-2.2-0.2-5,2.9-4.6c1.2,0.2,3,2.9,3,4.5c0.3,14.8,0.5,29.5,0.3,44.3c0,2.8-1.7,5.6-2.6,8.4c-2.2-1.8-4.9-3.2-6.4-5.4
		c-8.5-12.5-16.6-25.1-24.9-37.8c-0.7-1.1-1.4-2.1-2.1-3.2C255.9,698.2,255.5,698.3,255.1,698.5L255.1,698.5z"/>
	<path class="st0" d="M187.6,713.7c2.6,3.1,5.8,5.5,7.2,8.7c4.1,9.3-2.4,19.8-12.8,20.6c-6.8,0.5-13.7,0.3-20.6,0
		c-1.1,0-3-2.2-3-3.4c-0.1-16.3,0.2-32.6,0.2-48.9c0-2.5,0.8-3.7,3.5-3.6c6.5,0.3,13.1,0.2,19.6,0.8c6.6,0.6,10.9,4.9,12.6,11.4
		c1.6,6.1-1,10.2-5.9,13.4C188.1,712.9,187.9,713.4,187.6,713.7L187.6,713.7z M164.9,727.5c0,2.5-0.4,5,0.1,7.4
		c0.3,1.3,2.1,3.4,3.1,3.4c5.2-0.2,10.5-0.8,15.7-1.6c8-1.2,8.1-11.1,4-15.5c-3.6-3.8-8.4-4.1-12.9-4
		C164,717.3,164.4,714.4,164.9,727.5L164.9,727.5z M173.6,712.3c2.2-0.2,5.4-0.3,8.4-1c4.3-0.9,7.1-4.7,7.2-9.1
		c0-4.4-1.9-7.7-6.3-8.6c-4.8-1-9.8-1.2-14.7-1.8c-2.9-0.3-4,0.9-3.8,3.7c0.2,4.5,0.4,9,0.4,13.5c0,2.6,1.2,3.6,3.8,3.3
		C169.9,712.2,171.3,712.3,173.6,712.3z"/>
	<path class="st0" d="M111.8,687.6c15.4,0.3,26.3,11.5,26.1,26.8c-0.2,17.7-11.9,29.6-28.5,29.5c-13.8,0-28.2-12-26.7-33
		C83.5,697.6,95.7,687.4,111.8,687.6L111.8,687.6z M88.3,715.3c-0.1,14,9.2,23.8,22.6,23.8c12.1,0,20.8-9.6,21.1-23.2
		c0.2-12.8-9.5-23.6-21.4-23.8C98.1,691.9,88.4,702,88.3,715.3z"/>
	<path class="st0" d="M464.6,741.4c-0.6,0.8-1.2,2.3-2,2.5c-0.9,0.2-2.7-0.4-3.1-1.1c-1.5-2.7-3-5.5-3.8-8.4c-0.8-3-2.5-4.1-5.3-4.1
		c-6.2,0-12.5-0.2-18.7,0.2c-1.5,0.1-3.4,2-4.3,3.6c-1.2,2.1-1.2,5-2.6,6.9c-0.9,1.3-3.3,1.6-5,2.3c-0.2-1.5-0.9-3.1-0.5-4.3
		c5.7-15.5,11.6-31,17.5-46.5c0.9-2.4,1.6-4.5,5-4.4c3.6,0.1,3.7,2.5,4.6,4.8c5.3,14,10.7,28,16.1,42
		C463.1,736.8,463.8,738.9,464.6,741.4L464.6,741.4z M441.6,696.1c-3.7,10-7.1,19.4-10.6,28.7h21.1
		C448.6,715.1,445.2,705.9,441.6,696.1z"/>
	<path class="st0" d="M371.2,719.7v23.1c-3.9,1.1-5.2,0.1-5.1-3.6c0.1-15.7,0.1-31.3-0.2-47c-0.1-3.9,1.3-5.2,5.1-5
		c5,0.3,10-0.1,15,0.3c7,0.6,12.5,3.7,14.9,10.8c2.4,7.2,1,14.3-4.8,17.9c-3.7,2.3-8.7,2.8-13.2,3.5
		C379.2,720.1,375.4,719.7,371.2,719.7L371.2,719.7z M371.4,715.8c6.2-0.7,12-0.9,17.5-2.1c4.8-1,6.9-5.4,6.7-10.9
		c-0.2-5.6-2.5-8.8-7.6-9.7c-5.4-0.9-11-1.1-16.7-1.7L371.4,715.8L371.4,715.8z"/>
	<path class="st0" d="M315.2,743.4v-56.1c9.2,0,18.4-0.1,27.5,0.1c0.8,0,1.5,1.4,2.3,2.2c-0.9,0.8-1.8,2.1-2.8,2.1
		c-5.8,0.2-11.5,0.3-17.3,0c-3.1-0.1-4.2,1.2-4.1,4.1c0.1,4.7,0.1,9.3,0,14c-0.1,2.6,1,3.5,3.6,3.5c4.7-0.1,9.4-0.2,14,0.1
		c1.3,0.1,2.5,1.5,3.8,2.3c-1.3,0.8-2.5,2.1-3.8,2.2c-4.4,0.3-8.7,0.3-13.1,0c-3.6-0.2-4.7,1.3-4.5,4.6c0.2,4,0.2,8.1,0.1,12.1
		c0,2.7,1.1,3.9,3.9,3.8c5.3-0.2,10.6-0.2,15.9,0.1c1.3,0.1,2.6,1.7,3.9,2.6c-1.3,0.8-2.5,2.2-3.8,2.2
		C332.5,743.5,324.1,743.4,315.2,743.4L315.2,743.4z"/>
	<path class="st0" d="M34.8,726.7c1.1,2,2.2,3.7,2.9,5.5c1.9,4.6,6.1,7.3,10.5,6.5c4.2-0.8,6.5-3.9,6.5-9.4
		c0.1-12.1-0.1-24.2,0.1-36.3c0-2.1,1.6-6.1,2.3-6.1c3.7,0.1,3.2,3.4,3.2,6c0,12.4,0.1,24.8,0,37.3c-0.1,7.7-5.2,13.2-12.4,13.9
		c-8.3,0.7-14.6-3.3-16.3-10.6C30.8,730.2,31.1,729.5,34.8,726.7z"/>
	<path class="st0" d="M484.5,715.3c0-7.9,0-15.8,0-23.8c0-2.3-0.1-4.9,3-4.4c1.2,0.2,2.7,2.7,2.7,4.2c0.3,13.5,0.3,27,0.3,40.5
		c0,6.4,0.2,6.7,6.5,6.6c3.4,0,6.9-0.3,10.3,0c1,0.1,1.9,1.4,2.9,2.2c-0.9,1-1.8,2.9-2.7,2.9c-6.9,0.1-13.7,0-20.6-0.5
		c-0.9-0.1-2.3-2.5-2.4-3.9C484.2,731.1,484.4,723.2,484.5,715.3C484.4,715.3,484.4,715.3,484.5,715.3L484.5,715.3z"/>
</g>
</svg>
