<svg width="2757" height="1014" viewBox="0 0 2757 1014" fill="none" xmlns="http://www.w3.org/2000/svg">
<path d="M1640.78 359.614C1641.73 357.332 1642.68 355.24 1643.25 352.958C1665.51 287.159 1709.07 240.186 1771.09 209.759C1806.47 192.454 1843.95 183.515 1883.14 185.227C1972.74 189.03 2068.23 234.101 2110.09 346.492C2125.31 387.379 2130.06 429.787 2121.31 472.956C2100.19 576.219 2038.94 642.399 1936.59 669.213C1844.33 693.555 1743.31 656.471 1685.67 584.206C1666.65 560.435 1650.86 534.952 1641.54 505.666C1641.16 504.525 1640.78 503.383 1639.82 500.911C1638.49 503.954 1637.35 506.046 1636.59 507.948C1621.18 550.736 1597.97 588.39 1562.4 617.676C1526.26 647.533 1484.97 666.17 1438.56 673.206C1370.07 683.666 1308.82 666.36 1253.27 626.234C1207.8 593.334 1177.55 549.215 1162.53 495.586C1127.52 371.975 1197.15 228.396 1343.44 191.693C1426.95 175.528 1503.24 189.791 1568.11 247.793C1599.88 276.319 1622.51 311.501 1636.4 352.007C1637.35 354.479 1638.3 356.952 1639.25 359.424C1639.83 359.424 1640.4 359.234 1640.97 359.044L1640.78 359.614ZM2075.46 292.293C2070.52 296.097 2066.71 298.949 2062.91 301.802C2052.83 309.029 2051.11 308.648 2044.45 298.569C2036.66 286.588 2027.52 275.749 2016.68 266.62C1978.25 233.911 1935.26 210.71 1884.66 203.483C1853.08 198.919 1821.88 199.3 1791.63 210.139C1716.3 236.954 1667.6 289.251 1645.53 365.89C1643.82 371.785 1643.63 378.631 1644.96 384.526C1651.81 416.095 1650.48 447.473 1644.39 478.851C1643.06 486.268 1643.44 492.924 1645.53 500.151C1652.19 523.351 1664.56 543.7 1677.49 563.858C1678.82 565.76 1680.35 567.471 1682.06 569.753C1689.29 564.619 1696.13 559.864 1703.55 554.54C1706.6 557.963 1709.64 560.435 1711.73 563.668C1737.23 599.23 1770.71 624.903 1811.04 641.258C1827.21 647.723 1844.14 652.478 1860.88 657.232C1897.02 667.311 1933.36 665.029 1967.79 652.288C2057.77 618.817 2105.71 550.546 2118.84 457.742C2126.64 402.783 2112.18 351.056 2083.64 303.513C2081.55 299.9 2078.89 296.667 2075.65 292.484L2075.46 292.293ZM1216.74 561.005C1121.81 414.764 1219.22 246.272 1358.28 224.592C1356.56 226.114 1355.61 227.065 1354.47 228.016C1340.2 238.855 1327.84 251.597 1317.19 266.05C1279.9 316.826 1259.16 373.496 1257.07 436.633C1256.69 446.522 1259.17 456.411 1260.31 467.441C1261.64 465.92 1262.02 465.73 1262.02 465.539C1262.21 463.447 1262.59 461.356 1262.59 459.264C1264.11 413.623 1277.05 371.595 1300.07 332.229C1316.43 304.084 1337.16 279.552 1359.8 256.161C1367.6 248.174 1376.35 241.328 1384.91 233.721C1398.04 240.947 1410.21 248.934 1420.87 258.443C1441.98 277.46 1448.64 300.661 1441.41 328.046C1436.84 345.161 1428.47 360.565 1418.96 375.208C1405.84 395.176 1389.67 412.672 1373.5 430.358C1360.18 444.811 1347.05 459.454 1335.45 475.048C1314.52 503.383 1304.06 535.713 1305.77 570.894C1306.72 589.341 1312.24 607.597 1315.47 626.044C1316.43 631.749 1319.28 634.982 1324.42 637.264C1347.24 647.723 1371.21 654.76 1396.13 658.753C1443.88 666.55 1488.59 658.373 1530.25 633.841C1583.33 602.463 1616.05 555.49 1634.31 497.488C1635.83 492.544 1636.02 486.648 1635.07 481.514C1628.6 447.473 1629.93 413.623 1636.02 379.962C1636.59 376.349 1636.59 372.165 1635.45 368.552C1628.6 344.21 1617.95 321.77 1604.82 300.281C1603.11 297.618 1600.83 295.146 1598.73 292.484C1590.55 298.189 1583.33 303.323 1575.53 308.838C1576.86 310.93 1578.19 313.593 1579.9 316.065C1600.07 344.21 1610.72 375.969 1616.05 409.629C1618.52 426.174 1619.28 442.529 1614.9 459.074C1609.58 478.851 1605.39 499.01 1600.45 518.787C1598.93 524.493 1596.83 530.388 1593.98 535.522C1570.2 579.832 1535.58 612.732 1490.3 634.411C1461.96 647.914 1431.9 655.14 1400.13 654.76C1384.15 654.57 1368.74 650.576 1352.76 645.632C1366.65 625.473 1383.2 610.45 1406.03 603.033C1421.63 598.089 1437.03 600.371 1452.63 602.082C1461.38 603.033 1470.14 603.794 1478.7 603.033C1492.39 602.082 1500.57 593.334 1501.71 579.452C1502.1 574.317 1502.09 569.183 1501.14 564.238C1499.81 557.582 1500.76 551.687 1504.19 545.982C1507.8 539.896 1510.47 534.001 1502.86 528.106C1511.61 523.161 1513.13 515.935 1511.42 507.567C1511.42 506.997 1511.42 506.426 1511.23 505.856C1510.28 498.819 1512.56 493.495 1519.03 490.072C1522.26 488.36 1525.3 486.458 1528.35 484.556C1535.2 479.802 1535.96 476.569 1532.34 469.153C1530.82 465.92 1528.73 462.877 1526.82 459.834C1515.03 441.007 1504.76 421.61 1501.71 399.36C1499.81 385.858 1498.1 372.546 1496.39 359.044C1494.11 340.977 1490.87 323.291 1483.64 306.366C1469.37 272.896 1448.64 245.131 1413.83 230.488C1407.74 228.016 1401.27 226.114 1395.18 223.832C1393.47 223.261 1391.95 222.31 1388.72 220.599C1455.11 218.317 1509.89 241.137 1557.07 284.306C1554.22 280.122 1550.99 276.319 1547.56 273.086C1524.16 251.216 1498.29 232.96 1468.99 220.409C1430 203.483 1389.48 196.447 1347.05 202.152C1321.75 205.575 1297.59 213.563 1275.53 226.684C1194.29 274.227 1148.64 371.024 1162.34 464.018C1167.66 500.911 1181.36 534.191 1201.9 565.189C1202.86 566.711 1203.62 568.232 1204.76 570.134C1209.7 566.33 1213.32 563.668 1217.12 560.625L1216.74 561.005ZM1375.02 278.791C1375.02 278.791 1373.88 277.84 1373.31 277.46C1371.21 279.362 1368.93 281.264 1367.22 283.355C1362.65 288.49 1358.28 293.815 1353.52 299.14C1321.56 335.272 1301.78 377.3 1291.5 424.082C1290.55 428.266 1289.03 432.64 1290.74 438.155C1294.17 436.063 1297.21 434.922 1299.69 432.83C1320.61 415.524 1342.68 399.55 1361.51 379.962C1374.45 366.27 1386.24 351.817 1394.8 335.082C1399.37 326.334 1402.41 317.396 1401.84 307.317C1401.27 297.999 1397.09 290.582 1389.48 284.687C1378.06 313.402 1363.22 339.076 1339.82 359.234C1357.9 335.082 1370.64 308.648 1375.4 278.981L1375.02 278.791ZM1639.64 467.061C1643.63 444.43 1646.86 421.8 1639.82 399.36C1635.26 421.99 1634.69 444.621 1639.64 467.061Z" fill="white"/>
<path d="M826.952 11.03C846.927 6.46586 867.282 3.80342 888.588 0C888.778 4.56411 889.159 7.60688 889.159 10.8398C889.159 35.562 889.159 60.2843 889.159 85.1967C889.159 247.603 889.159 410.009 889.159 572.415C889.159 588.39 888.778 604.364 888.778 620.339C888.778 625.663 889.349 631.178 890.301 636.503C892.774 649.625 902.475 658.943 915.791 661.416C918.074 661.796 920.547 662.747 922.83 663.317C922.83 664.078 922.831 664.648 922.641 665.409C920.358 665.789 918.265 666.17 915.982 666.36C890.3 666.74 864.619 667.121 838.937 667.501C833.04 667.501 827.523 666.93 822.767 662.937C820.484 661.035 817.63 659.894 814.967 658.373C795.753 647.913 785.862 631.559 785.862 609.879C785.862 546.172 786.241 482.464 786.241 418.757C786.241 410.58 786.052 402.402 784.339 394.415C781.866 382.244 774.638 377.49 762.273 377.68C745.912 377.87 729.552 391.372 724.226 409.058C720.611 420.659 722.133 431.689 728.601 442.148C730.884 445.952 733.927 449.565 736.4 453.178C752.189 475.428 761.322 499.96 762.273 527.155C763.034 549.405 759.799 570.894 750.858 591.623C721.562 659.133 653.458 683.095 601.714 676.439C536.273 667.881 476.349 622.811 459.608 549.785C455.994 534.001 455.233 517.456 455.233 501.291C455.233 414.003 455.423 326.714 455.803 239.616C455.803 229.346 454.661 219.648 447.242 211.851C442.106 206.526 436.209 202.532 428.6 201.772C426.127 201.582 423.654 200.631 419.469 199.68C426.888 193.975 434.116 195.116 440.394 193.594C447.433 191.883 454.471 190.361 461.7 189.03C468.359 187.699 475.208 186.748 482.817 185.417C483.008 189.601 483.387 192.453 483.387 195.496C483.387 299.139 483.197 402.593 483.387 506.236C483.387 523.732 482.817 541.608 486.051 558.533C496.894 614.824 532.088 649.625 586.115 666.93C641.854 684.616 728.22 655.901 751.239 575.268C763.604 531.719 757.136 490.071 728.982 453.558C718.138 439.296 713.762 424.272 719.089 406.966C725.747 384.907 746.672 370.644 769.501 371.975C790.426 373.306 809.26 390.612 812.875 413.052C814.206 420.659 814.587 428.646 814.587 436.443C814.587 500.531 814.587 564.428 814.397 628.516C814.397 641.257 819.533 650.386 829.235 657.802C834.181 661.606 838.937 661.796 844.264 658.373C854.156 652.287 860.434 643.92 860.814 631.939C861.195 623.762 861.384 615.584 861.384 607.597C861.384 430.357 861.384 253.118 861.384 75.8783C861.384 65.0386 861.385 54.1988 860.624 43.3591C859.482 29.0962 849.019 18.2565 835.132 15.5941C832.469 15.0236 829.996 14.453 827.333 13.8825C827.333 12.9317 827.333 12.171 827.333 11.2201L826.952 11.03Z" fill="white"/>
<path d="M426.697 163.357C416.805 157.462 408.245 150.996 400.445 143.579C398.923 142.248 398.542 139.205 398.542 136.923C396.639 100.791 380.47 72.2649 352.505 50.3952C311.795 18.4464 265.378 2.85234 213.634 4.94422C177.299 6.46559 142.866 15.784 110.907 33.8503C91.6928 44.8802 76.2839 60.284 63.5382 77.97C38.8076 112.771 35.9546 149.855 54.5977 188.269C68.1044 216.224 89.6001 236.573 116.804 250.645C186.81 286.778 257.197 322.15 327.204 358.092C341.662 365.509 355.93 373.496 369.817 382.054C390.553 394.985 407.293 412.481 420.419 433.21C449.525 478.851 450.096 525.633 425.366 573.176C413 596.567 395.119 615.394 373.432 630.227C330.439 659.323 283.259 675.678 230.945 677.009C189.854 677.96 150.476 671.875 112.81 654.95C88.6497 644.11 66.7724 629.657 47.1782 611.971C20.9258 588.39 6.84816 558.152 0.570404 524.112C-0.380772 519.357 0.190537 514.413 0.000302073 509.659C0.000302073 508.327 0.380354 506.806 0.760824 504.714C3.23388 505.855 5.32661 506.426 6.84849 507.377C10.8434 510.039 14.648 513.272 18.643 515.744C26.6328 520.689 30.2476 526.774 30.8183 536.853C31.9597 561.385 42.8033 582.684 58.4026 601.511C73.0507 619.197 90.7416 633.08 110.907 643.92C150.285 665.029 192.138 673.206 236.653 670.353C275.08 667.881 310.654 656.471 343.565 636.693C379.329 615.394 402.157 584.206 410.147 542.939C414.142 522.21 411.479 502.052 402.918 482.845C391.884 457.742 375.143 436.823 352.315 421.609C341.852 414.573 330.628 408.297 319.405 402.592C250.73 367.03 182.055 332.039 113.38 296.477C98.7316 288.87 84.0836 280.502 70.7672 270.804C40.71 248.744 20.9256 219.457 13.6967 182.374C7.98962 154.038 12.9354 127.034 26.4421 101.741C42.2316 71.8845 65.6312 49.064 94.9274 32.5191C123.082 16.5447 153.14 6.84596 185.479 2.66219C231.136 -3.23312 275.27 1.33098 318.073 17.8759C350.983 30.6173 379.329 50.205 401.396 78.3503C416.995 98.3183 425.936 121.139 429.931 145.861C430.692 151.186 431.643 156.701 427.077 162.786L426.697 163.357Z" fill="white"/>
<path d="M2710.47 881.634C2709.71 886.198 2708.95 893.424 2707.05 900.46C2704.95 908.258 2700.58 911.11 2692.21 910.92C2683.46 910.92 2676.99 907.117 2675.09 900.27C2674.32 897.418 2673.94 894.375 2673.75 891.332C2672.42 841.507 2649.78 804.424 2606.98 779.512C2579.02 763.347 2548.58 753.268 2516.62 749.655C2490.94 746.612 2464.88 745.281 2439.19 742.048C2399.24 736.723 2358.91 739.195 2318.97 739.005C2290.62 739.005 2262.28 741.287 2233.93 742.809C2209.58 744.14 2185.04 745.471 2160.69 747.563C2123.02 750.606 2085.55 754.219 2048.07 757.642C2021.63 760.114 1995.19 762.967 1968.74 765.439C1931.27 769.052 1893.6 772.665 1856.12 775.898C1820.93 778.751 1785.74 781.413 1750.54 783.695C1692.33 787.118 1634.12 788.64 1575.91 787.118C1543.95 786.168 1511.99 785.027 1480.03 781.984C1428.09 776.849 1376.54 768.101 1327.46 749.465C1304.63 740.907 1283.14 729.116 1260.88 718.847C1258.79 717.896 1256.31 716.565 1255.17 714.663C1254.03 712.952 1253.27 709.909 1254.22 708.388C1255.17 706.866 1258.21 705.535 1260.12 705.725C1263.35 706.106 1266.39 707.817 1269.44 709.338C1306.91 728.165 1346.29 741.097 1387.57 748.324C1406.03 751.556 1424.29 755.55 1442.93 757.452C1473.56 760.495 1504.19 763.537 1535.01 764.298C1582.95 765.439 1631.07 765.819 1679.01 764.298C1733.8 762.396 1788.78 758.593 1843.38 754.219C1902.54 749.465 1961.7 742.999 2020.87 737.294C2052.64 734.251 2084.6 731.969 2116.37 728.356C2173.44 721.89 2230.7 719.608 2287.96 716.755C2323.53 715.044 2359.1 715.044 2394.87 715.234C2426.64 715.234 2458.22 716.185 2489.8 718.086C2529.75 720.559 2568.93 727.405 2606.03 743.189C2649.78 762.016 2682.5 791.873 2701.53 836.183C2707.42 849.875 2710.66 864.328 2710.85 881.824L2710.47 881.634Z" fill="white"/>
<path d="M2169.44 187.128C2169.44 189.981 2169.44 193.023 2169.44 195.876C2169.44 283.355 2170.01 371.024 2169.25 458.503C2169.06 484.366 2189.6 489.31 2205.77 482.844C2225.56 474.667 2241.92 447.092 2228.22 422.37C2225.94 418.376 2223.66 414.573 2220.8 410.96C2200.07 385.667 2192.65 356 2193.03 324.051C2193.79 257.111 2244.2 199.489 2310.21 188.079C2388.4 174.577 2481.04 223.451 2498.55 323.861C2500.26 333.37 2500.45 343.069 2500.45 352.767C2500.45 440.817 2500.07 529.056 2499.69 617.105C2499.69 622.43 2500.07 627.945 2500.64 633.27C2502.16 647.913 2512.62 658.753 2527.27 661.225C2529.74 661.605 2532.03 662.366 2534.5 664.838C2532.98 665.409 2531.46 666.55 2529.94 666.55C2501.02 666.74 2472.1 666.93 2443 666.93C2441.48 666.93 2439.76 665.789 2437.1 664.648C2439.19 663.127 2440.33 661.605 2441.86 661.415C2466.4 657.802 2472.29 644.3 2472.29 621.099C2472.29 545.03 2472.1 468.962 2472.1 392.893C2472.1 372.925 2472.48 353.148 2472.48 333.18C2472.48 307.697 2468.11 283.165 2454.6 261.105C2425.69 213.942 2383.84 189.22 2328.1 191.692C2262.08 194.545 2211.86 240.186 2200.26 305.415C2193.41 343.449 2203.11 377.109 2225.37 407.727C2231.27 415.904 2236.78 423.891 2238.69 433.97C2243.82 461.165 2221.56 486.077 2197.59 489.881C2170.39 494.255 2144.9 474.667 2143 448.423C2142.24 439.105 2141.48 429.787 2141.48 420.468C2141.48 360.184 2141.48 299.71 2141.48 239.425C2141.48 234.671 2141.47 229.727 2140.52 224.972C2137.86 211.85 2128.16 202.722 2114.65 200.25C2112.56 199.87 2110.47 199.679 2108.56 199.109C2108.18 199.109 2107.8 198.158 2107.61 197.778C2112.56 193.784 2153.46 186.558 2169.82 186.748L2169.44 187.128Z" fill="white"/>
<path d="M1119.91 197.397C1121.63 196.827 1123.34 195.686 1125.05 195.686C1145.78 195.496 1166.71 195.306 1187.45 195.496C1189.54 195.496 1191.63 196.447 1193.72 197.017C1193.72 197.588 1193.72 198.158 1193.72 198.919C1192.01 199.87 1190.49 201.391 1188.78 201.771C1158.53 207.096 1135.13 223.641 1114.02 244.75C1055.23 303.893 996.26 362.656 937.287 421.609C933.673 425.223 929.869 428.646 926.254 432.259C924.162 434.351 921.878 436.443 919.786 438.535C910.845 448.423 908.372 462.116 913.698 472.005C919.595 483.035 933.673 489.501 946.989 487.218C953.838 486.077 959.355 482.654 962.97 476.569C964.872 473.146 966.584 469.532 968.867 466.3C982.944 444.81 1012.24 444.43 1026.7 465.539C1058.66 512.701 1090.43 560.054 1122.39 607.407C1128.28 616.155 1134.37 624.712 1140.84 633.08C1148.07 642.208 1156.63 649.815 1167.28 654.759C1173.37 657.612 1180.41 659.133 1186.88 661.225C1188.97 661.986 1191.25 662.366 1194.87 663.317C1189.73 667.881 1184.97 667.311 1180.41 667.12C1162.53 667.12 1144.83 666.74 1126.95 666.55C1120.29 666.55 1113.64 666.93 1106.98 666.93C1102.22 666.93 1097.66 666.17 1091.95 665.789C1094.04 661.415 1096.89 661.796 1099.37 661.225C1106.41 659.704 1109.64 655.9 1110.02 648.674C1110.4 641.637 1107.55 635.742 1103.74 630.227C1092.71 614.063 1081.68 597.898 1070.64 581.543C1048 548.454 1025.37 515.174 1002.92 481.894C999.494 476.949 996.26 471.815 993.216 466.68C987.319 457.362 984.466 456.981 977.237 465.729C974.003 469.723 971.149 473.906 968.105 478.09C953.457 499.77 928.156 495.396 914.649 482.464C906.279 474.477 903.426 464.778 906.089 453.558C908.182 444.43 912.937 437.013 919.595 430.547C986.178 364.368 1052.57 297.998 1118.96 231.628C1122.2 228.395 1125.43 225.353 1128.09 221.739C1130.19 218.887 1132.09 215.654 1133.23 212.231C1134.94 206.336 1133.61 204.244 1127.52 202.152C1124.86 201.201 1122.39 200.25 1119.72 199.109C1119.72 198.348 1119.72 197.588 1119.72 197.017L1119.91 197.397Z" fill="white"/>
<path d="M1216.74 873.076C1221.12 873.646 1225.3 873.837 1229.3 874.978C1234.82 876.499 1236.72 879.922 1235.2 885.247C1234.05 889.811 1232.15 894.375 1230.06 898.749C1220.17 917.956 1209.89 937.164 1200 956.561C1195.44 965.309 1191.06 974.247 1186.69 983.185C1183.83 989.08 1173.18 994.215 1166.9 992.313C1161.95 990.792 1161.38 986.228 1161.19 982.044C1160.43 967.211 1160.05 952.567 1159.48 937.734C1159.48 934.121 1159.48 930.698 1157.77 926.514C1156.63 928.035 1155.3 929.367 1154.35 930.888C1146.74 945.912 1139.13 961.125 1131.52 976.149C1130.76 977.67 1129.43 979.382 1129.43 981.093C1129.43 987.559 1124.67 989.841 1119.91 991.743C1112.3 994.595 1106.6 991.743 1104.69 983.756C1103.55 979.191 1103.36 974.247 1103.17 969.493C1102.6 949.335 1102.6 928.986 1101.46 908.828C1101.08 900.27 1098.42 891.903 1096.51 881.443C1098.42 878.401 1103.36 876.309 1108.5 874.597C1114.78 872.505 1119.53 874.597 1121.43 880.683C1123.15 886.008 1124.1 891.903 1124.1 897.418C1124.29 914.343 1124.1 931.268 1123.91 948.003C1123.91 950.285 1123.91 952.758 1124.67 955.42C1130.38 948.574 1133.42 940.397 1137.22 932.599C1141.22 924.802 1144.83 916.815 1148.45 908.828C1152.06 900.651 1155.49 892.283 1157.58 882.965C1161.19 881.634 1164.62 879.732 1168.42 878.781C1176.41 876.689 1180.03 879.352 1180.03 887.719C1180.03 898.939 1179.65 909.969 1179.46 921.189C1179.08 933.55 1178.7 945.911 1178.5 958.273C1178.5 959.984 1178.89 961.696 1179.84 963.597C1186.11 954.659 1189.92 944.77 1194.29 935.072C1198.86 924.802 1203.24 914.533 1207.04 904.074C1210.65 893.995 1213.51 883.726 1216.93 872.886L1216.74 873.076Z" fill="white"/>
<path d="M2464.49 929.366C2466.21 927.084 2467.73 924.612 2469.63 922.52C2475.53 915.674 2481.05 908.638 2487.32 902.172C2491.32 897.988 2496.84 895.896 2502.92 896.276C2509.39 896.657 2513 899.89 2513.39 906.356C2513.58 910.539 2513.2 914.723 2512.43 918.907C2509.77 934.121 2506.92 949.144 2504.25 964.358C2502.92 971.584 2503.3 978.811 2506.73 986.608C2503.49 987.939 2500.83 989.841 2497.79 990.221C2487.7 991.933 2480.09 989.46 2481.43 976.719C2482.95 963.217 2485.61 949.905 2487.7 936.593C2488.46 932.409 2489.41 928.415 2489.99 924.232C2490.37 921.759 2489.99 919.097 2489.99 914.533C2476.48 924.612 2471.15 937.734 2464.3 949.715C2457.46 961.695 2451.37 974.247 2452.51 989.841C2448.13 990.221 2443.95 990.982 2439.95 990.792C2432.72 990.601 2430.25 987.369 2431.39 980.332C2432.92 971.394 2435.01 962.646 2436.91 953.708C2438.81 944.2 2440.71 934.881 2442.43 925.373C2443 922.52 2442.43 919.668 2442.43 916.625C2434.44 919.097 2429.87 925.183 2416.75 949.524C2410.09 961.695 2403.81 974.057 2404.57 988.7C2403.62 989.27 2402.86 990.031 2402.1 990.221C2384.41 993.454 2380.41 989.27 2384.41 971.774C2388.02 955.61 2391.63 939.445 2394.87 923.091C2396.2 915.674 2396.39 908.257 2397.15 899.51C2401.15 898.749 2405.9 897.418 2410.47 897.418C2416.75 897.418 2419.22 900.08 2419.22 906.356C2419.22 910.539 2418.27 914.723 2417.51 918.907C2416.94 921.95 2416.37 925.183 2417.13 928.796C2418.84 926.514 2420.36 924.042 2422.26 921.76C2427.78 915.294 2432.92 908.638 2438.81 902.742C2442.62 898.749 2447.75 896.657 2453.46 896.657C2460.12 896.657 2463.92 899.509 2464.3 906.165C2464.68 911.49 2463.92 917.005 2463.35 922.33C2463.35 924.612 2462.78 926.894 2462.4 929.176C2462.78 929.366 2463.35 929.556 2463.73 929.747L2464.49 929.366Z" fill="white"/>
<path d="M1454.92 900.271C1462.72 895.136 1470.71 896.277 1479.46 900.271C1478.13 905.025 1476.22 909.399 1475.46 913.963C1472.42 929.557 1469.57 945.341 1466.52 960.935C1465.19 967.401 1463.67 973.867 1461.96 980.333C1456.06 1002.01 1436.85 1014.75 1412.88 1013.04C1405.46 1012.47 1398.04 1010 1391 1007.72C1385.86 1006.01 1380.35 1003.15 1380.73 996.687C1381.3 990.222 1386.24 987.179 1392.14 984.897C1394.42 987.369 1396.32 989.461 1398.42 991.743C1402.79 996.117 1407.74 999.35 1414.02 1000.3C1426.38 1002.2 1433.99 998.019 1437.42 986.038C1440.65 974.818 1442.74 963.407 1445.41 952.187C1444.84 951.997 1444.07 951.617 1443.5 951.427C1441.79 953.328 1440.08 955.23 1438.18 957.132C1433.8 961.696 1429.62 966.64 1424.67 970.444C1421.06 973.296 1416.49 975.578 1411.92 976.719C1402.98 979.192 1395.56 974.818 1393.09 965.88C1387.38 945.531 1395.56 915.675 1415.73 902.363C1428.09 894.185 1441.22 894.566 1454.92 900.271ZM1415.73 948.764C1416.49 950.286 1417.06 954.85 1419.53 956.751C1423.15 959.224 1426.76 955.61 1429.81 953.328C1430.19 952.948 1430.76 952.568 1431.14 952.187C1437.42 942.869 1444.07 933.36 1449.97 923.852C1450.92 922.331 1450.35 919.098 1449.21 917.386C1441.6 905.976 1429.24 906.736 1422.77 918.907C1418.01 927.465 1416.68 936.974 1415.73 948.954V948.764Z" fill="white"/>
<path d="M2251.43 901.982C2252.38 893.424 2253.14 885.818 2254.1 876.879C2258.09 875.929 2262.66 874.027 2267.22 873.647C2274.45 873.076 2277.87 877.07 2277.3 884.296C2276.92 888.1 2275.97 892.093 2275.21 895.897C2271.22 917.576 2266.65 939.066 2263.42 960.745C2262.09 968.922 2263.61 977.29 2263.99 987.369C2260.56 991.553 2254.1 991.363 2247.82 990.412C2242.49 989.461 2239.26 985.087 2238.88 978.431C2238.5 971.965 2238.88 965.309 2238.88 957.892C2236.78 960.745 2235.26 963.217 2233.55 965.499C2228.79 971.585 2224.23 978.051 2218.9 983.756C2215.86 986.989 2211.67 989.461 2207.68 990.982C2197.98 994.786 2189.42 990.412 2186.37 980.523C2183.14 970.063 2184.28 959.604 2186.56 949.335C2189.61 936.023 2195.5 923.852 2204.44 913.202C2216.24 898.939 2229.75 895.326 2247.25 901.412C2248.01 901.792 2248.96 901.792 2251.43 902.553V901.982ZM2232.03 911.3C2227.27 910.73 2222.71 913.773 2219.28 920.619C2212.62 933.741 2209.01 947.623 2209.2 962.457C2209.2 966.07 2208.82 970.824 2213.19 971.395C2215.48 971.775 2219.28 968.922 2220.8 966.45C2229.37 952.948 2237.35 939.066 2245.34 925.373C2246.11 924.042 2246.11 921.57 2245.34 920.429C2242.3 915.674 2238.12 912.441 2232.03 911.491V911.3Z" fill="white"/>
<path d="M750.477 199.489C752.189 197.778 752.951 196.637 753.902 196.447C773.306 192.833 792.899 189.41 812.684 185.987C815.537 192.073 814.776 197.778 814.776 203.483C814.776 248.744 814.396 294.005 814.396 339.265C814.396 345.921 814.396 352.577 814.396 359.233C814.396 362.086 813.825 364.938 813.444 368.742C803.742 363.988 795.183 359.804 785.861 355.24C785.861 352.387 785.861 348.964 785.861 345.731C785.861 311.12 785.861 276.319 785.861 241.707C785.861 238.094 785.861 234.481 785.671 230.868C784.339 216.034 774.446 205.195 759.988 201.962C757.135 201.391 754.471 200.63 750.477 199.68V199.489Z" fill="white"/>
<path d="M2142.62 494.636C2152.13 499.39 2160.31 503.574 2169.82 508.518C2169.82 513.653 2169.82 519.548 2169.82 525.443C2169.82 555.871 2169.63 586.298 2169.82 616.725C2169.82 623.001 2169.82 629.467 2170.96 635.552C2173.24 649.815 2182.18 658.563 2196.26 661.416C2198.74 661.986 2201.02 662.937 2204.44 663.888C2199.88 668.262 2195.69 667.501 2191.7 667.501C2172.48 667.501 2153.08 667.121 2133.87 666.931C2128.35 666.931 2123.02 667.311 2117.51 667.311C2114.27 667.311 2111.04 666.55 2107.99 666.17C2107.99 661.796 2110.85 662.176 2112.94 661.796C2130.82 658.563 2140.52 648.294 2141.86 630.037C2142.43 622.621 2141.66 615.014 2141.66 607.407C2141.66 572.416 2141.86 537.424 2142.05 502.433C2142.05 500.15 2142.43 497.678 2142.81 494.445L2142.62 494.636Z" fill="white"/>
<path d="M1325.18 927.465C1326.7 924.993 1328.22 922.521 1329.93 920.048C1333.93 914.724 1337.73 909.209 1342.3 904.454C1345.15 901.412 1348.96 898.939 1352.76 897.418C1365.7 892.283 1375.02 898.559 1373.88 912.251C1372.93 923.852 1369.88 935.452 1367.98 946.863C1366.84 952.758 1365.32 958.653 1364.94 964.739C1364.56 971.585 1365.32 978.431 1365.7 986.798C1361.51 990.982 1354.66 991.172 1347.81 989.841C1343.06 988.89 1340.4 984.897 1340.78 978.621C1340.97 971.965 1341.92 965.499 1343.06 958.843C1344.77 948.954 1347.05 939.256 1348.77 929.557C1349.53 924.993 1351.62 920.239 1348.96 915.484C1341.54 917.576 1336.4 924.422 1324.04 948.194C1317.57 960.745 1311.67 973.677 1312.62 989.651C1307.1 989.841 1301.97 990.412 1297.02 990.222C1291.7 989.841 1289.41 987.369 1289.6 982.044C1289.6 978.811 1290.36 975.578 1291.12 972.155C1295.12 952.568 1299.11 933.17 1302.73 913.583C1303.49 909.209 1302.73 904.645 1302.73 898.939C1308.25 898.179 1313.57 896.848 1318.71 896.848C1324.8 896.848 1327.46 900.08 1326.89 906.166C1326.32 913.012 1324.8 919.668 1323.65 926.514L1325.18 927.085V927.465Z" fill="white"/>
<path d="M1624.04 965.119C1625.18 936.973 1633.55 919.858 1648.96 906.166C1657.14 898.939 1667.03 895.706 1678.06 896.087C1693.85 896.657 1706.03 907.117 1707.17 922.711C1709.07 948.764 1698.99 969.873 1677.68 984.897C1672.55 988.51 1665.51 990.602 1659.23 991.362C1639.07 993.454 1623.28 980.142 1624.23 964.928L1624.04 965.119ZM1648.77 957.512C1649.53 962.266 1649.53 967.211 1651.05 971.585C1653.52 979.191 1661.89 981.283 1667.79 975.958C1670.83 973.296 1673.31 969.493 1674.83 965.689C1680.35 952.567 1683.2 938.685 1682.63 924.422C1682.63 921.379 1681.87 918.337 1680.92 915.674C1678.25 908.828 1671.22 906.546 1665.51 911.11C1661.89 913.963 1659.04 918.146 1656.95 922.52C1652 933.55 1649.53 945.341 1648.77 957.512Z" fill="white"/>
<path d="M2369.95 928.796C2369 950.096 2361.01 968.162 2344.65 981.664C2339.51 985.848 2332.85 989.081 2326.19 990.602C2303.56 996.117 2285.67 981.283 2286.44 958.083C2287.2 937.924 2295.19 920.809 2310.21 907.117C2317.25 900.651 2325.62 897.038 2335.52 896.277C2356.63 894.565 2369.76 908.258 2370.14 928.796H2369.95ZM2346.17 929.177C2346.17 929.177 2345.41 928.987 2345.22 928.796C2344.84 925.754 2344.65 922.901 2344.27 919.858C2343.51 914.724 2341.6 910.35 2336.09 909.209C2330.76 907.877 2326.76 910.73 2323.72 914.724C2322.01 916.815 2320.49 919.098 2319.73 921.76C2317.06 930.127 2314.21 938.305 2312.88 946.863C2311.74 954.089 2312.31 961.696 2312.69 969.303C2312.88 973.677 2315.54 977.29 2320.11 978.431C2324.86 979.572 2329.24 978.431 2332.09 974.247C2334.56 970.824 2337.04 967.211 2338.18 963.407C2341.22 952.187 2343.7 940.777 2346.36 929.367L2346.17 929.177Z" fill="white"/>
<path d="M1793.73 908.638C1793.73 916.816 1792.39 919.478 1786.12 921.38C1782.12 922.521 1777.94 922.901 1773.75 923.091C1770.52 923.281 1767.28 923.091 1763.1 923.091C1758.15 951.997 1749.59 979.762 1748.64 1009.43C1748.26 1009.62 1747.31 1010.57 1746.36 1010.95C1724.86 1016.47 1721.44 1011.9 1726 992.694C1731.14 970.064 1735.7 947.433 1740.84 923.281C1735.51 923.662 1731.14 924.042 1726.95 924.422C1725.43 913.963 1726.38 913.012 1743.31 908.448C1744.27 904.645 1745.22 900.461 1746.36 896.467C1749.02 886.959 1754.92 879.922 1764.05 876.119C1775.46 871.555 1787.26 870.033 1799.43 872.696C1801.91 873.266 1804.76 874.407 1806.66 875.929C1810.28 878.591 1810.28 883.155 1806.66 885.818C1803.43 888.29 1799.62 890.001 1796.01 891.903C1795.06 890.762 1794.49 890.382 1794.3 890.001C1792.21 884.677 1788.78 881.254 1782.88 881.634C1776.42 882.204 1772.23 885.818 1770.52 891.903C1769 897.228 1767.66 902.743 1765.95 909.589C1776.03 909.209 1784.6 908.828 1793.92 908.258L1793.73 908.638Z" fill="white"/>
<path d="M1870.96 922.901C1865.63 923.662 1861.64 924.422 1857.45 924.993C1857.45 913.392 1858.4 912.251 1874.19 909.019C1874.95 906.166 1875.72 903.123 1876.48 899.89C1879.52 886.198 1887.89 877.45 1901.4 874.027C1911.1 871.555 1920.99 870.414 1930.88 872.886C1932.98 873.457 1935.07 874.027 1936.78 875.168C1942.11 878.401 1942.3 883.155 1937.35 886.768C1934.31 889.05 1930.69 890.382 1927.46 892.093C1926.51 891.142 1925.94 890.952 1925.75 890.382C1923.85 885.057 1920.42 881.634 1914.33 882.014C1907.87 882.395 1903.68 886.198 1901.78 892.093C1900.07 897.418 1898.93 902.933 1897.21 909.019H1924.23C1925.56 915.675 1924.61 918.907 1918.9 920.999C1915.1 922.521 1910.72 922.901 1906.53 923.281C1902.73 923.662 1898.74 923.281 1894.17 923.281C1889.22 952.378 1880.85 980.143 1879.52 1010.19C1875.72 1012.85 1870.01 1013.23 1864.3 1013.23C1857.07 1013.23 1854.22 1010 1855.55 1002.96C1857.64 991.363 1860.31 979.952 1862.59 968.542C1865.25 955.801 1867.73 943.249 1870.2 930.508C1870.58 928.606 1870.58 926.514 1870.77 922.901H1870.96Z" fill="white"/>
<path d="M2123.4 951.997C2123.4 951.997 2122.26 953.138 2122.26 953.329C2120.17 961.316 2119.79 969.493 2126.26 975.389C2132.92 981.474 2141.1 979.192 2148.52 976.149C2154.22 973.677 2159.55 970.254 2165.45 967.021C2167.92 973.106 2166.02 977.29 2161.83 981.094C2150.23 991.363 2122.45 995.166 2108.57 988.32C2100.77 984.517 2096.58 978.241 2096.01 969.683C2094.11 941.728 2104.95 919.668 2127.59 903.504C2136.72 896.848 2147.56 895.136 2158.6 896.468C2168.3 897.609 2173.06 902.933 2173.06 912.822C2173.06 923.472 2168.87 932.22 2160.69 938.876C2152.51 945.532 2143 949.145 2132.73 950.666C2129.49 951.047 2126.26 951.617 2123.78 951.997H2123.4ZM2123.78 939.446C2130.06 941.348 2135.2 939.446 2139.95 937.354C2148.52 933.171 2152.89 923.092 2150.61 913.773C2149.28 908.448 2145.66 906.357 2140.52 908.448C2138.43 909.399 2136.15 910.73 2134.82 912.442C2128.35 920.239 2125.69 929.557 2123.97 939.446H2123.78Z" fill="white"/>
<path d="M2032.47 952.187C2032.09 955.23 2031.71 957.512 2031.71 959.794C2031.33 975.578 2039.89 982.234 2054.92 977.289C2061.96 975.007 2068.42 970.824 2075.08 967.591C2077.75 973.486 2077.37 975.768 2073.18 979.952C2061.96 991.552 2030.76 995.546 2016.87 987.178C2008.31 982.044 2005.46 973.866 2005.65 964.738C2006.03 939.636 2016.11 919.097 2036.47 904.264C2046.17 897.227 2057.39 894.945 2069.19 896.467C2078.32 897.608 2082.69 902.362 2083.07 911.3C2083.64 922.71 2079.27 931.838 2070.52 939.065C2062.53 945.531 2053.4 948.954 2043.31 950.475C2039.7 951.046 2036.27 951.616 2032.47 952.187ZM2033.99 939.445C2049.02 940.967 2059.1 934.311 2061.01 922.33C2062.34 914.723 2060.63 909.779 2056.44 908.067C2052.06 906.165 2046.55 909.018 2042.55 915.484C2037.99 922.71 2035.51 930.698 2033.99 939.445Z" fill="white"/>
<path d="M1301.02 773.617C1304.06 774.378 1306.92 775.138 1309.96 776.089C1338.68 786.358 1368.17 793.775 1398.04 799.48C1418.2 803.284 1438.56 804.995 1458.91 807.848C1498.1 813.363 1537.67 813.933 1577.05 814.504C1579.71 814.504 1582.57 814.504 1585.04 815.645C1586.18 816.025 1587.32 818.307 1587.51 819.829C1587.51 820.779 1586.18 822.681 1585.04 823.061C1582.95 824.012 1580.47 824.583 1578 824.773C1543.19 828.957 1508.37 828.386 1473.37 824.583C1418.96 818.497 1367.22 803.284 1316.62 783.125C1312.62 781.604 1308.63 780.273 1304.82 778.561C1303.11 777.801 1301.59 776.469 1300.07 775.328C1300.26 774.758 1300.64 773.997 1300.83 773.427L1301.02 773.617Z" fill="white"/>
<path d="M1549.46 916.435C1546.04 913.582 1543.57 910.92 1540.52 908.828C1534.63 904.644 1527.78 905.025 1523.97 909.399C1519.79 914.153 1520.17 921.379 1525.49 926.514C1528.92 929.937 1532.91 932.599 1536.91 935.452C1552.89 947.243 1553.84 967.781 1538.81 981.093C1527.4 991.172 1513.51 992.884 1498.86 991.172C1497.34 991.172 1495.82 990.602 1494.49 990.221C1483.83 987.559 1481.36 979.762 1488.59 971.394C1490.3 969.302 1492.58 967.781 1495.06 965.309C1496.77 967.971 1498.1 970.063 1499.62 972.155C1503.05 977.29 1507.61 980.142 1513.89 980.142C1518.65 980.142 1523.02 979.001 1525.3 974.247C1527.59 969.493 1527.78 964.738 1524.16 960.745C1520.55 956.751 1516.93 952.567 1512.56 949.525C1501.9 942.298 1497.15 932.79 1500.38 920.048C1504 906.546 1513.7 899.319 1526.64 897.037C1533.67 895.706 1541.09 896.087 1548.32 896.847C1558.4 897.798 1560.69 903.884 1554.41 911.681C1553.08 913.202 1551.37 914.533 1549.27 916.435H1549.46Z" fill="white"/>
<path d="M2623.53 720.368C2627.33 720.939 2631.33 721.129 2634.94 722.08C2691.63 736.723 2730.44 771.524 2752.13 825.913C2755.17 833.52 2757.27 841.317 2756.5 849.685C2755.93 856.341 2752.51 861.285 2747.18 862.806C2742.62 864.138 2736.72 861.856 2733.49 856.15C2730.82 851.586 2728.92 846.262 2728.16 840.937C2721.12 789.59 2692.01 754.789 2647.12 731.588C2642.36 729.116 2637.04 727.595 2631.9 725.883C2628.86 724.742 2625.81 723.791 2622.77 722.65C2622.96 721.89 2623.15 721.129 2623.53 720.368Z" fill="white"/>
<path d="M1992.52 927.845C1983.96 924.232 1981.3 924.232 1975.97 930.888C1964.37 945.531 1956.57 962.076 1952.76 980.333C1952.19 982.805 1952.76 985.657 1952.76 989.461C1948.2 989.841 1943.82 990.602 1939.44 990.412C1931.26 990.222 1928.41 986.798 1929.93 978.811C1930.88 972.916 1932.6 967.021 1933.74 961.125C1936.78 947.053 1939.83 932.79 1942.49 918.527C1943.63 912.632 1943.44 906.546 1944.01 900.271C1944.2 900.08 1944.58 899.32 1944.96 899.129C1951.62 897.038 1958.85 893.805 1964.75 899.129C1970.45 904.074 1966.46 911.11 1965.7 917.196C1965.32 920.809 1964.37 924.232 1964.56 928.416C1965.89 926.704 1967.22 925.183 1968.36 923.471C1973.5 916.815 1978.25 909.779 1983.58 903.313C1986.05 900.461 1989.67 898.179 1993.09 896.847C2000.32 894.185 2004.13 897.608 2003.36 905.405C2002.41 914.153 1998.23 921.379 1992.52 927.655V927.845Z" fill="white"/>
<path d="M1249.46 900.461C1255.55 897.228 1261.45 896.277 1267.54 897.038C1272.86 897.608 1274.96 900.08 1274.77 905.405C1274.77 908.638 1273.81 911.871 1273.05 915.104C1269.82 931.078 1266.59 946.863 1263.16 962.837C1261.64 970.634 1261.83 978.431 1265.63 986.608C1262.21 987.939 1259.36 989.651 1256.31 990.222C1245.85 991.743 1236.91 990.222 1238.81 975.008C1240.14 964.929 1242.24 954.85 1244.14 944.771C1247.18 930.127 1251.75 915.674 1249.27 900.461H1249.46Z" fill="white"/>
<path d="M1258.98 866.991C1263.73 866.42 1268.11 865.279 1272.48 865.279C1276.48 865.279 1280.28 866.42 1281.23 871.175C1281.99 874.788 1279.33 881.444 1276.29 882.965C1274.38 883.916 1272.29 884.487 1270.39 884.867C1260.31 886.198 1254.79 885.057 1258.02 872.886C1258.4 871.555 1258.6 870.034 1259.17 866.991H1258.98Z" fill="white"/>
</svg>
