<svg width="4360" height="1436" viewBox="0 0 4360 1436" fill="none" xmlns="http://www.w3.org/2000/svg">
<path d="M2011.41 266.792V374.413H1980.85L1965.44 302.666H1892.64V571.849L1943.39 583.276V610.912H1779.71V583.276L1830.46 571.849V302.666H1757.13L1742.25 374.413H1711.69V266.792H2011.14H2011.41ZM2083.68 488.676C2083.15 507.277 2086.34 525.613 2093.25 542.619C2101.75 564.143 2122.74 577.695 2145.86 576.367C2160.47 576.367 2174.82 573.178 2187.84 567.066C2201.92 560.689 2214.14 550.591 2223.18 538.102L2248.95 558.297C2236.99 575.038 2221.58 588.856 2203.78 598.954C2182.26 610.646 2158.08 616.492 2133.63 615.695C2112.64 616.226 2091.65 611.443 2073.05 601.611C2056.31 592.045 2042.76 577.695 2034.52 560.157C2029.48 549.794 2026.02 538.633 2023.9 527.473C2021.5 514.452 2020.44 501.165 2020.44 487.879C2018.05 450.677 2028.94 414.006 2051 384.245C2073.05 359.266 2105.47 345.714 2138.68 347.84C2154.62 347.84 2170.57 350.231 2185.45 355.812C2198.73 360.595 2210.95 368.301 2221.05 378.399C2231.15 388.496 2238.85 400.72 2243.64 414.272C2249.22 429.684 2251.87 445.894 2251.61 462.369C2251.61 465.823 2251.61 469.278 2251.61 472.732C2251.61 475.921 2251.08 481.236 2250.28 488.676H2083.41H2083.68ZM2138.15 381.056C2105.2 381.056 2087.4 406.832 2084.21 458.117H2189.43V445.628C2190.5 428.621 2185.98 411.88 2176.15 397.797C2166.85 386.37 2152.76 380.259 2138.15 381.056ZM2412.1 348.105C2425.91 348.105 2439.46 349.7 2452.75 353.42C2464.44 356.609 2475.33 361.658 2485.17 368.567C2493.93 374.678 2501.11 382.916 2506.42 392.217C2511.47 401.517 2514.13 412.146 2514.13 422.775C2514.92 434.733 2510.94 446.691 2502.7 455.46C2495.26 462.9 2484.9 466.886 2474.54 466.621C2469.22 466.621 2463.64 465.823 2458.86 463.432C2454.87 461.572 2451.42 458.649 2448.5 455.194C2445.84 452.006 2443.98 448.02 2442.65 444.034C2441.59 440.048 2441.06 435.796 2441.06 431.544C2441.06 424.104 2442.92 416.929 2447.17 411.083C2451.69 404.972 2457.8 400.72 2464.97 398.594C2459.66 392.217 2452.75 387.433 2444.78 384.776C2435.21 381.056 2424.85 379.196 2414.75 379.462C2405.45 379.462 2396.15 381.056 2387.65 384.776C2379.68 388.496 2372.77 394.342 2367.72 401.783C2361.61 411.349 2357.36 421.712 2355.23 432.873C2352.05 448.551 2350.72 464.495 2350.98 480.439C2350.72 493.991 2351.78 507.809 2354.44 521.095C2356.3 530.13 2359.49 538.633 2363.47 546.871C2368.25 555.64 2374.9 563.08 2383.13 568.661C2392.43 574.241 2403.06 577.164 2413.69 576.633C2420.6 576.633 2427.24 575.835 2433.88 574.241C2441.06 572.647 2448.23 570.255 2454.87 567.332C2461.78 564.143 2468.43 560.423 2474.54 555.64C2480.91 550.857 2486.49 545.011 2491.01 538.368L2516.78 558.563C2503.76 577.695 2485.7 592.842 2464.97 602.674C2445.31 611.443 2423.79 615.96 2402 615.96C2381.01 616.758 2360.28 611.974 2341.68 602.408C2325.21 593.108 2311.92 579.29 2303.42 562.549C2297.58 551.388 2293.32 539.696 2290.67 527.473C2287.48 513.389 2286.15 499.04 2286.15 484.69C2286.15 465.558 2288.81 446.691 2294.65 428.356C2299.97 412.412 2308.2 397.797 2319.36 385.308C2330.26 373.35 2343.81 363.784 2358.95 357.937C2375.96 351.294 2393.76 348.105 2412.1 348.371V348.105ZM2741.04 483.096C2741.04 472.998 2741.04 463.963 2740.51 456.523C2740.24 449.083 2739.71 442.439 2739.18 436.859C2738.92 432.076 2738.12 427.293 2736.79 422.775C2735.73 419.321 2734.66 415.866 2733.34 412.678C2725.37 397 2708.89 387.965 2691.35 389.293C2682.32 389.293 2673.55 391.685 2665.58 395.937C2657.34 400.454 2650.44 406.832 2645.92 415.069C2643 420.65 2640.6 426.496 2639.28 432.873C2637.15 441.908 2636.35 450.943 2636.35 460.243V575.57L2668.5 584.604V611.443H2538.84V584.604L2575.77 575.57V274.233L2538.84 265.198V238.359H2636.35V398.063C2644.06 383.447 2655.22 370.692 2669.03 361.658C2682.32 352.889 2697.73 348.371 2713.67 348.371C2725.36 348.105 2737.06 349.7 2748.48 353.42C2757.78 356.609 2766.28 362.189 2773.19 369.364C2783.82 380.79 2791.26 394.874 2794.98 410.286C2800.03 432.076 2802.42 454.663 2801.89 476.984V575.57L2838.82 584.604V611.443H2709.16V584.604L2741.31 575.57V483.362L2741.04 483.096ZM1998.65 881.158C1998.65 898.962 1992.28 916.234 1980.59 929.786C1974.74 936.43 1967.83 941.744 1960.13 945.996C1952.16 950.247 1943.39 953.171 1934.62 954.234V956.094C1957.2 960.345 1977.66 971.506 1993.34 987.981C2007.69 1003.92 2015.39 1024.92 2014.86 1046.44C2014.86 1063.98 2010.08 1081.25 2000.78 1096.13C1992.28 1110.48 1979.79 1121.91 1965.17 1129.61C1960.39 1132.01 1955.61 1133.87 1950.56 1135.46C1944.45 1137.32 1938.34 1138.65 1932.23 1139.45C1924.26 1140.78 1916.28 1141.57 1908.31 1141.84C1899.28 1142.37 1888.92 1142.64 1877.23 1142.64H1719.93V1115L1760.05 1104.9V835.984L1719.93 825.886V798.251H1895.03C1922.93 796.39 1950.56 805.159 1972.61 822.698C1980.85 830.138 1987.49 839.439 1992.01 849.536C1996.53 859.368 1998.92 870.263 1998.92 881.158H1998.65ZM1822.22 980.806V1107.03H1860.49C1872.44 1107.03 1884.13 1106.5 1895.83 1104.64C1903.8 1103.31 1911.24 1100.92 1918.41 1096.93C1927.44 1092.15 1934.62 1084.71 1939.4 1075.67C1944.98 1065.31 1947.9 1053.62 1947.64 1041.92C1947.9 1032.09 1945.78 1022.53 1941.53 1013.76C1937.54 1006.32 1932.23 999.939 1925.85 994.624C1919.21 989.841 1911.77 986.387 1903.8 984.261C1892.37 981.604 1880.95 980.275 1869.25 980.541H1822.49L1822.22 980.806ZM1822.22 945.996H1867.66C1885.73 947.59 1903.53 941.479 1916.82 929.255C1921.86 924.472 1926.12 918.626 1929.3 912.248C1936.21 897.367 1936.21 879.829 1929.3 864.948C1926.12 858.571 1921.86 852.991 1916.82 847.942C1903.53 837.047 1886.53 831.998 1869.52 833.593H1822.22V945.996ZM2114.5 1020.67C2113.97 1039.27 2117.16 1057.6 2124.07 1074.61C2132.57 1096.13 2153.56 1109.69 2176.68 1108.62C2191.29 1108.62 2205.64 1105.43 2218.66 1099.32C2232.74 1092.94 2244.97 1082.85 2254 1070.36L2279.77 1090.55C2267.82 1107.29 2252.4 1121.11 2234.6 1131.21C2213.08 1142.9 2188.9 1148.75 2164.46 1147.95C2143.46 1148.48 2122.47 1143.7 2103.87 1133.87C2087.13 1124.3 2073.58 1109.95 2065.35 1092.41C2060.3 1082.05 2056.84 1070.89 2054.72 1059.73C2052.33 1046.71 2051.26 1033.42 2051.26 1020.4C2048.87 983.198 2059.77 946.527 2081.82 916.766C2103.87 891.787 2136.02 878.235 2169.5 880.095C2185.45 880.095 2201.39 882.487 2216.27 888.067C2243.64 897.633 2264.89 919.157 2274.46 946.527C2280.04 961.94 2282.7 978.149 2282.43 994.624C2282.43 998.079 2282.43 1001.53 2282.43 1004.99C2282.43 1008.18 2281.9 1013.49 2281.1 1020.93H2114.24L2114.5 1020.67ZM2168.97 913.046C2136.02 913.046 2118.22 938.821 2115.03 990.107H2220.25V977.618C2221.32 960.611 2216.8 943.87 2206.97 929.786C2197.67 918.36 2183.59 912.248 2168.97 913.046ZM2510.94 1014.82C2510.94 1004.72 2510.94 995.687 2510.41 988.247C2510.14 980.806 2509.61 974.163 2509.08 968.583C2508.81 963.8 2508.02 959.017 2506.69 954.499C2505.62 951.045 2504.56 947.59 2502.97 944.402C2495 928.724 2478.26 919.423 2460.99 921.017C2451.95 921.017 2443.18 923.409 2435.21 927.661C2426.98 932.178 2420.07 938.555 2415.55 946.793C2412.63 952.373 2410.24 958.219 2408.91 964.597C2406.78 973.632 2405.98 982.667 2405.98 991.967V1107.29L2438.13 1116.33V1143.17H2308.47V1116.33L2345.4 1107.29V805.957L2308.47 796.922V770.083H2405.98V929.786C2413.69 915.171 2424.85 902.682 2438.67 893.382C2451.95 884.612 2467.36 880.095 2483.31 880.095C2495 879.829 2506.69 881.424 2518.11 885.144C2527.41 888.333 2535.92 893.913 2542.82 901.088C2553.45 912.514 2560.89 926.598 2564.61 942.01C2569.66 963.8 2572.05 986.387 2571.52 1008.71V1107.29L2608.45 1116.33V1143.17H2478.79V1116.33L2510.94 1107.29V1015.09V1014.82ZM2695.07 1020.67C2694.54 1039.27 2697.73 1057.6 2704.64 1074.61C2713.14 1095.87 2734.13 1109.68 2757.25 1108.36C2771.86 1108.36 2786.21 1105.17 2799.23 1099.06C2813.31 1092.68 2825.54 1082.58 2834.84 1070.09L2860.61 1090.29C2848.65 1107.03 2833.24 1120.85 2815.44 1130.94C2793.92 1142.64 2769.74 1148.48 2745.29 1147.68C2724.3 1148.22 2703.31 1143.43 2684.71 1133.6C2667.71 1124.03 2654.16 1109.68 2645.92 1092.15C2640.87 1081.78 2637.42 1070.62 2635.29 1059.46C2632.9 1046.44 2631.84 1033.16 2631.84 1020.13C2629.44 982.932 2640.34 946.262 2662.39 916.5C2684.45 891.521 2716.86 877.969 2750.08 880.095C2766.02 880.095 2781.96 882.487 2796.84 888.067C2824.21 897.633 2845.46 919.157 2855.03 946.527C2860.61 961.94 2863.27 978.149 2863 994.624C2863 998.079 2863 1001.53 2863 1004.99C2863 1008.18 2862.47 1013.49 2861.94 1020.93H2695.07V1020.67ZM2749.54 913.046C2716.6 913.046 2698.79 938.821 2695.61 990.107H2800.83V977.618C2801.89 960.611 2797.37 943.87 2787.54 929.786C2778.24 918.36 2764.16 912.248 2749.54 913.046ZM2931.82 920.752L2894.89 911.717V884.878H2978.05L2988.68 932.709H2990.54C2999.31 916.766 3012.33 903.479 3027.74 894.179C3042.62 884.878 3059.63 880.095 3077.16 880.095C3089.38 879.829 3101.34 882.487 3112.24 887.536C3121.27 891.521 3128.98 897.899 3134.56 905.871C3140.4 915.703 3144.65 926.332 3147.04 937.493C3156.34 920.22 3170.16 905.605 3186.63 895.242C3202.31 885.41 3220.38 880.095 3238.71 880.095C3250.67 880.095 3262.36 882.487 3273.25 887.536C3282.82 892.053 3291.06 898.962 3296.64 907.997C3299.83 913.045 3302.22 918.626 3303.81 924.206C3305.94 931.912 3307.53 939.884 3308.59 947.856C3309.92 957.156 3310.72 968.317 3311.25 981.072C3311.78 993.827 3312.05 1008.71 3312.05 1025.98V1107.29L3348.98 1116.33V1143.17H3218.78V1116.33L3250.94 1107.29V1015.09C3250.94 1004.99 3250.94 995.953 3250.4 988.513C3250.14 981.072 3249.61 974.429 3249.08 968.849C3248.54 964.065 3247.75 959.282 3246.68 954.765C3245.89 951.31 3244.82 947.856 3243.23 944.667C3240.84 938.024 3236.32 932.444 3230.48 928.724C3225.43 925.8 3219.85 924.206 3214 924.206C3206.56 924.206 3199.12 925.269 3191.95 927.661C3185.04 930.318 3178.66 934.038 3173.35 939.087C3166.44 945.199 3161.13 952.905 3157.94 961.408C3154.22 972.037 3152.09 982.932 3152.09 994.093V1107.29L3184.24 1116.33V1143.17H3059.36V1116.33L3091.51 1107.29V1015.09C3091.51 1004.99 3091.51 995.953 3090.98 988.513C3090.71 981.072 3090.18 974.429 3089.65 968.849C3089.12 964.065 3088.32 959.282 3087.26 954.765C3086.46 951.31 3085.4 947.856 3083.8 944.667C3081.41 938.024 3076.9 932.444 3071.05 928.724C3066 925.8 3060.42 924.206 3054.58 924.206C3047.14 924.206 3039.7 925.269 3032.52 927.661C3025.61 930.318 3019.24 934.038 3013.92 939.087C3007.02 945.199 3001.7 952.905 2998.51 961.408C2994.79 972.037 2992.67 982.932 2992.67 994.093V1107.29L3024.82 1116.33V1143.17H2895.15V1116.33L2932.09 1107.29V920.752H2931.82ZM3622.39 1014.02C3622.39 1033.69 3619.47 1053.08 3613.63 1071.69C3608.58 1088.43 3599.81 1103.84 3588.12 1116.86C3577.76 1128.02 3564.74 1136.26 3550.39 1140.78C3516.38 1150.34 3480.24 1150.34 3446.23 1140.78C3431.88 1136.26 3418.86 1128.02 3408.5 1116.86C3396.81 1103.84 3388.04 1088.43 3382.99 1071.69C3371.3 1034.22 3371.3 993.827 3382.99 956.359C3388.04 939.618 3396.81 924.206 3408.5 911.185C3418.86 900.025 3431.88 891.787 3446.23 887.27C3480.24 877.703 3516.38 877.703 3550.39 887.27C3564.74 891.787 3577.76 900.025 3588.12 911.185C3599.81 924.206 3608.58 939.618 3613.63 956.359C3619.47 974.96 3622.66 994.359 3622.39 1014.02ZM3454.47 1096.66C3476.52 1120.58 3513.99 1122.44 3537.9 1100.38C3539.23 1099.32 3540.29 1097.99 3541.62 1096.66C3553.84 1070.89 3559.16 1042.46 3557.03 1014.02C3559.42 985.59 3554.11 956.891 3541.62 931.381C3519.57 907.465 3482.1 905.605 3458.19 927.661C3456.86 928.724 3455.8 930.052 3454.47 931.381C3442.24 957.156 3436.93 985.59 3439.06 1014.02C3436.66 1042.46 3441.98 1070.89 3454.2 1096.66H3454.47ZM3642.32 891.521L3689.09 884.878L3694.93 825.621L3749.4 817.915V884.878H3810.52V915.969H3749.4V1072.48C3749.4 1083.38 3749.4 1090.82 3749.93 1094.8C3749.93 1098.26 3750.73 1101.45 3751.79 1104.64C3752.86 1106.76 3754.72 1108.36 3757.11 1108.89C3761.09 1109.95 3765.35 1110.48 3769.6 1110.22H3803.08V1131.21C3786.87 1136.26 3770.66 1140.51 3753.92 1143.96C3742.76 1146.36 3731.6 1147.68 3720.18 1147.95C3707.95 1149.28 3696.26 1141.84 3692.54 1130.15C3690.68 1125.36 3689.62 1120.58 3689.35 1115.53C3688.82 1109.68 3688.56 1100.65 3688.56 1088.43V915.703H3642.06V891.256L3642.32 891.521ZM4026.01 1014.82C4026.01 1004.72 4026 995.687 4025.47 988.247C4025.21 980.806 4024.68 974.163 4024.41 968.583C4024.15 963.8 4023.35 959.017 4022.02 954.499C4020.96 951.045 4019.89 947.59 4018.3 944.402C4010.33 928.724 3993.59 919.423 3976.32 921.017C3967.28 921.017 3958.51 923.409 3950.54 927.661C3942.31 932.178 3935.4 938.555 3930.88 946.793C3927.96 952.373 3925.57 958.219 3924.24 964.597C3922.11 973.632 3921.32 982.667 3921.32 991.967V1107.29L3953.47 1116.33V1143.17H3823.8V1116.33L3860.73 1107.29V805.957L3823.8 796.922V770.083H3921.32V929.786C3929.02 915.171 3940.18 902.416 3954 893.382C3967.28 884.612 3982.69 880.095 3998.64 880.095C4010.33 879.829 4022.02 881.424 4033.44 885.144C4042.74 888.333 4051.25 893.913 4058.16 901.088C4068.78 912.514 4076.22 926.598 4079.94 942.01C4084.99 963.8 4087.38 986.387 4086.85 1008.71V1107.29L4123.79 1116.33V1143.17H3994.12V1116.33L4026.27 1107.29V1015.09L4026.01 1014.82ZM4245.48 1118.72C4252.92 1118.72 4260.62 1117.92 4268.06 1116.33C4274.44 1115 4280.55 1112.61 4286.4 1109.68C4291.45 1107.03 4295.7 1103.31 4298.89 1098.79C4301.81 1094.54 4303.4 1089.49 4303.4 1084.17C4303.4 1078.06 4301.28 1072.22 4297.56 1067.43C4293.04 1062.39 4287.73 1058.13 4281.88 1054.94C4274.71 1051.22 4267.53 1048.04 4259.83 1045.64C4251.59 1042.99 4243.62 1040.33 4235.65 1037.67C4225.82 1034.75 4215.99 1031.29 4206.69 1027.04C4197.39 1022.79 4188.88 1017.48 4181.44 1010.83C4174 1004.46 4167.89 996.484 4163.38 987.715C4158.59 977.883 4156.47 966.988 4156.73 956.094C4155.94 934.835 4165.24 914.374 4181.71 900.822C4202.17 885.675 4227.41 878.235 4252.92 880.095C4266.2 880.095 4279.76 881.424 4292.51 884.878C4303.4 887.535 4313.5 892.319 4322.53 898.43C4330.51 904.011 4337.15 911.185 4341.93 919.423C4346.45 927.395 4348.84 936.695 4348.84 945.996C4349.64 955.296 4346.18 964.597 4340.07 971.24C4333.43 977.352 4324.93 980.275 4315.89 979.743C4307.39 980.275 4298.89 977.618 4291.98 972.303C4286.66 968.051 4283.48 961.674 4283.48 954.765C4283.48 949.185 4285.07 943.87 4288.26 939.087C4291.18 934.304 4295.7 930.318 4300.75 927.926C4296.23 921.815 4289.85 916.766 4282.68 913.843C4273.91 910.122 4264.34 908.528 4254.78 908.794C4242.82 907.997 4231.13 911.185 4221.3 918.094C4213.86 924.738 4209.88 934.304 4210.41 944.136C4209.61 955.031 4214.13 965.66 4222.89 972.569C4232.99 979.743 4244.42 985.058 4256.37 988.247C4269.13 991.967 4281.62 995.953 4294.1 1000.2C4305.8 1003.92 4316.96 1009.24 4327.32 1015.62C4336.62 1021.2 4344.59 1028.9 4350.7 1037.94C4356.81 1047.5 4360 1058.66 4359.47 1069.83C4359.47 1081.52 4356.55 1092.94 4350.7 1103.04C4344.59 1112.87 4336.35 1121.38 4326.25 1127.49C4314.83 1134.4 4302.61 1139.45 4289.59 1142.64C4274.71 1146.36 4259.56 1147.95 4244.15 1147.95C4219.17 1149.28 4194.46 1143.43 4172.68 1131.21C4156.47 1121.64 4146.9 1104.37 4147.17 1085.77C4146.37 1074.61 4150.36 1063.45 4158.06 1055.21C4164.97 1048.04 4174.54 1044.05 4184.37 1044.32C4191.81 1044.32 4199.25 1046.44 4205.62 1050.69C4212 1054.68 4215.72 1061.59 4215.45 1069.03C4215.45 1075.14 4213.59 1080.72 4210.14 1085.77C4207.22 1090.55 4202.97 1094.8 4198.18 1097.73C4202.17 1103.57 4207.75 1108.62 4213.86 1112.08C4223.69 1117.13 4234.59 1119.25 4245.48 1118.72Z" fill="white"/>
<path fill-rule="evenodd" clip-rule="evenodd" d="M1020.05 630.309H838.043V402.845H1292.93C1292.93 447.754 1177.35 630.309 1020.05 630.309ZM0 77.8586V0L265.176 0.531458L977.008 0C1175.76 0 1292.93 157.843 1292.93 227.464H188.387C188.387 154.123 136.84 78.1244 0 78.1244V77.8586ZM188.387 402.845H636.636V630.309H188.387V402.845ZM636.636 1033.15H188.387V805.691H636.636V1033.15ZM838.043 805.691H1039.45C1243.51 805.691 1344.75 969.114 1344.75 1033.15H838.043V805.691ZM188.387 1208.54H636.636V1306.06H838.043V1208.54H1344.75C1344.75 1289.05 1198.87 1436 1045.83 1436H0V1357.88C135.777 1357.88 188.387 1286.13 188.387 1208.54Z" fill="white"/>
</svg>
