<svg width="273" height="22" viewBox="0 0 273 22" fill="none" xmlns="http://www.w3.org/2000/svg">
<path d="M15.8152 17.0741V10.5441H19.4995V18.9012C17.3129 20.6685 14.2576 21.5671 11.2922 21.5671C4.79221 21.5671 -0.000394244 17.0441 -0.000394244 10.7838C-0.000394244 4.52343 4.79221 0.000414049 11.3521 0.000414049C14.8567 0.000414049 17.7921 1.16861 19.7691 3.41514L17.3129 5.81144C15.6654 4.16399 13.7783 3.41514 11.5318 3.41514C7.06869 3.41514 3.92355 6.44047 3.92355 10.7838C3.92355 15.0372 7.06869 18.1524 11.5018 18.1524C12.9995 18.1524 14.4673 17.8529 15.8152 17.0741ZM42.5477 21.2676H38.3542L34.0708 15.1271C33.8012 15.157 33.5317 15.157 33.2621 15.157H28.5294V21.2676H24.6354V0.299951H33.2621C38.7736 0.299951 42.1883 3.11561 42.1883 7.75844C42.1883 10.9335 40.5708 13.2699 37.7252 14.3782L42.5477 21.2676ZM38.2644 7.75844C38.2644 5.12251 36.4971 3.59486 33.0824 3.59486H28.5294V11.952H33.0824C36.4971 11.952 38.2644 10.3944 38.2644 7.75844ZM46.5449 21.2676V0.299951H50.4389V21.2676H46.5449ZM71.4166 3.56491H60.0042V9.94506H70.1286V13.24H60.0042V21.2676H56.1102V0.299951H71.4166V3.56491ZM90.4887 3.56491H79.0763V9.94506H89.2007V13.24H79.0763V21.2676H75.1824V0.299951H90.4887V3.56491ZM94.2545 21.2676V0.299951H98.1485V21.2676H94.2545ZM108.073 21.2676V3.59486H101.124V0.299951H118.916V3.59486H111.967V21.2676H108.073ZM138.8 0.299951L130.592 13.869V21.2676H126.698V13.9289L118.461 0.299951H122.625L128.765 10.5142L134.966 0.299951H138.8ZM147.7 21.4173C144.585 21.4173 141.589 20.2492 140.062 18.5717L140.751 17.4335C142.188 18.9312 144.854 20.0694 147.67 20.0694C151.863 20.0694 153.721 18.2422 153.721 15.9658C153.721 9.67548 140.631 13.4496 140.631 5.72158C140.631 2.75616 142.907 0.150183 148.059 0.150183C150.366 0.150183 152.762 0.869072 154.38 2.03727L153.81 3.26537C152.073 2.06722 149.946 1.4981 148.059 1.4981C143.986 1.4981 142.158 3.38519 142.158 5.69163C142.158 11.9819 155.248 8.26765 155.248 15.8759C155.248 18.8413 152.882 21.4173 147.7 21.4173ZM164.163 21.2676V1.67782H156.614V0.299951H173.239V1.67782H165.69V21.2676H164.163ZM184.825 21.4173C179.613 21.4173 176.438 18.3621 176.438 12.3713V0.299951H177.966V12.3114C177.966 17.5533 180.482 20.0095 184.855 20.0095C189.228 20.0095 191.714 17.5533 191.714 12.3114V0.299951H193.242V12.3713C193.242 18.3621 190.037 21.4173 184.825 21.4173ZM200.37 21.2676V0.299951H208.667C215.317 0.299951 219.81 4.6732 219.81 10.7838C219.81 16.8943 215.317 21.2676 208.667 21.2676H200.37ZM201.898 19.8897H208.547C214.478 19.8897 218.282 16.1155 218.282 10.7838C218.282 5.452 214.478 1.67782 208.547 1.67782H201.898V19.8897ZM225.117 21.2676V0.299951H226.645V21.2676H225.117ZM242.847 21.4173C236.587 21.4173 231.944 16.8644 231.944 10.7838C231.944 4.70315 236.587 0.150183 242.847 0.150183C249.078 0.150183 253.75 4.6732 253.75 10.7838C253.75 16.8943 249.078 21.4173 242.847 21.4173ZM242.847 20.0095C248.179 20.0095 252.193 16.0856 252.193 10.7838C252.193 5.48195 248.179 1.55801 242.847 1.55801C237.486 1.55801 233.472 5.48195 233.472 10.7838C233.472 16.0856 237.486 20.0095 242.847 20.0095ZM264.561 21.4173C261.445 21.4173 258.45 20.2492 256.922 18.5717L257.611 17.4335C259.049 18.9312 261.715 20.0694 264.531 20.0694C268.724 20.0694 270.581 18.2422 270.581 15.9658C270.581 9.67548 257.491 13.4496 257.491 5.72158C257.491 2.75616 259.768 0.150183 264.92 0.150183C267.226 0.150183 269.623 0.869072 271.24 2.03727L270.671 3.26537C268.934 2.06722 266.807 1.4981 264.92 1.4981C260.846 1.4981 259.019 3.38519 259.019 5.69163C259.019 11.9819 272.109 8.26765 272.109 15.8759C272.109 18.8413 269.743 21.4173 264.561 21.4173Z" fill="#051016"/>
</svg>
